<?xml version="1.0" standalone="no"?>
<svg width="567.429" height="384.969" viewBox="0 0 567.429 384.969" xmlns="http://www.w3.org/2000/svg" shape-rendering="crispEdges">
<title>
sbml-modules.svg
</title>
<desc>
Creator: ROOT Version 6.18/04
CreationDate: Mon Apr 20 23:21:11 2020</desc>
<defs>
</defs>
<rect x="0.5" y="0" width="566.929" height="384.469" fill="white"/>
<rect x="57.1929" y="38.4469" width="453.543" height="307.575" fill="white"/>
<rect x="57.1929" y="38.4469" width="453.543" height="307.575" fill="none" stroke="black"/>
<rect x="57.1929" y="38.4469" width="453.543" height="307.575" fill="white"/>
<rect x="57.1929" y="38.4469" width="453.543" height="307.575" fill="none" stroke="black"/>
<path d="M57.1929,346.022h 453.543" fill="none" stroke="black"/>
<path d="M77.8085,38.4469v 307.575" fill="none" stroke="black" stroke-dasharray=" 1, 2"/>
<path d="M180.938,38.4469v 307.575" fill="none" stroke="black" stroke-dasharray=" 1, 2"/>
<path d="M284.068,38.4469v 307.575" fill="none" stroke="black" stroke-dasharray=" 1, 2"/>
<path d="M387.197,38.4469v 307.575" fill="none" stroke="black" stroke-dasharray=" 1, 2"/>
<path d="M490.327,38.4469v 307.575" fill="none" stroke="black" stroke-dasharray=" 1, 2"/>
<path d="M77.8085,38.4469v 307.575" fill="none" stroke="black" stroke-dasharray=" 1, 2"/>
<path d="M490.327,38.4469v 307.575" fill="none" stroke="black" stroke-dasharray=" 1, 2"/>
<path d="M57.1929,346.022v -307.575" fill="none" stroke="black"/>
<path d="M510.736,346.022h -453.543" fill="none" stroke="black" stroke-dasharray=" 1, 2"/>
<path d="M510.736,315.265h -453.543" fill="none" stroke="black" stroke-dasharray=" 1, 2"/>
<path d="M510.736,284.507h -453.543" fill="none" stroke="black" stroke-dasharray=" 1, 2"/>
<path d="M510.736,253.75h -453.543" fill="none" stroke="black" stroke-dasharray=" 1, 2"/>
<path d="M510.736,222.992h -453.543" fill="none" stroke="black" stroke-dasharray=" 1, 2"/>
<path d="M510.736,192.235h -453.543" fill="none" stroke="black" stroke-dasharray=" 1, 2"/>
<path d="M510.736,161.477h -453.543" fill="none" stroke="black" stroke-dasharray=" 1, 2"/>
<path d="M510.736,130.72h -453.543" fill="none" stroke="black" stroke-dasharray=" 1, 2"/>
<path d="M510.736,99.962h -453.543" fill="none" stroke="black" stroke-dasharray=" 1, 2"/>
<path d="M510.736,69.2045h -453.543" fill="none" stroke="black" stroke-dasharray=" 1, 2"/>
<path d="M510.736,38.4469h -453.543" fill="none" stroke="black" stroke-dasharray=" 1, 2"/>
<path d="M57.1929,346.022h 453.543" fill="none" stroke="black"/>
<path d="M77.8085,336.795v 9.22726" fill="none" stroke="black"/>
<path d="M98.4344,341.409v 4.61363" fill="none" stroke="black"/>
<path d="M119.06,341.409v 4.61363" fill="none" stroke="black"/>
<path d="M139.686,341.409v 4.61363" fill="none" stroke="black"/>
<path d="M160.312,341.409v 4.61363" fill="none" stroke="black"/>
<path d="M180.938,336.795v 9.22726" fill="none" stroke="black"/>
<path d="M201.564,341.409v 4.61363" fill="none" stroke="black"/>
<path d="M222.19,341.409v 4.61363" fill="none" stroke="black"/>
<path d="M242.816,341.409v 4.61363" fill="none" stroke="black"/>
<path d="M263.442,341.409v 4.61363" fill="none" stroke="black"/>
<path d="M284.068,336.795v 9.22726" fill="none" stroke="black"/>
<path d="M304.694,341.409v 4.61363" fill="none" stroke="black"/>
<path d="M325.32,341.409v 4.61363" fill="none" stroke="black"/>
<path d="M345.945,341.409v 4.61363" fill="none" stroke="black"/>
<path d="M366.571,341.409v 4.61363" fill="none" stroke="black"/>
<path d="M387.197,336.795v 9.22726" fill="none" stroke="black"/>
<path d="M407.823,341.409v 4.61363" fill="none" stroke="black"/>
<path d="M428.449,341.409v 4.61363" fill="none" stroke="black"/>
<path d="M449.075,341.409v 4.61363" fill="none" stroke="black"/>
<path d="M469.701,341.409v 4.61363" fill="none" stroke="black"/>
<path d="M490.327,336.795v 9.22726" fill="none" stroke="black"/>
<path d="M77.8085,336.795v 9.22726" fill="none" stroke="black"/>
<path d="M490.327,336.795v 9.22726" fill="none" stroke="black"/>
<text xml:space="preserve" x="73.8098" y="358.403" fill="black" font-size="12.8453" font-family="Helvetica">0</text>
<text xml:space="preserve" x="173.185" y="358.403" fill="black" font-size="12.8453" font-family="Helvetica">50</text>
<text xml:space="preserve" x="273.375" y="358.403" fill="black" font-size="12.8453" font-family="Helvetica">100</text>
<text xml:space="preserve" x="376.009" y="358.403" fill="black" font-size="12.8453" font-family="Helvetica">150</text>
<text xml:space="preserve" x="479.457" y="358.403" fill="black" font-size="12.8453" font-family="Helvetica">200</text>
<text xml:space="preserve" x="459.908" y="371.436" fill="black" font-size="12.8453" font-family="Helvetica">Timestep</text>
<path d="M57.1929,346.022v -307.575" fill="none" stroke="black"/>
<path d="M70.7992,346.022h -13.6063" fill="none" stroke="black"/>
<path d="M63.9961,339.871h -6.80315" fill="none" stroke="black"/>
<path d="M63.9961,333.719h -6.80315" fill="none" stroke="black"/>
<path d="M63.9961,327.568h -6.80315" fill="none" stroke="black"/>
<path d="M63.9961,321.416h -6.80315" fill="none" stroke="black"/>
<path d="M70.7992,315.265h -13.6063" fill="none" stroke="black"/>
<path d="M63.9961,309.113h -6.80315" fill="none" stroke="black"/>
<path d="M63.9961,302.962h -6.80315" fill="none" stroke="black"/>
<path d="M63.9961,296.81h -6.80315" fill="none" stroke="black"/>
<path d="M63.9961,290.659h -6.80315" fill="none" stroke="black"/>
<path d="M70.7992,284.507h -13.6063" fill="none" stroke="black"/>
<path d="M63.9961,278.356h -6.80315" fill="none" stroke="black"/>
<path d="M63.9961,272.204h -6.80315" fill="none" stroke="black"/>
<path d="M63.9961,266.053h -6.80315" fill="none" stroke="black"/>
<path d="M63.9961,259.901h -6.80315" fill="none" stroke="black"/>
<path d="M70.7992,253.75h -13.6063" fill="none" stroke="black"/>
<path d="M63.9961,247.598h -6.80315" fill="none" stroke="black"/>
<path d="M63.9961,241.447h -6.80315" fill="none" stroke="black"/>
<path d="M63.9961,235.295h -6.80315" fill="none" stroke="black"/>
<path d="M63.9961,229.144h -6.80315" fill="none" stroke="black"/>
<path d="M70.7992,222.992h -13.6063" fill="none" stroke="black"/>
<path d="M63.9961,216.841h -6.80315" fill="none" stroke="black"/>
<path d="M63.9961,210.689h -6.80315" fill="none" stroke="black"/>
<path d="M63.9961,204.538h -6.80315" fill="none" stroke="black"/>
<path d="M63.9961,198.386h -6.80315" fill="none" stroke="black"/>
<path d="M70.7992,192.235h -13.6063" fill="none" stroke="black"/>
<path d="M63.9961,186.083h -6.80315" fill="none" stroke="black"/>
<path d="M63.9961,179.932h -6.80315" fill="none" stroke="black"/>
<path d="M63.9961,173.78h -6.80315" fill="none" stroke="black"/>
<path d="M63.9961,167.629h -6.80315" fill="none" stroke="black"/>
<path d="M70.7992,161.477h -13.6063" fill="none" stroke="black"/>
<path d="M63.9961,155.326h -6.80315" fill="none" stroke="black"/>
<path d="M63.9961,149.174h -6.80315" fill="none" stroke="black"/>
<path d="M63.9961,143.023h -6.80315" fill="none" stroke="black"/>
<path d="M63.9961,136.871h -6.80315" fill="none" stroke="black"/>
<path d="M70.7992,130.72h -13.6063" fill="none" stroke="black"/>
<path d="M63.9961,124.568h -6.80315" fill="none" stroke="black"/>
<path d="M63.9961,118.417h -6.80315" fill="none" stroke="black"/>
<path d="M63.9961,112.265h -6.80315" fill="none" stroke="black"/>
<path d="M63.9961,106.113h -6.80315" fill="none" stroke="black"/>
<path d="M70.7992,99.962h -13.6063" fill="none" stroke="black"/>
<path d="M63.9961,93.8105h -6.80315" fill="none" stroke="black"/>
<path d="M63.9961,87.659h -6.80315" fill="none" stroke="black"/>
<path d="M63.9961,81.5075h -6.80315" fill="none" stroke="black"/>
<path d="M63.9961,75.356h -6.80315" fill="none" stroke="black"/>
<path d="M70.7992,69.2045h -13.6063" fill="none" stroke="black"/>
<path d="M63.9961,63.0529h -6.80315" fill="none" stroke="black"/>
<path d="M63.9961,56.9014h -6.80315" fill="none" stroke="black"/>
<path d="M63.9961,50.7499h -6.80315" fill="none" stroke="black"/>
<path d="M63.9961,44.5984h -6.80315" fill="none" stroke="black"/>
<path d="M70.7992,38.4469h -13.6063" fill="none" stroke="black"/>
<text xml:space="preserve" x="16.7911" y="350.258" fill="black" font-size="12.8453" font-family="Helvetica">2199.7</text>
<text xml:space="preserve" x="9.46009" y="350.258" fill="black" font-size="12.8453" font-family="Times">&#8722;</text>
<text xml:space="preserve" x="16.7911" y="320.119" fill="black" font-size="12.8453" font-family="Helvetica">1969.3</text>
<text xml:space="preserve" x="9.46009" y="320.119" fill="black" font-size="12.8453" font-family="Times">&#8722;</text>
<text xml:space="preserve" x="16.7911" y="289.166" fill="black" font-size="12.8453" font-family="Helvetica">1738.8</text>
<text xml:space="preserve" x="9.46009" y="289.166" fill="black" font-size="12.8453" font-family="Times">&#8722;</text>
<text xml:space="preserve" x="16.7911" y="258.213" fill="black" font-size="12.8453" font-family="Helvetica">1508.4</text>
<text xml:space="preserve" x="9.46009" y="258.213" fill="black" font-size="12.8453" font-family="Times">&#8722;</text>
<text xml:space="preserve" x="16.7911" y="227.26" fill="black" font-size="12.8453" font-family="Helvetica">1277.9</text>
<text xml:space="preserve" x="9.46009" y="227.26" fill="black" font-size="12.8453" font-family="Times">&#8722;</text>
<text xml:space="preserve" x="16.7911" y="197.122" fill="black" font-size="12.8453" font-family="Helvetica">1047.5</text>
<text xml:space="preserve" x="9.46009" y="197.122" fill="black" font-size="12.8453" font-family="Times">&#8722;</text>
<text xml:space="preserve" x="33.8967" y="166.169" fill="black" font-size="12.8453" font-family="Helvetica">817</text>
<text xml:space="preserve" x="26.5657" y="166.169" fill="black" font-size="12.8453" font-family="Times">&#8722;</text>
<text xml:space="preserve" x="23.3075" y="135.216" fill="black" font-size="12.8453" font-family="Helvetica">586.6</text>
<text xml:space="preserve" x="15.9765" y="135.216" fill="black" font-size="12.8453" font-family="Times">&#8722;</text>
<text xml:space="preserve" x="25.7512" y="104.263" fill="black" font-size="12.8453" font-family="Helvetica">356.1</text>
<text xml:space="preserve" x="18.4202" y="104.263" fill="black" font-size="12.8453" font-family="Times">&#8722;</text>
<text xml:space="preserve" x="23.3075" y="73.3098" fill="black" font-size="12.8453" font-family="Helvetica">125.7</text>
<text xml:space="preserve" x="15.9765" y="73.3098" fill="black" font-size="12.8453" font-family="Times">&#8722;</text>
<text xml:space="preserve" x="23.3075" y="43.1713" fill="black" font-size="12.8453" font-family="Helvetica">104.7</text>
<text xml:space="preserve" x="77.068" y="30.1385" fill="black" font-size="8.73023" font-family="Helvetica">258</text>
<text xml:space="preserve" x="63.2206" y="36.6549" fill="black" font-size="12.8453" font-family="Helvetica">10</text>
<text xml:space="preserve" x="56.7042" y="36.6549" fill="black" font-size="12.8453" font-family="Times">&#0215;</text>
<g transform="rotate(-90,-0.314553,82.2699)">
<text xml:space="preserve" x="-0.314553" y="82.2699" fill="black" font-size="12.8453" font-family="Helvetica">Number</text>
</g>
<path d="M77.8085,52.4276h 412.312" fill="none" stroke="#ff0000" fill-opacity="0.10" stroke-opacity="0.10"/>
<path d="M77.8085,52.4276h 412.312" fill="none" stroke="#ff0000" fill-opacity="0.10" stroke-opacity="0.10"/>
<path d="M77.8085,52.4276h 52.3898l 0.206259, -nanl 0.206259, -nanl 0.206259, -nanl 0.206259, -nanl 0.206259, -nanl 0.206259, -nanl 0.206259, -nanl 0.206259, -nanl 0.206259, -nanl 0.206259, -nanl 0.206259, -nanh 5.569l 0.206259, -1.00044e-11l
 0.206259, -4.80028e-07l 0.206259, 4.80038e-07h 33.414l 0.206259, -nanl 0.206259, -nanh 5.98152l 0.206259, -nanl 0.206259, -nanh 8.25037l 0.206259, -nanl 0.206259, -nanh 4.12518l 0.206259, -nanl 0.206259, -nanh 5.77526l 0.206259, -nanl 0.206259,
 -nanh 3.50641l 0.206259, 279.614l 0.206259, -279.614h 3.30015l 0.206259, -4.80038e-07l 0.206259, -nanl 0.206259, -nanh 7.83785l 0.206259, -nanl 0.206259, -nanh 5.77526l 0.206259, -nanl 0.206259, -nanh 9.69418l 0.206259, -nanl 0.206259, -nanh
 12.7881l 0.206259, -nanl 0.206259, -nanl 0.206259, -nanl 0.206259, -nanl 0.206259, -nanl 0.206259, -nanh 5.569l 0.206259, -nanl 0.206259, -nanh 0.825037l 0.206259, -nanl 0.206259, -nanh 0.825037l 0.206259, -nanl 0.206259, -nanh 0.825037l 0.206259,
 -nanl 0.206259, -nanh 0.825037l 0.206259, -nanl 0.206259, -nanh 4.33144l 0.206259, -nanl 0.206259, -nanl 0.206259, -nanl 0.206259, -nanl 0.206259, -nanl 0.206259, -nanl 0.206259, -nanl 0.206259, -nanl 0.206259, -nanl 0.206259, -nanl 0.206259, -nanl
 0.206259, -nanl 0.206259, -nanl 0.206259, -nanl 0.206259, -nanl 0.206259, -nanl 0.206259, -nanl 0.206259, -nanl 0.206259, -nanl 0.206259, -nanh 0.412518l 0.206259, -nanl 0.206259, -nanl 0.206259, -nanl 0.206259, -nanl 0.206259, -nanl 0.206259, -nanl
 0.206259, -nanl 0.206259, -nanl 0.206259, -nanl 0.206259, -nanh 5.77526l 0.206259, -nanl 0.206259, -nanl 0.206259, -nanl 0.206259, -nanl 0.206259, -nanl 0.206259, -nanl 0.206259, -nanl 0.206259, -nanl 0.206259, -nanl 0.206259, -nanh 6.18778l
 0.206259, -nanl 0.206259, -nanl 0.206259, -nanl 0.206259, -nanl 0.206259, -nanl 0.206259, -nanl 0.206259, -nanl 0.206259, -nanl 0.206259, -nanl 0.206259, -nanl 0.206259, -nanl 0.206259, -nanl 0.206259, -nanl 0.206259, -nanl 0.206259, -nanl 0.206259,
 -nanl 0.206259, -nanl 0.206259, -nanh 0.412518l 0.206259, -nanl 0.206259, -nanh 0.618778l 0.206259, -nanl 0.206259, -nanh 0.618778l 0.206259, -nanl 0.206259, -nanh 0.618778l 0.206259, -nanl 0.206259, -nanh 0.618778l 0.206259, -nanl 0.206259, -nanl
 0.206259, -nanl 0.206259, -nanh 0.206259l 0.206259, -nanl 0.206259, -nanh 0.412518l 0.206259, -nanl 0.206259, -nanl 0.206259, -nanh 1.23756l 0.206259, -nanl 0.206259, -nanl 0.206259, -nanl 0.206259, -nanl 0.206259, -nanl 0.206259, -nanl 0.206259,
 -nanl 0.206259, -nanl 0.206259, -nanl 0.206259, -nanl 0.206259, -nanl 0.206259, -nanl 0.206259, -nanl 0.206259, -nanl 0.206259, -nanl 0.206259, -nanl 0.206259, -nanl 0.206259, -nanl 0.206259, -nanl 0.206259, -nanh 2.06259l 0.206259, -nanl 0.206259,
 -nanl 0.206259, -nanl 0.206259, -nanl 0.206259, -nanl 0.206259, -nanl 0.206259, -nanl 0.206259, -nanl 0.206259, -nanl 0.206259, -nanh 0.412518l 0.206259, -nanl 0.206259, -nanh 0.825037l 0.206259, -nanl 0.206259, -nanh 2.68137l 0.206259, -nanl
 0.206259, -nanl 0.206259, -nanh 0.825037l 0.206259, -nanl 0.206259, -nanl 0.206259, -nanl 0.206259, -nanl 0.206259, -nanl 0.206259, -nanl 0.206259, -nanl 0.206259, -nanh 12.3756l 0.206259, -nanl 0.206259, -nanl 0.206259, -nanl 0.206259, -nanl
 0.206259, -nanl 0.206259, -nanl 0.206259, -nanl 0.206259, -nanl 0.206259, -nanl 0.206259, -nanl 0.206259, -nanl 0.206259, -nanl 0.206259, -nanl 0.206259, -nanl 0.206259, -nanl 0.206259, -nanl 0.206259, -nanl 0.206259, -nanl 0.206259, -nanl 0.206259,
 -nanh 25.1636l 0.206259, -nanl 0.206259, -nanl 0.206259, -nanl 0.206259, -nanh 0.206259l 0.206259, -nanl 0.206259, -nanh 1.65007l 0.206259, -5.33159e-07l 0.206259, 5.33159e-07h 2.06259l 0.206259, -nanl 0.206259, -nanl 0.206259, -nanh 5.36274l
 0.206259, -nanl 0.206259, -nanl 0.206259, -nanl 0.206259, -nanl 0.206259, -nanl 0.206259, -nanl 0.206259, -nanl 0.206259, -nanl 0.206259, -nanl 0.206259, -nanh 4.12518l 0.206259, -nanl 0.206259, -nanl 0.206259, -nanl 0.206259, -nanl 0.206259, -nanl
 0.206259, -nanl 0.206259, -nanl 0.206259, -nanl 0.206259, -nanl 0.206259, -nanl 0.206259, -nanl 0.206259, -nanl 0.206259, -nanl 0.206259, -nanl 0.206259, -nanl 0.206259, -nanl 0.206259, -nanl 0.206259, -nanh 1.23756l 0.206259, -nanl 0.206259, -nanl
 0.206259, -nanl 0.206259, -nanl 0.206259, -nanl 0.206259, -nanl 0.206259, -nanl 0.206259, -nanl 0.206259, -nanl 0.206259, -nanh 0.206259l 0.206259, nanl 0.206259, nanh 24.9574l 0.206259, -nanl 0.206259, -nanl 0.206259, -nanl 0.206259, -nanl
 0.206259, -nanl 0.206259, -nanl 0.206259, -nanl 0.206259, -nanl 0.206259, -nanl 0.206259, -nanh 0.206259l 0.206259, -nanl 0.206259, -nanh 0.206259l 0.206259, -nanl 0.206259, -nanh 0.206259l 0.206259, -nanl 0.206259, -nanh 0.206259l 0.206259, -nanl
 0.206259, -nanh 0.206259l 0.206259, -nanl 0.206259, -nanl 0.206259, -nanh 0.412518l 0.206259, -nanl 0.206259, -nanh 0.412518l 0.206259, -nanl 0.206259, -nanh 0.412518l 0.206259, -nanl 0.206259, -nanh 0.412518l 0.206259, -nanl 0.206259, -nanh 11.963l
 0.206259, -nanl 0.206259, -nanh 0.206259l 0.206259, -nanl 0.206259, -nanh 0.206259l 0.206259, -nanl 0.206259, -nanh 17.3258l 0.206259, -nanl 0.206259, -nanl 0.206259, -nanl 0.206259, -nanl 0.206259, -nanl 0.206259, -nanl 0.206259, -nanl 0.206259,
 -nanl 0.206259, -nanl 0.206259, -nanh 15.882l 0.206259, -nanl 0.206259, -nanl 0.206259, -nanh 9.0754l 0.206259, -nanl 0.206259, -nanh 1.65007l 0.206259, -nanl 0.206259, -nanh 0.412518l 0.206259, -nanl 0.206259, -nanl 0.206259, -nanl 0.206259, -nanh
 9.48792l 0.206259, -nanl 0.206259, -nanh 0.412518l 0.206259, -nanl 0.206259, -nanh 0.412518l 0.206259, -nanl 0.206259, -nanh 0.825037l 0.206259, -nanl 0.206259, -nanl 0.206259, -nanl 0.206259, -nanl 0.206259, -nanl 0.206259, -nanl 0.206259, -nanl
 0.206259, -nanh 0.206259l 0.206259, -nanl 0.206259, -nanh 0.206259l 0.206259, -nanl 0.206259, -nanh 0.206259l 0.206259, -nanl 0.206259, -nanh 0.206259l 0.206259, -nanl 0.206259, -nanh 2.06259" fill="none" stroke="#00ff00" fill-opacity="0.10"
 stroke-opacity="0.10"/>
<path d="M77.8085,52.4276h 52.3898l 0.206259, -nanl 0.206259, -nanl 0.206259, -nanl 0.206259, -nanl 0.206259, -nanl 0.206259, -nanl 0.206259, -nanl 0.206259, -nanl 0.206259, -nanl 0.206259, -nanl 0.206259, -nanh 5.569l 0.206259, -1.00044e-11l
 0.206259, -4.80028e-07l 0.206259, 4.80038e-07h 33.414l 0.206259, -nanl 0.206259, -nanh 5.98152l 0.206259, -nanl 0.206259, -nanh 8.25037l 0.206259, -nanl 0.206259, -nanh 4.12518l 0.206259, -nanl 0.206259, -nanh 5.77526l 0.206259, -nanl 0.206259,
 -nanh 3.50641l 0.769467, 0.556599l 0.645641, 1.37485l 0.534543, 2.09821l 0.435065, 2.7361l 0.34623, 3.29852l 0.267715, 3.80801l 0.183617, 3.90402l 0.137156, 4.58683l 0.080268, 4.91386l 0.0299369, 5.2123l -0.0248098, 6.84658l -0.0996964, 8.13389l
 -0.190133, 9.62779l -0.298958, 11.4174l -0.490785, 15.3744l -0.73151, 19.8566l -2.90049, 71.2053l -0.676437, 18.0024l -0.472132, 14.0633l -0.332957, 11.5781l -0.22538, 9.74796l -0.137816, 8.30649l -0.0645194, 7.13489l -0.00169169, 6.16943l
 0.0538342, 5.36905l 0.105033, 4.69988l 0.154564, 4.12691l 0.204369, 3.6144l 0.266565, 3.24529l 0.275613, 2.38902l 0.387042, 2.3584l 0.471399, 1.8703l 0.559455, 1.28833l 0.692066, 0.653691l 0.253995, 0.044648l 0.769509, -0.447141l 0.645646, -1.27291l
 0.534509, -2.00313l 0.434979, -2.64699l 0.346009, -3.21322l 0.266624, -3.71019l 0.195901, -4.14606l 0.132969, -4.52898l 0.0769839, -4.8673l 0.0271191, -5.16998l -0.0281878, -6.84171l -0.103942, -8.14761l -0.195512, -9.66286l -0.305866, -11.4833l
 -0.496063, -15.36l -0.734475, -19.8002l -1.12011, -27.6547l -1.57844, -38.4154l -0.724281, -18.9528l -0.505076, -14.6768l -0.359309, -12.0579l -0.247525, -10.1519l -0.156781, -8.65773l -0.0809181, -7.44451l -0.0160406, -6.4436l 0.0409875, -5.6123l
 0.09308, -4.9172l 0.142911, -4.32489l 0.192526, -3.80006l 0.262581, -3.53172l 0.274736, -2.61129l 0.425753, -2.7916l 0.4658, -1.97314l 0.554144, -1.40642l 0.681348, -0.787321l 0.294669, -0.101157h 3.30015l 0.206259, -4.80038e-07l 0.206259, -nanl
 0.206259, -nanh 7.83785l 0.206259, -nanl 0.206259, -nanh 5.77526l 0.206259, -nanl 0.206259, -nanh 9.69418l 0.206259, -nanl 0.206259, -nanh 12.7881l 0.206259, -nanl 0.206259, -nanl 0.206259, -nanl 0.206259, -nanl 0.206259, -nanl 0.206259, -nanh
 5.569l 0.206259, -nanl 0.206259, -nanh 0.825037l 0.206259, -nanl 0.206259, -nanh 0.825037l 0.206259, -nanl 0.206259, -nanh 0.825037l 0.206259, -nanl 0.206259, -nanh 0.825037l 0.206259, -nanl 0.206259, -nanh 4.33144l 0.206259, -nanl 0.206259, -nanl
 0.206259, -nanl 0.206259, -nanl 0.206259, -nanl 0.206259, -nanl 0.206259, -nanl 0.206259, -nanl 0.206259, -nanl 0.206259, -nanl 0.206259, -nanl 0.206259, -nanl 0.206259, -nanl 0.206259, -nanl 0.206259, -nanl 0.206259, -nanl 0.206259, -nanl 0.206259,
 -nanl 0.206259, -nanl 0.206259, -nanh 0.412518l 0.206259, -nanl 0.206259, -nanl 0.206259, -nanl 0.206259, -nanl 0.206259, -nanl 0.206259, -nanl 0.206259, -nanl 0.206259, -nanl 0.206259, -nanl 0.206259, -nanh 5.77526l 0.206259, -nanl 0.206259, -nanl
 0.206259, -nanl 0.206259, -nanl 0.206259, -nanl 0.206259, -nanl 0.206259, -nanl 0.206259, -nanl 0.206259, -nanl 0.206259, -nanh 6.18778l 0.206259, -nanl 0.206259, -nanl 0.206259, -nanl 0.206259, -nanl 0.206259, -nanl 0.206259, -nanl 0.206259, -nanl
 0.206259, -nanl 0.206259, -nanl 0.206259, -nanl 0.206259, -nanl 0.206259, -nanl 0.206259, -nanl 0.206259, -nanl 0.206259, -nanl 0.206259, -nanl 0.206259, -nanl 0.206259, -nanh 0.412518l 0.206259, -nanl 0.206259, -nanh 0.618778l 0.206259, -nanl
 0.206259, -nanh 0.618778l 0.206259, -nanl 0.206259, -nanh 0.618778l 0.206259, -nanl 0.206259, -nanh 0.618778l 0.206259, -nanl 0.206259, -nanl 0.206259, -nanl 0.206259, -nanh 0.206259l 0.206259, -nanl 0.206259, -nanh 0.412518l 0.206259, -nanl
 0.206259, -nanl 0.206259, -nanh 1.23756l 0.206259, -nanl 0.206259, -nanl 0.206259, -nanl 0.206259, -nanl 0.206259, -nanl 0.206259, -nanl 0.206259, -nanl 0.206259, -nanl 0.206259, -nanl 0.206259, -nanl 0.206259, -nanl 0.206259, -nanl 0.206259, -nanl
 0.206259, -nanl 0.206259, -nanl 0.206259, -nanl 0.206259, -nanl 0.206259, -nanl 0.206259, -nanl 0.206259, -nanh 2.06259l 0.206259, -nanl 0.206259, -nanl 0.206259, -nanl 0.206259, -nanl 0.206259, -nanl 0.206259, -nanl 0.206259, -nanl 0.206259, -nanl
 0.206259, -nanl 0.206259, -nanh 0.412518l 0.206259, -nanl 0.206259, -nanh 0.825037l 0.206259, -nanl 0.206259, -nanh 2.68137l 0.206259, -nanl 0.206259, -nanl 0.206259, -nanh 0.825037l 0.206259, -nanl 0.206259, -nanl 0.206259, -nanl 0.206259, -nanl
 0.206259, -nanl 0.206259, -nanl 0.206259, -nanl 0.206259, -nanh 12.3756l 0.206259, -nanl 0.206259, -nanl 0.206259, -nanl 0.206259, -nanl 0.206259, -nanl 0.206259, -nanl 0.206259, -nanl 0.206259, -nanl 0.206259, -nanl 0.206259, -nanl 0.206259, -nanl
 0.206259, -nanl 0.206259, -nanl 0.206259, -nanl 0.206259, -nanl 0.206259, -nanl 0.206259, -nanl 0.206259, -nanl 0.206259, -nanl 0.206259, -nanh 25.1636l 0.206259, -nanl 0.206259, -nanl 0.206259, -nanl 0.206259, -nanh 0.206259l 0.206259, -nanl
 0.206259, -nanh 1.65007l 0.206259, -5.33159e-07l 0.206259, 5.33159e-07h 2.06259l 0.206259, -nanl 0.206259, -nanl 0.206259, -nanh 5.36274l 0.206259, -nanl 0.206259, -nanl 0.206259, -nanl 0.206259, -nanl 0.206259, -nanl 0.206259, -nanl 0.206259, -nanl
 0.206259, -nanl 0.206259, -nanl 0.206259, -nanh 4.12518l 0.206259, -nanl 0.206259, -nanl 0.206259, -nanl 0.206259, -nanl 0.206259, -nanl 0.206259, -nanl 0.206259, -nanl 0.206259, -nanl 0.206259, -nanl 0.206259, -nanl 0.206259, -nanl 0.206259, -nanl
 0.206259, -nanl 0.206259, -nanl 0.206259, -nanl 0.206259, -nanl 0.206259, -nanl 0.206259, -nanh 1.23756l 0.206259, -nanl 0.206259, -nanl 0.206259, -nanl 0.206259, -nanl 0.206259, -nanl 0.206259, -nanl 0.206259, -nanl 0.206259, -nanl 0.206259, -nanl
 0.206259, -nanh 0.206259l 0.206259, nanl 0.206259, nanh 24.9574l 0.206259, -nanl 0.206259, -nanl 0.206259, -nanl 0.206259, -nanl 0.206259, -nanl 0.206259, -nanl 0.206259, -nanl 0.206259, -nanl 0.206259, -nanl 0.206259, -nanh 0.206259l 0.206259,
 -nanl 0.206259, -nanh 0.206259l 0.206259, -nanl 0.206259, -nanh 0.206259l 0.206259, -nanl 0.206259, -nanh 0.206259l 0.206259, -nanl 0.206259, -nanh 0.206259l 0.206259, -nanl 0.206259, -nanl 0.206259, -nanh 0.412518l 0.206259, -nanl 0.206259, -nanh
 0.412518l 0.206259, -nanl 0.206259, -nanh 0.412518l 0.206259, -nanl 0.206259, -nanh 0.412518l 0.206259, -nanl 0.206259, -nanh 11.963l 0.206259, -nanl 0.206259, -nanh 0.206259l 0.206259, -nanl 0.206259, -nanh 0.206259l 0.206259, -nanl 0.206259, -nanh
 17.3258l 0.206259, -nanl 0.206259, -nanl 0.206259, -nanl 0.206259, -nanl 0.206259, -nanl 0.206259, -nanl 0.206259, -nanl 0.206259, -nanl 0.206259, -nanl 0.206259, -nanh 15.882l 0.206259, -nanl 0.206259, -nanl 0.206259, -nanh 9.0754l 0.206259, -nanl
 0.206259, -nanh 1.65007l 0.206259, -nanl 0.206259, -nanh 0.412518l 0.206259, -nanl 0.206259, -nanl 0.206259, -nanl 0.206259, -nanh 9.48792l 0.206259, -nanl 0.206259, -nanh 0.412518l 0.206259, -nanl 0.206259, -nanh 0.412518l 0.206259, -nanl 0.206259,
 -nanh 0.825037l 0.206259, -nanl 0.206259, -nanl 0.206259, -nanl 0.206259, -nanl 0.206259, -nanl 0.206259, -nanl 0.206259, -nanl 0.206259, -nanh 0.206259l 0.206259, -nanl 0.206259, -nanh 0.206259l 0.206259, -nanl 0.206259, -nanh 0.206259l 0.206259,
 -nanl 0.206259, -nanh 0.206259l 0.206259, -nanl 0.206259, -nanh 2.06259" fill="none" stroke="#00ff00" fill-opacity="0.10" stroke-opacity="0.10"/>
<path d="M77.8085,52.4276h 412.312" fill="none" stroke="#ff0000" fill-opacity="0.10" stroke-opacity="0.10"/>
<path d="M77.8085,52.4276h 412.312" fill="none" stroke="#ff0000" fill-opacity="0.10" stroke-opacity="0.10"/>
<path d="M77.8085,52.4276h 1.44381l 0.206259, -nanl 0.206259, -nanh 1.65007l 0.206259, -nanl 0.206259, -nanl 0.206259, -nanh 27.4325l 0.206259, -nanl 0.206259, -nanl 0.206259, nanl 0.206259, nanl 0.206259, -nanl 0.206259, -nanl 0.206259, nanl
 0.206259, nanl 0.206259, -nanl 0.206259, -nanl 0.206259, nanl 0.206259, nanl 0.206259, -nanl 0.206259, -nanl 0.206259, nanl 0.206259, nanl 0.206259, -nanl 0.206259, -nanl 0.206259, nanl 0.206259, nanh 0.412518l 0.206259, -nanl 0.206259, -nanl
 0.206259, -nanl 0.206259, -nanh 0.206259l 0.206259, -nanl 0.206259, -nanh 0.825037l 0.206259, -nanl 0.206259, -nanh 1.0313l 0.206259, -nanl 0.206259, -nanh 0.825037l 0.206259, -nanl 0.206259, -nanh 1.23756l 0.206259, -nanl 0.206259, -nanh 1.0313l
 0.206259, nanl 0.206259, nanh 1.65007l 0.206259, nanl 0.206259, nanh 1.65007l 0.206259, nanl 0.206259, nanh 10.5192l 0.206259, -6.55232e-07l 0.206259, 6.55232e-07h 8.66289l 0.206259, -nanl 0.206259, -nanh 0.618778l 0.206259, -nanl 0.206259, -nanh
 0.618778l 0.206259, -nanl 0.206259, -nanh 0.618778l 0.206259, -nanl 0.206259, -nanh 0.618778l 0.206259, -nanl 0.206259, -nanh 26.4012l 0.206259, -nanl 0.206259, -nanl 0.206259, -nanl 0.206259, -nanl 0.206259, -nanl 0.206259, -nanl 0.206259, -nanl
 0.206259, -nanh 29.7013l 0.206259, -nanl 0.206259, -nanh 2.26885l 0.206259, -nanl 0.206259, -nanh 0.206259l 0.206259, -nanl 0.206259, -nanh 0.412518l 0.206259, -nanl 0.206259, -nanl 0.206259, -nanl 0.206259, -nanl 0.206259, -nanl 0.206259, -nanl
 0.206259, -nanl 0.206259, -nanl 0.206259, -nanl 0.206259, -nanl 0.206259, -nanh 0.618778l 0.206259, -nanl 0.206259, -nanh 0.412518l 0.206259, -nanl 0.206259, -nanh 1.23756l 0.206259, -nanl 0.206259, -nanh 0.412518l 0.206259, -nanl 0.206259, -nanl
 0.206259, -nanl 0.206259, -nanh 0.412518l 0.206259, -nanl 0.206259, -nanl 0.206259, -nanh 0.206259l 0.206259, -nanl 0.206259, -nanl 0.206259, -nanl 0.206259, -nanl 0.206259, -nanl 0.206259, -nanl 0.206259, -nanl 0.206259, -nanl 0.206259, -nanl
 0.206259, -nanl 0.206259, -nanl 0.206259, -nanl 0.206259, -nanl 0.206259, -nanh 0.412518l 0.206259, -nanl 0.206259, -nanl 0.206259, -nanl 0.206259, -nanl 0.206259, -nanl 0.206259, -nanh 0.412518l 0.206259, -nanl 0.206259, -nanl 0.206259, -nanl
 0.206259, -nanl 0.206259, -nanl 0.206259, -nanl 0.206259, -nanl 0.206259, -nanl 0.206259, -nanl 0.206259, -nanl 0.206259, -nanl 0.206259, -nanl 0.206259, -nanl 0.206259, -nanl 0.206259, -nanl 0.206259, -nanl 0.206259, -nanl 0.206259, -nanl 0.206259,
 -nanl 0.206259, -nanl 0.206259, -nanl 0.206259, -nanl 0.206259, -nanl 0.206259, -nanl 0.206259, -nanl 0.206259, -nanl 0.206259, -nanl 0.206259, -nanl 0.206259, -nanl 0.206259, -nanh 1.23756l 0.206259, -nanl 0.206259, -nanl 0.206259, -nanl 0.206259,
 -nanl 0.206259, -nanl 0.206259, -nanh 0.825037l 0.206259, -nanl 0.206259, -nanh 0.412518l 0.206259, -nanl 0.206259, -nanl 0.206259, -nanl 0.206259, -nanl 0.206259, -nanl 0.206259, -nanl 0.206259, -nanl 0.206259, -nanh 0.412518l 0.206259, -nanl
 0.206259, -nanl 0.206259, -nanl 0.206259, -nanl 0.206259, -nanl 0.206259, -nanl 0.206259, -nanl 0.206259, -nanl 0.206259, -nanl 0.206259, -nanl 0.206259, -nanh 0.206259l 0.206259, -nanl 0.206259, -nanl 0.206259, -nanl 0.206259, -nanl 0.206259, -nanh
 0.206259l 0.206259, -nanl 0.206259, -nanl 0.206259, -nanl 0.206259, -nanl 0.206259, -nanh 0.206259l 0.206259, -nanl 0.206259, -nanl 0.206259, -nanl 0.206259, -nanl 0.206259, -nanh 0.206259l 0.206259, -nanl 0.206259, -nanh 0.206259l 0.206259, -nanl
 0.206259, -nanl 0.206259, -nanl 0.206259, -nanl 0.206259, -nanh 4.12518l 0.206259, -nanl 0.206259, -nanh 0.412518l 0.206259, -nanl 0.206259, -nanh 4.33144l 0.206259, -nanl 0.206259, -nanh 0.825037l 0.206259, -nanl 0.206259, -nanh 3.30015l 0.206259,
 -nanl 0.206259, -nanh 7.01281l 0.206259, -nanl 0.206259, -nanh 0.206259l 0.206259, -nanl 0.206259, -nanh 1.44381l 0.206259, -nanl 0.206259, -nanl 0.206259, -nanh 9.28166l 0.206259, -nanl 0.206259, -nanl 0.206259, -nanl 0.206259, -nanl 0.206259,
 -nanl 0.206259, -nanh 7.21907l 0.206259, -nanl 0.206259, -nanl 0.206259, -nanl 0.206259, -nanl 0.206259, -nanl 0.206259, -nanl 0.206259, -nanl 0.206259, -nanl 0.206259, -nanl 0.206259, -nanh 29.4951l 0.206259, -nanl 0.206259, -nanh 0.618778l
 0.206259, -nanl 0.206259, -nanh 39.1892l 0.206259, -nanl 0.206259, -nanh 3.50641l 0.206259, -nanl 0.206259, -nanh 13.4068l 0.206259, -nanl 0.206259, -nanh 0.206259l 0.206259, -nanl 0.206259, -nanh 1.85633l 0.206259, -nanl 0.206259, -nanl 0.206259,
 -nanl 0.206259, -nanl 0.206259, -nanl 0.206259, -nanl 0.206259, -nanl 0.206259, -nanl 0.206259, -nanl 0.206259, -nanl 0.206259, -nanl 0.206259, -nanl 0.206259, -nanl 0.206259, -nanl 0.206259, -nanl 0.206259, -nanl 0.206259, -nanl 0.206259, -nanl
 0.206259, -nanl 0.206259, -nanh 3.71267l 0.206259, nanl 0.206259, nanl 0.206259, -nanl 0.206259, -nanh 2.88763l 0.206259, -nanl 0.206259, -nanl 0.206259, -nanl 0.206259, -nanl 0.206259, -nanl 0.206259, -nanl 0.206259, -nanl 0.206259, -nanl 0.206259,
 -nanl 0.206259, -nanh 0.412518l 0.206259, -nanl 0.206259, -nanh 0.825037l 0.206259, nanl 0.206259, nanl 0.206259, nanl 0.206259, nanh 57.7526l 0.206259, -nanl 0.206259, -nanl 0.206259, -nanl 0.206259, -nanl 0.206259, -nanl 0.206259, -nanl 0.206259,
 -nanl 0.206259, -nanl 0.206259, -nanl 0.206259, -nanh 20.2134l 0.206259, -nanl 0.206259, -nanh 0.825037l 0.206259, -nanl 0.206259, -nanh 1.65007l 0.206259, -nanl 0.206259, -nanl 0.206259, -nanl 0.206259, -nanh 8.25037" fill="none" stroke="#00ff00"
 fill-opacity="0.10" stroke-opacity="0.10"/>
<path d="M77.8085,52.4276h 1.44381l 0.206259, -nanl 0.206259, -nanh 1.65007l 0.206259, -nanl 0.206259, -nanl 0.206259, -nanh 27.4325l 0.206259, -nanl 0.206259, -nanl 0.206259, nanl 0.206259, nanl 0.206259, -nanl 0.206259, -nanl 0.206259, nanl
 0.206259, nanl 0.206259, -nanl 0.206259, -nanl 0.206259, nanl 0.206259, nanl 0.206259, -nanl 0.206259, -nanl 0.206259, nanl 0.206259, nanl 0.206259, -nanl 0.206259, -nanl 0.206259, nanl 0.206259, nanh 0.412518l 0.206259, -nanl 0.206259, -nanl
 0.206259, -nanl 0.206259, -nanh 0.206259l 0.206259, -nanl 0.206259, -nanh 0.825037l 0.206259, -nanl 0.206259, -nanh 1.0313l 0.206259, -nanl 0.206259, -nanh 0.825037l 0.206259, -nanl 0.206259, -nanh 1.23756l 0.206259, -nanl 0.206259, -nanh 1.0313l
 0.206259, nanl 0.206259, nanh 1.65007l 0.206259, nanl 0.206259, nanh 1.65007l 0.206259, nanl 0.206259, nanh 10.5192l 0.769444, -1.30427e-09l 0.645602, -3.22143e-09l 0.534479, -4.91571e-09l 0.434956, -6.40881e-09l 0.345989, -7.72093e-09l 0.266603,
 -8.87144e-09l 0.195878, -9.87967e-09l 0.132943, -1.07645e-08l 0.0769585, -1.15452e-08l 0.0270992, -1.22428e-08l -0.0281831, -1.6174e-08l -0.10373, -1.92112e-08l -0.19484, -2.27312e-08l -0.304345, -2.69463e-08l -0.492797, -3.59468e-08l -0.724406,
 -4.59588e-08l -1.18847, -6.88074e-08l -1.54988, -8.841e-08l -0.720967, -4.4228e-08l -0.501364, -3.41795e-08l -0.355425, -2.80226e-08l -0.24367, -2.35441e-08l -0.153113, -2.0037e-08l -0.0775524, -1.71935e-08l -0.0130437, -1.4852e-08l 0.0436122,
 -1.29114e-08l 0.0954023, -1.12922e-08l 0.145069, -9.91378e-09l 0.194699, -8.69198e-09l 0.263437, -8.00969e-09l 0.275007, -5.89677e-09l 0.375362, -5.6574e-09l 0.459754, -4.55827e-09l 0.552613, -3.24104e-09l 0.673881, -1.74163e-09l 0.349255,
 -2.00885e-10l 0.769532, 1.04791e-09l 0.645685, 2.9832e-09l 0.534573, 4.69504e-09l 0.435089, 6.2056e-09l 0.346254, 7.53835e-09l 0.267791, 8.74769e-09l 0.183325, 8.97802e-09l 0.137259, 1.05931e-08l 0.0803793, 1.1373e-08l 0.0300359, 1.20845e-08l
 -0.0247151, 1.58979e-08l -0.0997778, 1.89364e-08l -0.190639, 2.24663e-08l -0.300267, 2.6709e-08l -0.49389, 3.60693e-08l -0.741789, 4.69857e-08l -3.01557, 1.7379e-07l -0.631541, 4.01203e-08l -0.445492, 3.18739e-08l -0.314007, 2.6446e-08l -0.210843,
 2.23759e-08l -0.126168, 1.91404e-08l -0.0548329, 1.64965e-08l 0.00671727, 1.43104e-08l 0.0615302, 1.24922e-08l 0.11247, 1.09645e-08l 0.162027, 9.64639e-09l 0.211972, 8.45824e-09l 0.268605, 7.46024e-09l 0.33181, 6.45207e-09l 0.407834, 5.43247e-09l
 0.547963, 4.59971e-09l 0.589382, 2.69637e-09l 0.725556, 1.16546e-09h 8.66289l 0.206259, -nanl 0.206259, -nanh 0.618778l 0.206259, -nanl 0.206259, -nanh 0.618778l 0.206259, -nanl 0.206259, -nanh 0.618778l 0.206259, -nanl 0.206259, -nanh 0.618778l
 0.206259, -nanl 0.206259, -nanh 26.4012l 0.206259, -nanl 0.206259, -nanl 0.206259, -nanl 0.206259, -nanl 0.206259, -nanl 0.206259, -nanl 0.206259, -nanl 0.206259, -nanh 29.7013l 0.206259, -nanl 0.206259, -nanh 2.26885l 0.206259, -nanl 0.206259,
 -nanh 0.206259l 0.206259, -nanl 0.206259, -nanh 0.412518l 0.206259, -nanl 0.206259, -nanl 0.206259, -nanl 0.206259, -nanl 0.206259, -nanl 0.206259, -nanl 0.206259, -nanl 0.206259, -nanl 0.206259, -nanl 0.206259, -nanl 0.206259, -nanh 0.618778l
 0.206259, -nanl 0.206259, -nanh 0.412518l 0.206259, -nanl 0.206259, -nanh 1.23756l 0.206259, -nanl 0.206259, -nanh 0.412518l 0.206259, -nanl 0.206259, -nanl 0.206259, -nanl 0.206259, -nanh 0.412518l 0.206259, -nanl 0.206259, -nanl 0.206259, -nanh
 0.206259l 0.206259, -nanl 0.206259, -nanl 0.206259, -nanl 0.206259, -nanl 0.206259, -nanl 0.206259, -nanl 0.206259, -nanl 0.206259, -nanl 0.206259, -nanl 0.206259, -nanl 0.206259, -nanl 0.206259, -nanl 0.206259, -nanl 0.206259, -nanh 0.412518l
 0.206259, -nanl 0.206259, -nanl 0.206259, -nanl 0.206259, -nanl 0.206259, -nanl 0.206259, -nanh 0.412518l 0.206259, -nanl 0.206259, -nanl 0.206259, -nanl 0.206259, -nanl 0.206259, -nanl 0.206259, -nanl 0.206259, -nanl 0.206259, -nanl 0.206259, -nanl
 0.206259, -nanl 0.206259, -nanl 0.206259, -nanl 0.206259, -nanl 0.206259, -nanl 0.206259, -nanl 0.206259, -nanl 0.206259, -nanl 0.206259, -nanl 0.206259, -nanl 0.206259, -nanl 0.206259, -nanl 0.206259, -nanl 0.206259, -nanl 0.206259, -nanl 0.206259,
 -nanl 0.206259, -nanl 0.206259, -nanl 0.206259, -nanl 0.206259, -nanl 0.206259, -nanh 1.23756l 0.206259, -nanl 0.206259, -nanl 0.206259, -nanl 0.206259, -nanl 0.206259, -nanl 0.206259, -nanh 0.825037l 0.206259, -nanl 0.206259, -nanh 0.412518l
 0.206259, -nanl 0.206259, -nanl 0.206259, -nanl 0.206259, -nanl 0.206259, -nanl 0.206259, -nanl 0.206259, -nanl 0.206259, -nanh 0.412518l 0.206259, -nanl 0.206259, -nanl 0.206259, -nanl 0.206259, -nanl 0.206259, -nanl 0.206259, -nanl 0.206259, -nanl
 0.206259, -nanl 0.206259, -nanl 0.206259, -nanl 0.206259, -nanh 0.206259l 0.206259, -nanl 0.206259, -nanl 0.206259, -nanl 0.206259, -nanl 0.206259, -nanh 0.206259l 0.206259, -nanl 0.206259, -nanl 0.206259, -nanl 0.206259, -nanl 0.206259, -nanh
 0.206259l 0.206259, -nanl 0.206259, -nanl 0.206259, -nanl 0.206259, -nanl 0.206259, -nanh 0.206259l 0.206259, -nanl 0.206259, -nanh 0.206259l 0.206259, -nanl 0.206259, -nanl 0.206259, -nanl 0.206259, -nanl 0.206259, -nanh 4.12518l 0.206259, -nanl
 0.206259, -nanh 0.412518l 0.206259, -nanl 0.206259, -nanh 4.33144l 0.206259, -nanl 0.206259, -nanh 0.825037l 0.206259, -nanl 0.206259, -nanh 3.30015l 0.206259, -nanl 0.206259, -nanh 7.01281l 0.206259, -nanl 0.206259, -nanh 0.206259l 0.206259, -nanl
 0.206259, -nanh 1.44381l 0.206259, -nanl 0.206259, -nanl 0.206259, -nanh 9.28166l 0.206259, -nanl 0.206259, -nanl 0.206259, -nanl 0.206259, -nanl 0.206259, -nanl 0.206259, -nanh 7.21907l 0.206259, -nanl 0.206259, -nanl 0.206259, -nanl 0.206259,
 -nanl 0.206259, -nanl 0.206259, -nanl 0.206259, -nanl 0.206259, -nanl 0.206259, -nanl 0.206259, -nanh 29.4951l 0.206259, -nanl 0.206259, -nanh 0.618778l 0.206259, -nanl 0.206259, -nanh 39.1892l 0.206259, -nanl 0.206259, -nanh 3.50641l 0.206259,
 -nanl 0.206259, -nanh 13.4068l 0.206259, -nanl 0.206259, -nanh 0.206259l 0.206259, -nanl 0.206259, -nanh 1.85633l 0.206259, -nanl 0.206259, -nanl 0.206259, -nanl 0.206259, -nanl 0.206259, -nanl 0.206259, -nanl 0.206259, -nanl 0.206259, -nanl
 0.206259, -nanl 0.206259, -nanl 0.206259, -nanl 0.206259, -nanl 0.206259, -nanl 0.206259, -nanl 0.206259, -nanl 0.206259, -nanl 0.206259, -nanl 0.206259, -nanl 0.206259, -nanl 0.206259, -nanh 3.71267l 0.206259, nanl 0.206259, nanl 0.206259, -nanl
 0.206259, -nanh 2.88763l 0.206259, -nanl 0.206259, -nanl 0.206259, -nanl 0.206259, -nanl 0.206259, -nanl 0.206259, -nanl 0.206259, -nanl 0.206259, -nanl 0.206259, -nanl 0.206259, -nanh 0.412518l 0.206259, -nanl 0.206259, -nanh 0.825037l 0.206259,
 nanl 0.206259, nanl 0.206259, nanl 0.206259, nanh 57.7526l 0.206259, -nanl 0.206259, -nanl 0.206259, -nanl 0.206259, -nanl 0.206259, -nanl 0.206259, -nanl 0.206259, -nanl 0.206259, -nanl 0.206259, -nanl 0.206259, -nanh 20.2134l 0.206259, -nanl
 0.206259, -nanh 0.825037l 0.206259, -nanl 0.206259, -nanh 1.65007l 0.206259, -nanl 0.206259, -nanl 0.206259, -nanl 0.206259, -nanh 8.25037" fill="none" stroke="#00ff00" fill-opacity="0.10" stroke-opacity="0.10"/>
<path d="M77.8085,52.4276h 412.312" fill="none" stroke="#ff0000" fill-opacity="0.10" stroke-opacity="0.10"/>
<path d="M77.8085,52.4276h 412.312" fill="none" stroke="#ff0000" fill-opacity="0.10" stroke-opacity="0.10"/>
<path d="M77.8085,52.4276h 412.312" fill="none" stroke="#00ff00" fill-opacity="0.10" stroke-opacity="0.10"/>
<path d="M77.8085,52.4276h 412.312" fill="none" stroke="#00ff00" fill-opacity="0.10" stroke-opacity="0.10"/>
<path d="M77.8085,52.4276h 412.312" fill="none" stroke="#ff0000" fill-opacity="0.10" stroke-opacity="0.10"/>
<path d="M77.8085,52.4276h 412.312" fill="none" stroke="#ff0000" fill-opacity="0.10" stroke-opacity="0.10"/>
<path d="M77.8085,52.4276h 412.312" fill="none" stroke="#00ff00" fill-opacity="0.10" stroke-opacity="0.10"/>
<path d="M77.8085,52.4276h 412.312" fill="none" stroke="#00ff00" fill-opacity="0.10" stroke-opacity="0.10"/>
<path d="M77.8085,52.4276h 412.312" fill="none" stroke="#ff0000" fill-opacity="0.10" stroke-opacity="0.10"/>
<path d="M77.8085,52.4276h 412.312" fill="none" stroke="#ff0000" fill-opacity="0.10" stroke-opacity="0.10"/>
<path d="M77.8085,52.4276h 412.312" fill="none" stroke="#00ff00" fill-opacity="0.10" stroke-opacity="0.10"/>
<path d="M77.8085,52.4276h 412.312" fill="none" stroke="#00ff00" fill-opacity="0.10" stroke-opacity="0.10"/>
<path d="M77.8085,52.4276h 412.312" fill="none" stroke="#ff0000" fill-opacity="0.10" stroke-opacity="0.10"/>
<path d="M77.8085,52.4276h 412.312" fill="none" stroke="#ff0000" fill-opacity="0.10" stroke-opacity="0.10"/>
<path d="M77.8085,52.4276h 412.312" fill="none" stroke="#00ff00" fill-opacity="0.10" stroke-opacity="0.10"/>
<path d="M77.8085,52.4276h 412.312" fill="none" stroke="#00ff00" fill-opacity="0.10" stroke-opacity="0.10"/>
<path d="M77.8085,52.4276h 412.312" fill="none" stroke="#ff0000" fill-opacity="0.10" stroke-opacity="0.10"/>
<path d="M77.8085,52.4276h 412.312" fill="none" stroke="#ff0000" fill-opacity="0.10" stroke-opacity="0.10"/>
<path d="M77.8085,52.4276h 412.312" fill="none" stroke="#00ff00" fill-opacity="0.10" stroke-opacity="0.10"/>
<path d="M77.8085,52.4276h 412.312" fill="none" stroke="#00ff00" fill-opacity="0.10" stroke-opacity="0.10"/>
<path d="M77.8085,52.4276h 412.312" fill="none" stroke="#ff0000" fill-opacity="0.10" stroke-opacity="0.10"/>
<path d="M77.8085,52.4276h 412.312" fill="none" stroke="#ff0000" fill-opacity="0.10" stroke-opacity="0.10"/>
<path d="M77.8085,52.4276h 412.312" fill="none" stroke="#00ff00" fill-opacity="0.10" stroke-opacity="0.10"/>
<path d="M77.8085,52.4276h 412.312" fill="none" stroke="#00ff00" fill-opacity="0.10" stroke-opacity="0.10"/>
<path d="M77.8085,52.4276h 412.312" fill="none" stroke="#ff0000" fill-opacity="0.10" stroke-opacity="0.10"/>
<path d="M77.8085,52.4276h 412.312" fill="none" stroke="#ff0000" fill-opacity="0.10" stroke-opacity="0.10"/>
<path d="M77.8085,52.4276h 412.312" fill="none" stroke="#00ff00" fill-opacity="0.10" stroke-opacity="0.10"/>
<path d="M77.8085,52.4276h 412.312" fill="none" stroke="#00ff00" fill-opacity="0.10" stroke-opacity="0.10"/>
<path d="M77.8085,52.4276h 412.312" fill="none" stroke="#ff0000" fill-opacity="0.10" stroke-opacity="0.10"/>
<path d="M77.8085,52.4276h 412.312" fill="none" stroke="#ff0000" fill-opacity="0.10" stroke-opacity="0.10"/>
<path d="M77.8085,52.4276h 412.312" fill="none" stroke="#00ff00" fill-opacity="0.10" stroke-opacity="0.10"/>
<path d="M77.8085,52.4276h 412.312" fill="none" stroke="#00ff00" fill-opacity="0.10" stroke-opacity="0.10"/>
<rect x="454.043" y="38.4469" width="56.6929" height="76.8938" fill="white"/>
<path d="M454.043,115.341h 56.6929" fill="none" stroke="black"/>
<path d="M510.736,115.341v -76.8938" fill="none" stroke="black"/>
<path d="M510.736,38.4469h -56.6929" fill="none" stroke="black"/>
<path d="M454.043,38.4469v 76.8938" fill="none" stroke="black"/>
<text xml:space="preserve" x="468.054" y="62.7206" fill="#ff0000" font-size="15.2473" font-family="Helvetica">Aout</text>
<path d="M456.169,57.6704h 9.92126" fill="none" stroke="#ff0000" fill-opacity="0.10" stroke-opacity="0.10"/>
<text xml:space="preserve" x="468.054" y="102.634" fill="#00ff00" font-size="15.2473" font-family="Helvetica">Ain</text>
<path d="M456.169,96.1173h 9.92126" fill="none" stroke="#00ff00" fill-opacity="0.10" stroke-opacity="0.10"/>
<text xml:space="preserve" x="232.648" y="18.7347" fill="black" font-size="16.9898" font-family="Helvetica">Elementare 7</text></svg>
