<?xml version="1.0" standalone="no"?>
<svg width="567.429" height="384.969" viewBox="0 0 567.429 384.969" xmlns="http://www.w3.org/2000/svg" shape-rendering="crispEdges">
<title>
sbml-modules.svg
</title>
<desc>
Creator: ROOT Version 6.18/04
CreationDate: Fri May  1 17:19:01 2020</desc>
<defs>
</defs>
<rect x="0.5" y="0" width="566.929" height="384.469" fill="white"/>
<rect x="57.1929" y="38.4469" width="453.543" height="307.575" fill="white"/>
<rect x="57.1929" y="38.4469" width="453.543" height="307.575" fill="none" stroke="black"/>
<rect x="57.1929" y="38.4469" width="453.543" height="307.575" fill="white"/>
<rect x="57.1929" y="38.4469" width="453.543" height="307.575" fill="none" stroke="black"/>
<path d="M57.1929,346.022h 453.543" fill="none" stroke="black"/>
<path d="M77.8085,38.4469v 307.575" fill="none" stroke="black" stroke-dasharray=" 1, 2"/>
<path d="M180.938,38.4469v 307.575" fill="none" stroke="black" stroke-dasharray=" 1, 2"/>
<path d="M284.068,38.4469v 307.575" fill="none" stroke="black" stroke-dasharray=" 1, 2"/>
<path d="M387.197,38.4469v 307.575" fill="none" stroke="black" stroke-dasharray=" 1, 2"/>
<path d="M490.327,38.4469v 307.575" fill="none" stroke="black" stroke-dasharray=" 1, 2"/>
<path d="M77.8085,38.4469v 307.575" fill="none" stroke="black" stroke-dasharray=" 1, 2"/>
<path d="M490.327,38.4469v 307.575" fill="none" stroke="black" stroke-dasharray=" 1, 2"/>
<path d="M57.1929,346.022v -307.575" fill="none" stroke="black"/>
<path d="M510.736,346.022h -453.543" fill="none" stroke="black" stroke-dasharray=" 1, 2"/>
<path d="M510.736,315.265h -453.543" fill="none" stroke="black" stroke-dasharray=" 1, 2"/>
<path d="M510.736,284.507h -453.543" fill="none" stroke="black" stroke-dasharray=" 1, 2"/>
<path d="M510.736,253.75h -453.543" fill="none" stroke="black" stroke-dasharray=" 1, 2"/>
<path d="M510.736,222.992h -453.543" fill="none" stroke="black" stroke-dasharray=" 1, 2"/>
<path d="M510.736,192.235h -453.543" fill="none" stroke="black" stroke-dasharray=" 1, 2"/>
<path d="M510.736,161.477h -453.543" fill="none" stroke="black" stroke-dasharray=" 1, 2"/>
<path d="M510.736,130.72h -453.543" fill="none" stroke="black" stroke-dasharray=" 1, 2"/>
<path d="M510.736,99.962h -453.543" fill="none" stroke="black" stroke-dasharray=" 1, 2"/>
<path d="M510.736,69.2045h -453.543" fill="none" stroke="black" stroke-dasharray=" 1, 2"/>
<path d="M510.736,38.4469h -453.543" fill="none" stroke="black" stroke-dasharray=" 1, 2"/>
<path d="M57.1929,346.022h 453.543" fill="none" stroke="black"/>
<path d="M77.8085,336.795v 9.22726" fill="none" stroke="black"/>
<path d="M98.4344,341.409v 4.61363" fill="none" stroke="black"/>
<path d="M119.06,341.409v 4.61363" fill="none" stroke="black"/>
<path d="M139.686,341.409v 4.61363" fill="none" stroke="black"/>
<path d="M160.312,341.409v 4.61363" fill="none" stroke="black"/>
<path d="M180.938,336.795v 9.22726" fill="none" stroke="black"/>
<path d="M201.564,341.409v 4.61363" fill="none" stroke="black"/>
<path d="M222.19,341.409v 4.61363" fill="none" stroke="black"/>
<path d="M242.816,341.409v 4.61363" fill="none" stroke="black"/>
<path d="M263.442,341.409v 4.61363" fill="none" stroke="black"/>
<path d="M284.068,336.795v 9.22726" fill="none" stroke="black"/>
<path d="M304.694,341.409v 4.61363" fill="none" stroke="black"/>
<path d="M325.32,341.409v 4.61363" fill="none" stroke="black"/>
<path d="M345.945,341.409v 4.61363" fill="none" stroke="black"/>
<path d="M366.571,341.409v 4.61363" fill="none" stroke="black"/>
<path d="M387.197,336.795v 9.22726" fill="none" stroke="black"/>
<path d="M407.823,341.409v 4.61363" fill="none" stroke="black"/>
<path d="M428.449,341.409v 4.61363" fill="none" stroke="black"/>
<path d="M449.075,341.409v 4.61363" fill="none" stroke="black"/>
<path d="M469.701,341.409v 4.61363" fill="none" stroke="black"/>
<path d="M490.327,336.795v 9.22726" fill="none" stroke="black"/>
<path d="M77.8085,336.795v 9.22726" fill="none" stroke="black"/>
<path d="M490.327,336.795v 9.22726" fill="none" stroke="black"/>
<text xml:space="preserve" x="73.8098" y="358.403" fill="black" font-size="12.8453" font-family="Helvetica">0</text>
<text xml:space="preserve" x="173.185" y="358.403" fill="black" font-size="12.8453" font-family="Helvetica">50</text>
<text xml:space="preserve" x="273.375" y="358.403" fill="black" font-size="12.8453" font-family="Helvetica">100</text>
<text xml:space="preserve" x="376.009" y="358.403" fill="black" font-size="12.8453" font-family="Helvetica">150</text>
<text xml:space="preserve" x="479.457" y="358.403" fill="black" font-size="12.8453" font-family="Helvetica">200</text>
<text xml:space="preserve" x="459.908" y="371.436" fill="black" font-size="12.8453" font-family="Helvetica">Timestep</text>
<path d="M57.1929,346.022v -307.575" fill="none" stroke="black"/>
<path d="M70.7992,346.022h -13.6063" fill="none" stroke="black"/>
<path d="M63.9961,339.871h -6.80315" fill="none" stroke="black"/>
<path d="M63.9961,333.719h -6.80315" fill="none" stroke="black"/>
<path d="M63.9961,327.568h -6.80315" fill="none" stroke="black"/>
<path d="M63.9961,321.416h -6.80315" fill="none" stroke="black"/>
<path d="M70.7992,315.265h -13.6063" fill="none" stroke="black"/>
<path d="M63.9961,309.113h -6.80315" fill="none" stroke="black"/>
<path d="M63.9961,302.962h -6.80315" fill="none" stroke="black"/>
<path d="M63.9961,296.81h -6.80315" fill="none" stroke="black"/>
<path d="M63.9961,290.659h -6.80315" fill="none" stroke="black"/>
<path d="M70.7992,284.507h -13.6063" fill="none" stroke="black"/>
<path d="M63.9961,278.356h -6.80315" fill="none" stroke="black"/>
<path d="M63.9961,272.204h -6.80315" fill="none" stroke="black"/>
<path d="M63.9961,266.053h -6.80315" fill="none" stroke="black"/>
<path d="M63.9961,259.901h -6.80315" fill="none" stroke="black"/>
<path d="M70.7992,253.75h -13.6063" fill="none" stroke="black"/>
<path d="M63.9961,247.598h -6.80315" fill="none" stroke="black"/>
<path d="M63.9961,241.447h -6.80315" fill="none" stroke="black"/>
<path d="M63.9961,235.295h -6.80315" fill="none" stroke="black"/>
<path d="M63.9961,229.144h -6.80315" fill="none" stroke="black"/>
<path d="M70.7992,222.992h -13.6063" fill="none" stroke="black"/>
<path d="M63.9961,216.841h -6.80315" fill="none" stroke="black"/>
<path d="M63.9961,210.689h -6.80315" fill="none" stroke="black"/>
<path d="M63.9961,204.538h -6.80315" fill="none" stroke="black"/>
<path d="M63.9961,198.386h -6.80315" fill="none" stroke="black"/>
<path d="M70.7992,192.235h -13.6063" fill="none" stroke="black"/>
<path d="M63.9961,186.083h -6.80315" fill="none" stroke="black"/>
<path d="M63.9961,179.932h -6.80315" fill="none" stroke="black"/>
<path d="M63.9961,173.78h -6.80315" fill="none" stroke="black"/>
<path d="M63.9961,167.629h -6.80315" fill="none" stroke="black"/>
<path d="M70.7992,161.477h -13.6063" fill="none" stroke="black"/>
<path d="M63.9961,155.326h -6.80315" fill="none" stroke="black"/>
<path d="M63.9961,149.174h -6.80315" fill="none" stroke="black"/>
<path d="M63.9961,143.023h -6.80315" fill="none" stroke="black"/>
<path d="M63.9961,136.871h -6.80315" fill="none" stroke="black"/>
<path d="M70.7992,130.72h -13.6063" fill="none" stroke="black"/>
<path d="M63.9961,124.568h -6.80315" fill="none" stroke="black"/>
<path d="M63.9961,118.417h -6.80315" fill="none" stroke="black"/>
<path d="M63.9961,112.265h -6.80315" fill="none" stroke="black"/>
<path d="M63.9961,106.113h -6.80315" fill="none" stroke="black"/>
<path d="M70.7992,99.962h -13.6063" fill="none" stroke="black"/>
<path d="M63.9961,93.8105h -6.80315" fill="none" stroke="black"/>
<path d="M63.9961,87.659h -6.80315" fill="none" stroke="black"/>
<path d="M63.9961,81.5075h -6.80315" fill="none" stroke="black"/>
<path d="M63.9961,75.356h -6.80315" fill="none" stroke="black"/>
<path d="M70.7992,69.2045h -13.6063" fill="none" stroke="black"/>
<path d="M63.9961,63.0529h -6.80315" fill="none" stroke="black"/>
<path d="M63.9961,56.9014h -6.80315" fill="none" stroke="black"/>
<path d="M63.9961,50.7499h -6.80315" fill="none" stroke="black"/>
<path d="M63.9961,44.5984h -6.80315" fill="none" stroke="black"/>
<path d="M70.7992,38.4469h -13.6063" fill="none" stroke="black"/>
<text xml:space="preserve" x="23.3075" y="350.258" fill="black" font-size="12.8453" font-family="Helvetica">0.565</text>
<text xml:space="preserve" x="15.9765" y="350.258" fill="black" font-size="12.8453" font-family="Times">&#8722;</text>
<text xml:space="preserve" x="23.3075" y="320.119" fill="black" font-size="12.8453" font-family="Helvetica">0.678</text>
<text xml:space="preserve" x="30.6385" y="289.166" fill="black" font-size="12.8453" font-family="Helvetica">1.92</text>
<text xml:space="preserve" x="23.3075" y="258.213" fill="black" font-size="12.8453" font-family="Helvetica">3.162</text>
<text xml:space="preserve" x="23.3075" y="227.26" fill="black" font-size="12.8453" font-family="Helvetica">4.404</text>
<text xml:space="preserve" x="23.3075" y="197.122" fill="black" font-size="12.8453" font-family="Helvetica">5.646</text>
<text xml:space="preserve" x="23.3075" y="166.169" fill="black" font-size="12.8453" font-family="Helvetica">6.888</text>
<text xml:space="preserve" x="30.6385" y="135.216" fill="black" font-size="12.8453" font-family="Helvetica">8.13</text>
<text xml:space="preserve" x="24.122" y="104.263" fill="black" font-size="12.8453" font-family="Helvetica">9.373</text>
<text xml:space="preserve" x="16.7911" y="73.3098" fill="black" font-size="12.8453" font-family="Helvetica">10.615</text>
<text xml:space="preserve" x="16.7911" y="43.1713" fill="black" font-size="12.8453" font-family="Helvetica">11.857</text>
<text xml:space="preserve" x="77.068" y="30.1385" fill="black" font-size="8.73023" font-family="Helvetica">276</text>
<text xml:space="preserve" x="63.2206" y="36.6549" fill="black" font-size="12.8453" font-family="Helvetica">10</text>
<text xml:space="preserve" x="56.7042" y="36.6549" fill="black" font-size="12.8453" font-family="Times">&#0215;</text>
<g transform="rotate(-90,5.38732,82.2699)">
<text xml:space="preserve" x="5.38732" y="82.2699" fill="black" font-size="12.8453" font-family="Helvetica">Number</text>
</g>
<path d="M77.8085,332.042h 412.312" fill="none" stroke="#ff0000" fill-opacity="0.10" stroke-opacity="0.10"/>
<path d="M77.8085,332.042h 412.312" fill="none" stroke="#ff0000" fill-opacity="0.10" stroke-opacity="0.10"/>
<path d="M77.8085,332.042h 123.549l 0.206259, -nanl 0.206259, -nanh 0.412518l 0.206259, -nanl 0.206259, -nanh 0.412518l 0.206259, -nanl 0.206259, -nanh 0.412518l 0.206259, -nanl 0.206259, -nanh 0.412518l 0.206259, -nanl 0.206259, -nanh 4.12518l
 0.206259, -nanl 0.206259, -nanl 0.206259, -nanl 0.206259, -nanl 0.206259, -nanl 0.206259, -nanl 0.206259, -nanl 0.206259, -nanh 2.47511l 0.206259, -nanl 0.206259, -nanh 11.3443l 0.206259, -nanl 0.206259, -nanh 1.23756l 0.206259, -nanl 0.206259,
 -nanh 1.23756l 0.206259, -nanl 0.206259, -nanh 4.74396l 0.206259, -nanl 0.206259, -nanl 0.206259, -nanl 0.206259, -nanl 0.206259, -nanl 0.206259, -nanl 0.206259, -nanl 0.206259, -nanl 0.206259, -nanl 0.206259, -nanl 0.206259, -nanl 0.206259, -nanl
 0.206259, -nanl 0.206259, -nanl 0.206259, -nanl 0.206259, -nanl 0.206259, -nanl 0.206259, -nanl 0.206259, -nanl 0.206259, -nanh 7.83785l 0.206259, -nanl 0.206259, -nanh 13.4068l 0.206259, nanl 0.206259, nanh 14.2319l 0.206259, -nanl 0.206259, -nanl
 0.206259, -nanl 0.206259, -nanl 0.206259, -nanl 0.206259, -nanl 0.206259, -nanl 0.206259, -nanh 0.618778l 0.206259, -nanl 0.206259, -nanh 0.206259l 0.206259, -nanl 0.206259, -nanh 0.206259l 0.206259, -nanl 0.206259, -nanh 0.206259l 0.206259, -nanl
 0.206259, -nanh 0.206259l 0.206259, -nanl 0.206259, -nanh 0.618778l 0.206259, -nanl 0.206259, -nanl 0.206259, -nanl 0.206259, -nanl 0.206259, -nanl 0.206259, -nanh 116.743l 0.206259, -nanl 0.206259, -nanh 57.1338l 0.206259, -nanl 0.206259, -nanl
 0.206259, -nanl 0.206259, -nanl 0.206259, -nanl 0.206259, -nanl 0.206259, -nanl 0.206259, -nanl 0.206259, -nanl 0.206259, -nanl 0.206259, -nanh 4.12518l 0.206259, -279.614l 0.206259, 279.614h 2.47511l 0.206259, -3.2227e-08l 0.206259, 3.2227e-08h
 25.1636" fill="none" stroke="#00ff00" fill-opacity="0.10" stroke-opacity="0.10"/>
<path d="M77.8085,332.042h 123.549l 0.206259, -nanl 0.206259, -nanh 0.412518l 0.206259, -nanl 0.206259, -nanh 0.412518l 0.206259, -nanl 0.206259, -nanh 0.412518l 0.206259, -nanl 0.206259, -nanh 0.412518l 0.206259, -nanl 0.206259, -nanh 4.12518l
 0.206259, -nanl 0.206259, -nanl 0.206259, -nanl 0.206259, -nanl 0.206259, -nanl 0.206259, -nanl 0.206259, -nanl 0.206259, -nanh 2.47511l 0.206259, -nanl 0.206259, -nanh 11.3443l 0.206259, -nanl 0.206259, -nanh 1.23756l 0.206259, -nanl 0.206259,
 -nanh 1.23756l 0.206259, -nanl 0.206259, -nanh 4.74396l 0.206259, -nanl 0.206259, -nanl 0.206259, -nanl 0.206259, -nanl 0.206259, -nanl 0.206259, -nanl 0.206259, -nanl 0.206259, -nanl 0.206259, -nanl 0.206259, -nanl 0.206259, -nanl 0.206259, -nanl
 0.206259, -nanl 0.206259, -nanl 0.206259, -nanl 0.206259, -nanl 0.206259, -nanl 0.206259, -nanl 0.206259, -nanl 0.206259, -nanh 7.83785l 0.206259, -nanl 0.206259, -nanh 13.4068l 0.206259, nanl 0.206259, nanh 14.2319l 0.206259, -nanl 0.206259, -nanl
 0.206259, -nanl 0.206259, -nanl 0.206259, -nanl 0.206259, -nanl 0.206259, -nanl 0.206259, -nanh 0.618778l 0.206259, -nanl 0.206259, -nanh 0.206259l 0.206259, -nanl 0.206259, -nanh 0.206259l 0.206259, -nanl 0.206259, -nanh 0.206259l 0.206259, -nanl
 0.206259, -nanh 0.206259l 0.206259, -nanl 0.206259, -nanh 0.618778l 0.206259, -nanl 0.206259, -nanl 0.206259, -nanl 0.206259, -nanl 0.206259, -nanl 0.206259, -nanh 116.743l 0.206259, -nanl 0.206259, -nanh 57.1338l 0.206259, -nanl 0.206259, -nanl
 0.206259, -nanl 0.206259, -nanl 0.206259, -nanl 0.206259, -nanl 0.206259, -nanl 0.206259, -nanl 0.206259, -nanl 0.206259, -nanl 0.206259, -nanh 4.12518l 0.769444, -0.556567l 0.645602, -1.3747l 0.534479, -2.09776l 0.434956, -2.7349l 0.345989,
 -3.29481l 0.266603, -3.78582l 0.195878, -4.21606l 0.132943, -4.59363l 0.0769585, -4.92682l 0.0270992, -5.22449l -0.0281831, -6.90209l -0.10373, -8.19819l -0.19484, -9.70031l -0.304345, -11.4991l -0.492797, -15.3399l -0.724406, -19.6125l -1.18847,
 -29.3629l -1.54988, -37.7281l -0.720967, -18.8739l -0.501364, -14.5858l -0.355425, -11.9584l -0.24367, -10.0472l -0.153113, -8.55061l -0.0775524, -7.33717l -0.0130437, -6.33793l 0.0436122, -5.5098l 0.0954023, -4.81879l 0.145069, -4.23065l 0.194699,
 -3.70918l 0.263437, -3.41808l 0.275007, -2.51638l 0.375362, -2.41424l 0.459754, -1.94519l 0.552613, -1.38307l 0.673881, -0.743235l 0.349255, -0.0857178l 0.769532, 0.44717l 0.645685, 1.27306l 0.534573, 2.00356l 0.435089, 2.64817l 0.346254, 3.21692l
 0.267791, 3.73299l 0.183325, 3.8313l 0.137259, 4.52049l 0.0803793, 4.85332l 0.0300359, 5.15693l -0.0247151, 6.78428l -0.0997778, 8.08086l -0.190639, 9.58733l -0.300267, 11.3978l -0.49389, 15.3922l -0.741789, 20.0507l -3.01557, 74.1632l -0.631541,
 17.121l -0.445492, 13.6019l -0.314007, 11.2856l -0.210843, 9.54871l -0.126168, 8.16796l -0.0548329, 7.03975l 0.00671727, 6.10684l 0.0615302, 5.33091l 0.11247, 4.67902l 0.162027, 4.11648l 0.211972, 3.60949l 0.268605, 3.1836l 0.33181, 2.75334l
 0.407834, 2.31824l 0.547963, 1.96288l 0.589382, 1.15066l 0.725556, 0.497345h 2.47511l 0.206259, -3.2227e-08l 0.206259, 3.2227e-08h 25.1636" fill="none" stroke="#00ff00" fill-opacity="0.10" stroke-opacity="0.10"/>
<path d="M77.8085,332.042h 412.312" fill="none" stroke="#ff0000" fill-opacity="0.10" stroke-opacity="0.10"/>
<path d="M77.8085,332.042h 412.312" fill="none" stroke="#ff0000" fill-opacity="0.10" stroke-opacity="0.10"/>
<path d="M77.8085,332.042h 0.206259l 0.206259, -nanl 0.206259, -nanl 0.206259, -nanl 0.206259, -nanl 0.206259, -nanl 0.206259, -nanl 0.206259, -nanl 0.206259, -nanl 0.206259, -nanl 0.206259, -nanh 0.206259l 0.206259, -nanl 0.206259, -nanh 0.206259l
 0.206259, -nanl 0.206259, -nanh 0.206259l 0.206259, -nanl 0.206259, -nanh 0.206259l 0.206259, -nanl 0.206259, -nanh 0.206259l 0.206259, -nanl 0.206259, -nanl 0.206259, nanl 0.206259, nanh 2.68137l 0.206259, -nanl 0.206259, -nanl 0.206259, -nanl
 0.206259, -nanl 0.206259, -nanl 0.206259, -nanl 0.206259, -nanl 0.206259, -nanl 0.206259, -nanl 0.206259, -nanh 2.47511l 0.206259, -nanl 0.206259, -nanh 2.26885l 0.206259, -nanl 0.206259, -nanh 5.569l 0.206259, -nanl 0.206259, -nanh 0.412518l
 0.206259, -nanl 0.206259, -nanl 0.206259, -nanl 0.206259, -nanh 16.707l 0.206259, -nanl 0.206259, -nanh 0.825037l 0.206259, -nanl 0.206259, -nanh 4.5377l 0.206259, -nanl 0.206259, -nanh 0.825037l 0.206259, -nanl 0.206259, -nanl 0.206259, -nanh
 0.206259l 0.206259, -nanl 0.206259, -nanh 0.206259l 0.206259, -nanl 0.206259, -nanh 0.206259l 0.206259, -nanl 0.206259, -nanh 0.206259l 0.206259, -nanl 0.206259, -nanh 3.09389l 0.206259, nanl 0.206259, nanh 1.65007l 0.206259, nanl 0.206259, nanh
 0.618778l 0.206259, -nanl 0.206259, -nanh 4.12518l 0.206259, -nanl 0.206259, -nanh 0.825037l 0.206259, -nanl 0.206259, -nanh 0.412518l 0.206259, -nanl 0.206259, -nanl 0.206259, -nanl 0.206259, -nanl 0.206259, -nanl 0.206259, -nanl 0.206259, -nanl
 0.206259, -nanl 0.206259, -nanl 0.206259, -nanh 4.5377l 0.206259, -nanl 0.206259, -nanl 0.206259, -nanl 0.206259, -nanl 0.206259, -nanl 0.206259, -nanl 0.206259, -nanl 0.206259, -nanl 0.206259, -nanl 0.206259, -nanl 0.206259, -nanl 0.206259, -nanl
 0.206259, -nanl 0.206259, -nanl 0.206259, -nanl 0.206259, -nanl 0.206259, -nanl 0.206259, -nanh 28.4638l 0.206259, -nanl 0.206259, -nanl 0.206259, -nanl 0.206259, -nanl 0.206259, -nanl 0.206259, -nanl 0.206259, -nanl 0.206259, -nanl 0.206259, -nanl
 0.206259, -nanl 0.206259, -nanl 0.206259, -nanh 0.206259l 0.206259, -nanl 0.206259, -nanh 0.206259l 0.206259, -nanl 0.206259, -nanh 0.206259l 0.206259, -nanl 0.206259, -nanh 0.206259l 0.206259, -nanl 0.206259, -nanh 0.412518l 0.206259, -nanl
 0.206259, -nanh 0.412518l 0.206259, -nanl 0.206259, -nanh 0.412518l 0.206259, -nanl 0.206259, -nanh 0.412518l 0.206259, -nanl 0.206259, -nanh 0.412518l 0.206259, -nanl 0.206259, -nanh 31.3514l 0.206259, -nanl 0.206259, -nanh 15.2632l 0.206259, -nanl
 0.206259, -nanl 0.206259, -nanl 0.206259, -nanl 0.206259, -nanl 0.206259, -nanl 0.206259, -nanl 0.206259, -nanl 0.206259, -nanl 0.206259, -nanl 0.206259, -nanl 0.206259, -nanl 0.206259, -nanl 0.206259, -nanl 0.206259, -nanl 0.206259, -nanl 0.206259,
 -nanl 0.206259, -nanl 0.206259, -nanl 0.206259, -nanh 0.206259l 0.206259, -nanl 0.206259, -nanh 0.412518l 0.206259, -nanl 0.206259, -nanh 3.91892l 0.206259, -nanl 0.206259, -nanh 0.206259l 0.206259, -nanl 0.206259, -nanh 0.825037l 0.206259, -nanl
 0.206259, -nanh 11.963l 0.206259, -nanl 0.206259, -nanh 0.618778l 0.206259, -nanl 0.206259, -nanl 0.206259, -nanl 0.206259, -nanl 0.206259, -nanl 0.206259, -nanh 0.412518l 0.206259, -nanl 0.206259, -nanh 0.412518l 0.206259, -nanl 0.206259, -nanl
 0.206259, -nanl 0.206259, -nanl 0.206259, -nanl 0.206259, -nanh 0.412518l 0.206259, -nanl 0.206259, -nanh 0.206259l 0.206259, -nanl 0.206259, -nanh 0.206259l 0.206259, -nanl 0.206259, -nanh 0.206259l 0.206259, -nanl 0.206259, -nanh 0.206259l
 0.206259, -nanl 0.206259, -nanh 0.206259l 0.206259, -nanl 0.206259, -nanh 0.206259l 0.206259, -nanl 0.206259, -nanh 0.206259l 0.206259, -nanl 0.206259, -nanh 0.206259l 0.206259, -nanl 0.206259, -nanh 0.206259l 0.206259, -nanl 0.206259, -nanh
 14.6444l 0.206259, -nanl 0.206259, -nanh 16.5007l 0.206259, -nanl 0.206259, -nanl 0.206259, -nanh 1.65007l 0.206259, -nanl 0.206259, -nanl 0.206259, -nanl 0.206259, -nanh 0.206259l 0.206259, -nanl 0.206259, -nanl 0.206259, -nanl 0.206259, -nanl
 0.206259, -nanh 0.618778l 0.206259, -nanl 0.206259, -nanl 0.206259, -nanl 0.206259, -nanh 4.12518l 0.206259, -nanl 0.206259, -nanl 0.206259, -nanl 0.206259, -nanh 1.0313l 0.206259, -nanl 0.206259, -nanh 1.0313l 0.206259, -nanl 0.206259, -nanh
 0.825037l 0.206259, -nanl 0.206259, -nanh 1.65007l 0.206259, -nanl 0.206259, -nanh 0.618778l 0.206259, -nanl 0.206259, -nanh 0.618778l 0.206259, -nanl 0.206259, -nanl 0.206259, -nanl 0.206259, -nanh 16.5007l 0.206259, -nanl 0.206259, -nanh 0.618778l
 0.206259, -nanl 0.206259, -nanh 0.618778l 0.206259, -nanl 0.206259, -nanh 0.618778l 0.206259, -nanl 0.206259, -nanh 0.618778l 0.206259, -nanl 0.206259, -nanh 25.9887l 0.206259, -nanl 0.206259, -nanl 0.206259, -nanl 0.206259, -nanl 0.206259, -nanl
 0.206259, -nanl 0.206259, -nanl 0.206259, -nanl 0.206259, -nanl 0.206259, -nanh 18.5633l 0.206259, -nanl 0.206259, -nanh 9.48792l 0.206259, -nanl 0.206259, -nanh 0.618778l 0.206259, -nanl 0.206259, -nanl 0.206259, -nanl 0.206259, -nanl 0.206259,
 -nanh 0.825037l 0.206259, -nanl 0.206259, -nanh 0.618778l 0.206259, -nanl 0.206259, -nanl 0.206259, -nanh 1.23756l 0.206259, -nanl 0.206259, -nanl 0.206259, -nanl 0.206259, -nanl 0.206259, -nanl 0.206259, -nanh 0.206259l 0.206259, -nanl 0.206259,
 -nanh 2.26885l 0.206259, -nanl 0.206259, -nanh 0.412518l 0.206259, -nanl 0.206259, -nanl 0.206259, -nanl 0.206259, -nanh 0.412518l 0.206259, -nanl 0.206259, -nanl 0.206259, -nanl 0.206259, -nanh 0.412518l 0.206259, -nanl 0.206259, -nanl 0.206259,
 -nanl 0.206259, -nanl 0.206259, -nanl 0.206259, -nanl 0.206259, -nanl 0.206259, -nanl 0.206259, -nanh 0.206259l 0.206259, -nanl 0.206259, -nanl 0.206259, -nanl 0.206259, -nanl 0.206259, -nanl 0.206259, -nanl 0.206259, -nanl 0.206259, -nanl 0.206259,
 -nanl 0.206259, -nanl 0.206259, -nanl 0.206259, -nanh 0.412518l 0.206259, -nanl 0.206259, -nanl 0.206259, -nanl 0.206259, -nanl 0.206259, -nanl 0.206259, -nanh 0.825037l 0.206259, -nanl 0.206259, -nanl 0.206259, -nanl 0.206259, -nanl 0.206259, -nanl
 0.206259, -nanl 0.206259, -nanl 0.206259, -nanl 0.206259, -nanl 0.206259, -nanl 0.206259, -nanl 0.206259, -nanl 0.206259, -nanl 0.206259, -nanl 0.206259, -nanl 0.206259, -nanl 0.206259, -nanl 0.206259, -nanh 0.412518l 0.206259, -nanl 0.206259, -nanl
 0.206259, -nanl 0.206259, -nanl 0.206259, -nanl 0.206259, -nanl 0.206259, -nanl 0.206259, -nanl 0.206259, -nanl 0.206259, -nanh 0.412518l 0.206259, -nanl 0.206259, -nanl 0.206259, -nanl 0.206259, -nanh 0.412518l 0.206259, -nanl 0.206259, -nanl
 0.206259, -nanl 0.206259, -nanl 0.206259, -nanl 0.206259, -nanl 0.206259, -nanl 0.206259, -nanl 0.206259, -nanl 0.206259, -nanh 0.412518l 0.206259, -nanl 0.206259, -nanl 0.206259, -nanl 0.206259, -nanl 0.206259, -nanl 0.206259, -nanl 0.206259, -nanl
 0.206259, -nanh 0.825037l 0.206259, -nanl 0.206259, -nanh 9.0754l 0.206259, -nanl 0.206259, -nanl 0.206259, -nanl 0.206259, -nanh 3.71267l 0.206259, -nanl 0.206259, -nanl 0.206259, -nanl 0.206259, -nanl 0.206259, -nanl 0.206259, -nanl 0.206259,
 -nanl 0.206259, -nanl 0.206259, -nanl 0.206259, -nanl 0.206259, -nanl 0.206259, -nanl 0.206259, -nanl 0.206259, -nanl 0.206259, -nanl 0.206259, -nanl 0.206259, -nanl 0.206259, -nanl 0.206259, -nanl 0.206259, -nanh 0.412518l 0.206259, -nanl 0.206259,
 -nanl 0.206259, -nanl 0.206259, -nanh 0.825037l 0.206259, -nanl 0.206259, -nanh 3.71267l 0.206259, -nanl 0.206259, -nanh 1.65007l 0.206259, -nanl 0.206259, -nanh 18.1508l 0.206259, -nanl 0.206259, -nanl 0.206259, -nanl 0.206259, -nanl 0.206259,
 -nanl 0.206259, -nanl 0.206259, -nanl 0.206259, -nanl 0.206259, -nanl 0.206259, -nanh 3.91892l 0.206259, -nanl 0.206259, -nanl 0.206259, -nanl 0.206259, -nanl 0.206259, -nanl 0.206259, -nanh 5.569" fill="none" stroke="#00ff00" fill-opacity="0.10"
 stroke-opacity="0.10"/>
<path d="M77.8085,332.042h 0.206259l 0.206259, -nanl 0.206259, -nanl 0.206259, -nanl 0.206259, -nanl 0.206259, -nanl 0.206259, -nanl 0.206259, -nanl 0.206259, -nanl 0.206259, -nanl 0.206259, -nanh 0.206259l 0.206259, -nanl 0.206259, -nanh 0.206259l
 0.206259, -nanl 0.206259, -nanh 0.206259l 0.206259, -nanl 0.206259, -nanh 0.206259l 0.206259, -nanl 0.206259, -nanh 0.206259l 0.206259, -nanl 0.206259, -nanl 0.206259, nanl 0.206259, nanh 2.68137l 0.206259, -nanl 0.206259, -nanl 0.206259, -nanl
 0.206259, -nanl 0.206259, -nanl 0.206259, -nanl 0.206259, -nanl 0.206259, -nanl 0.206259, -nanl 0.206259, -nanh 2.47511l 0.206259, -nanl 0.206259, -nanh 2.26885l 0.206259, -nanl 0.206259, -nanh 5.569l 0.206259, -nanl 0.206259, -nanh 0.412518l
 0.206259, -nanl 0.206259, -nanl 0.206259, -nanl 0.206259, -nanh 16.707l 0.206259, -nanl 0.206259, -nanh 0.825037l 0.206259, -nanl 0.206259, -nanh 4.5377l 0.206259, -nanl 0.206259, -nanh 0.825037l 0.206259, -nanl 0.206259, -nanl 0.206259, -nanh
 0.206259l 0.206259, -nanl 0.206259, -nanh 0.206259l 0.206259, -nanl 0.206259, -nanh 0.206259l 0.206259, -nanl 0.206259, -nanh 0.206259l 0.206259, -nanl 0.206259, -nanh 3.09389l 0.206259, nanl 0.206259, nanh 1.65007l 0.206259, nanl 0.206259, nanh
 0.618778l 0.206259, -nanl 0.206259, -nanh 4.12518l 0.206259, -nanl 0.206259, -nanh 0.825037l 0.206259, -nanl 0.206259, -nanh 0.412518l 0.206259, -nanl 0.206259, -nanl 0.206259, -nanl 0.206259, -nanl 0.206259, -nanl 0.206259, -nanl 0.206259, -nanl
 0.206259, -nanl 0.206259, -nanl 0.206259, -nanh 4.5377l 0.206259, -nanl 0.206259, -nanl 0.206259, -nanl 0.206259, -nanl 0.206259, -nanl 0.206259, -nanl 0.206259, -nanl 0.206259, -nanl 0.206259, -nanl 0.206259, -nanl 0.206259, -nanl 0.206259, -nanl
 0.206259, -nanl 0.206259, -nanl 0.206259, -nanl 0.206259, -nanl 0.206259, -nanl 0.206259, -nanh 28.4638l 0.206259, -nanl 0.206259, -nanl 0.206259, -nanl 0.206259, -nanl 0.206259, -nanl 0.206259, -nanl 0.206259, -nanl 0.206259, -nanl 0.206259, -nanl
 0.206259, -nanl 0.206259, -nanl 0.206259, -nanh 0.206259l 0.206259, -nanl 0.206259, -nanh 0.206259l 0.206259, -nanl 0.206259, -nanh 0.206259l 0.206259, -nanl 0.206259, -nanh 0.206259l 0.206259, -nanl 0.206259, -nanh 0.412518l 0.206259, -nanl
 0.206259, -nanh 0.412518l 0.206259, -nanl 0.206259, -nanh 0.412518l 0.206259, -nanl 0.206259, -nanh 0.412518l 0.206259, -nanl 0.206259, -nanh 0.412518l 0.206259, -nanl 0.206259, -nanh 31.3514l 0.206259, -nanl 0.206259, -nanh 15.2632l 0.206259, -nanl
 0.206259, -nanl 0.206259, -nanl 0.206259, -nanl 0.206259, -nanl 0.206259, -nanl 0.206259, -nanl 0.206259, -nanl 0.206259, -nanl 0.206259, -nanl 0.206259, -nanl 0.206259, -nanl 0.206259, -nanl 0.206259, -nanl 0.206259, -nanl 0.206259, -nanl 0.206259,
 -nanl 0.206259, -nanl 0.206259, -nanl 0.206259, -nanh 0.206259l 0.206259, -nanl 0.206259, -nanh 0.412518l 0.206259, -nanl 0.206259, -nanh 3.91892l 0.206259, -nanl 0.206259, -nanh 0.206259l 0.206259, -nanl 0.206259, -nanh 0.825037l 0.206259, -nanl
 0.206259, -nanh 11.963l 0.206259, -nanl 0.206259, -nanh 0.618778l 0.206259, -nanl 0.206259, -nanl 0.206259, -nanl 0.206259, -nanl 0.206259, -nanl 0.206259, -nanh 0.412518l 0.206259, -nanl 0.206259, -nanh 0.412518l 0.206259, -nanl 0.206259, -nanl
 0.206259, -nanl 0.206259, -nanl 0.206259, -nanl 0.206259, -nanh 0.412518l 0.206259, -nanl 0.206259, -nanh 0.206259l 0.206259, -nanl 0.206259, -nanh 0.206259l 0.206259, -nanl 0.206259, -nanh 0.206259l 0.206259, -nanl 0.206259, -nanh 0.206259l
 0.206259, -nanl 0.206259, -nanh 0.206259l 0.206259, -nanl 0.206259, -nanh 0.206259l 0.206259, -nanl 0.206259, -nanh 0.206259l 0.206259, -nanl 0.206259, -nanh 0.206259l 0.206259, -nanl 0.206259, -nanh 0.206259l 0.206259, -nanl 0.206259, -nanh
 14.6444l 0.206259, -nanl 0.206259, -nanh 19.1053h -6.64732h 6.85418h -6.65253h 3.84105l 0.206259, -nanl 0.206259, -nanl 0.206259, -nanh 1.65007l 0.206259, -nanl 0.206259, -nanl 0.206259, -nanl 0.206259, -nanh 0.206259l 0.206259, -nanl 0.206259,
 -nanl 0.206259, -nanl 0.206259, -nanl 0.206259, -nanh 0.618778l 0.206259, -nanl 0.206259, -nanl 0.206259, -nanl 0.206259, -nanh 4.12518l 0.206259, -nanl 0.206259, -nanl 0.206259, -nanl 0.206259, -nanh 1.0313l 0.206259, -nanl 0.206259, -nanh 1.0313l
 0.206259, -nanl 0.206259, -nanh 0.825037l 0.206259, -nanl 0.206259, -nanh 1.65007l 0.206259, -nanl 0.206259, -nanh 0.618778l 0.206259, -nanl 0.206259, -nanh 0.618778l 0.206259, -nanl 0.206259, -nanl 0.206259, -nanl 0.206259, -nanh 16.5007l 0.206259,
 -nanl 0.206259, -nanh 0.618778l 0.206259, -nanl 0.206259, -nanh 0.618778l 0.206259, -nanl 0.206259, -nanh 0.618778l 0.206259, -nanl 0.206259, -nanh 0.618778l 0.206259, -nanl 0.206259, -nanh 25.9887l 0.206259, -nanl 0.206259, -nanl 0.206259, -nanl
 0.206259, -nanl 0.206259, -nanl 0.206259, -nanl 0.206259, -nanl 0.206259, -nanl 0.206259, -nanl 0.206259, -nanh 18.5633l 0.206259, -nanl 0.206259, -nanh 9.48792l 0.206259, -nanl 0.206259, -nanh 0.618778l 0.206259, -nanl 0.206259, -nanl 0.206259,
 -nanl 0.206259, -nanl 0.206259, -nanh 0.825037l 0.206259, -nanl 0.206259, -nanh 0.618778l 0.206259, -nanl 0.206259, -nanl 0.206259, -nanh 1.23756l 0.206259, -nanl 0.206259, -nanl 0.206259, -nanl 0.206259, -nanl 0.206259, -nanl 0.206259, -nanh
 0.206259l 0.206259, -nanl 0.206259, -nanh 2.26885l 0.206259, -nanl 0.206259, -nanh 0.412518l 0.206259, -nanl 0.206259, -nanl 0.206259, -nanl 0.206259, -nanh 0.412518l 0.206259, -nanl 0.206259, -nanl 0.206259, -nanl 0.206259, -nanh 0.412518l
 0.206259, -nanl 0.206259, -nanl 0.206259, -nanl 0.206259, -nanl 0.206259, -nanl 0.206259, -nanl 0.206259, -nanl 0.206259, -nanl 0.206259, -nanh 0.206259l 0.206259, -nanl 0.206259, -nanl 0.206259, -nanl 0.206259, -nanl 0.206259, -nanl 0.206259, -nanl
 0.206259, -nanl 0.206259, -nanl 0.206259, -nanl 0.206259, -nanl 0.206259, -nanl 0.206259, -nanh 0.412518l 0.206259, -nanl 0.206259, -nanl 0.206259, -nanl 0.206259, -nanl 0.206259, -nanl 0.206259, -nanh 0.825037l 0.206259, -nanl 0.206259, -nanl
 0.206259, -nanl 0.206259, -nanl 0.206259, -nanl 0.206259, -nanl 0.206259, -nanl 0.206259, -nanl 0.206259, -nanl 0.206259, -nanl 0.206259, -nanl 0.206259, -nanl 0.206259, -nanl 0.206259, -nanl 0.206259, -nanl 0.206259, -nanl 0.206259, -nanl 0.206259,
 -nanh 0.412518l 0.206259, -nanl 0.206259, -nanl 0.206259, -nanl 0.206259, -nanl 0.206259, -nanl 0.206259, -nanl 0.206259, -nanl 0.206259, -nanl 0.206259, -nanl 0.206259, -nanh 0.412518l 0.206259, -nanl 0.206259, -nanl 0.206259, -nanl 0.206259, -nanh
 0.412518l 0.206259, -nanl 0.206259, -nanl 0.206259, -nanl 0.206259, -nanl 0.206259, -nanl 0.206259, -nanl 0.206259, -nanl 0.206259, -nanl 0.206259, -nanl 0.206259, -nanh 0.412518l 0.206259, -nanl 0.206259, -nanl 0.206259, -nanl 0.206259, -nanl
 0.206259, -nanl 0.206259, -nanl 0.206259, -nanl 0.206259, -nanh 0.825037l 0.206259, -nanl 0.206259, -nanh 9.0754l 0.206259, -nanl 0.206259, -nanl 0.206259, -nanl 0.206259, -nanh 3.71267l 0.206259, -nanl 0.206259, -nanl 0.206259, -nanl 0.206259,
 -nanl 0.206259, -nanl 0.206259, -nanl 0.206259, -nanl 0.206259, -nanl 0.206259, -nanl 0.206259, -nanl 0.206259, -nanl 0.206259, -nanl 0.206259, -nanl 0.206259, -nanl 0.206259, -nanl 0.206259, -nanl 0.206259, -nanl 0.206259, -nanl 0.206259, -nanl
 0.206259, -nanh 0.412518l 0.206259, -nanl 0.206259, -nanl 0.206259, -nanl 0.206259, -nanh 0.825037l 0.206259, -nanl 0.206259, -nanh 3.71267l 0.206259, -nanl 0.206259, -nanh 1.65007l 0.206259, -nanl 0.206259, -nanh 18.1508l 0.206259, -nanl 0.206259,
 -nanl 0.206259, -nanl 0.206259, -nanl 0.206259, -nanl 0.206259, -nanl 0.206259, -nanl 0.206259, -nanl 0.206259, -nanl 0.206259, -nanh 3.91892l 0.206259, -nanl 0.206259, -nanl 0.206259, -nanl 0.206259, -nanl 0.206259, -nanl 0.206259, -nanh 5.569"
 fill="none" stroke="#00ff00" fill-opacity="0.10" stroke-opacity="0.10"/>
<path d="M77.8085,332.042h 412.312" fill="none" stroke="#ff0000" fill-opacity="0.10" stroke-opacity="0.10"/>
<path d="M77.8085,332.042h 412.312" fill="none" stroke="#ff0000" fill-opacity="0.10" stroke-opacity="0.10"/>
<path d="M77.8085,332.042h 57.5463l 0.206259, -nanl 0.206259, -nanh 0.206259l 0.206259, -nanl 0.206259, -nanh 2.68137l 0.206259, -nanl 0.206259, -nanh 14.4381l 0.206259, nanl 0.206259, nanh 57.34l 0.206259, -nanl 0.206259, -nanl 0.206259, -nanl
 0.206259, -nanl 0.206259, -nanl 0.206259, -nanl 0.206259, -nanl 0.206259, -nanl 0.206259, -nanl 0.206259, -nanh 19.8009l 0.206259, -nanl 0.206259, -nanh 2.88763l 0.206259, -nanl 0.206259, -nanl 0.206259, -nanh 11.5505l 0.206259, -nanl 0.206259,
 -nanh 0.206259l 0.206259, -nanl 0.206259, -nanh 0.206259l 0.206259, -nanl 0.206259, -nanh 0.206259l 0.206259, -nanl 0.206259, -nanh 0.412518l 0.206259, -nanl 0.206259, -nanl 0.206259, -nanl 0.206259, -nanl 0.206259, -nanl 0.206259, -nanl 0.206259,
 -nanl 0.206259, -nanl 0.206259, -nanl 0.206259, -nanl 0.206259, -nanl 0.206259, -nanl 0.206259, -nanl 0.206259, -nanl 0.206259, -nanl 0.206259, -nanl 0.206259, -nanl 0.206259, -nanl 0.206259, -nanl 0.206259, -nanl 0.206259, -nanl 0.206259, -nanl
 0.206259, -nanl 0.206259, -nanl 0.206259, -nanl 0.206259, -nanl 0.206259, -nanl 0.206259, -nanl 0.206259, -nanl 0.206259, -nanl 0.206259, -nanl 0.206259, -nanl 0.206259, -nanl 0.206259, -nanh 4.12518l 0.206259, -nanl 0.206259, -nanh 17.3258l
 0.206259, -nanl 0.206259, -nanh 0.412518l 0.206259, -nanl 0.206259, -nanh 0.412518l 0.206259, -nanl 0.206259, -nanh 0.412518l 0.206259, -nanl 0.206259, -nanh 0.412518l 0.206259, -nanl 0.206259, -nanl 0.206259, -nanl 0.206259, -nanl 0.206259, -nanl
 0.206259, -nanl 0.206259, -nanl 0.206259, -nanl 0.206259, -nanl 0.206259, -nanh 0.825037l 0.206259, -nanl 0.206259, -nanh 4.12518l 0.206259, -nanl 0.206259, -nanh 6.60029l 0.206259, -nanl 0.206259, -nanl 0.206259, -nanl 0.206259, -nanl 0.206259,
 -nanl 0.206259, -nanl 0.206259, -nanl 0.206259, -nanl 0.206259, -nanl 0.206259, -nanl 0.206259, -nanl 0.206259, -nanl 0.206259, -nanl 0.206259, -nanl 0.206259, -nanl 0.206259, -nanl 0.206259, -nanl 0.206259, -nanl 0.206259, -nanl 0.206259, -nanh
 2.47511l 0.206259, -nanl 0.206259, -nanl 0.206259, -nanh 0.412518l 0.206259, -nanl 0.206259, -nanl 0.206259, -nanh 10.5192l 0.206259, -nanl 0.206259, nanl 0.206259, nanl 0.206259, -nanl 0.206259, -nanl 0.206259, nanl 0.206259, nanl 0.206259, -nanl
 0.206259, -nanl 0.206259, nanl 0.206259, nanl 0.206259, -nanl 0.206259, -nanl 0.206259, -nanh 0.206259l 0.206259, -nanl 0.206259, -nanl 0.206259, nanl 0.206259, nanh 2.26885l 0.206259, -nanl 0.206259, -nanl 0.206259, -nanl 0.206259, -nanh 0.412518l
 0.206259, -nanl 0.206259, -nanh 0.825037l 0.206259, -nanl 0.206259, -nanh 5.569l 0.206259, -nanl 0.206259, -nanh 0.618778l 0.206259, -nanl 0.206259, -nanh 2.06259l 0.206259, -nanl 0.206259, -nanh 7.01281l 0.206259, -nanl 0.206259, -nanh 1.0313l
 0.206259, -nanl 0.206259, -nanh 4.5377l 0.206259, -nanl 0.206259, -nanh 2.47511l 0.206259, -nanl 0.206259, -nanh 2.06259l 0.206259, -nanl 0.206259, -nanh 0.412518l 0.206259, -nanl 0.206259, -nanh 5.569l 0.206259, -nanl 0.206259, -nanh 5.98152l
 0.206259, -nanl 0.206259, -nanh 3.71267l 0.206259, -nanl 0.206259, -nanh 14.2319l 0.206259, -nanl 0.206259, -nanh 9.90044l 0.206259, -nanl 0.206259, -nanh 0.206259l 0.206259, -nanl 0.206259, -nanl 0.206259, -nanl 0.206259, -nanl 0.206259, -nanh
 30.3201l 0.206259, -nanl 0.206259, -nanh 1.44381l 0.206259, -nanl 0.206259, -nanh 0.618778l 0.206259, -nanl 0.206259, -nanl 0.206259, -nanh 3.91892l 0.206259, -nanl 0.206259, -nanh 0.618778l 0.206259, -nanl 0.206259, -nanh 1.65007l 0.206259, -nanl
 0.206259, -nanh 17.9445l 0.206259, nanl 0.206259, nanh 9.48792l 0.206259, -nanl 0.206259, -nanh 2.06259l 0.206259, -nanl 0.206259, -nanl 0.206259, -nanh 1.0313l 0.206259, -nanl 0.206259, -nanl 0.206259, -nanl 0.206259, -nanl 0.206259, -nanl
 0.206259, -nanl 0.206259, -nanl 0.206259, -nanl 0.206259, -nanl 0.206259, -nanh 2.88763l 0.206259, -nanl 0.206259, -nanl 0.206259, -nanl 0.206259, -nanl 0.206259, -nanl 0.206259, -nanl 0.206259, -nanl 0.206259, -nanl 0.206259, -nanl 0.206259, -nanl
 0.206259, -nanl 0.206259, -nanl 0.206259, -nanl 0.206259, -nanl 0.206259, -nanl 0.206259, -nanl 0.206259, -nanl 0.206259, -nanl 0.206259, -nanl 0.206259, -nanh 5.77526l 0.206259, -nanl 0.206259, -nanh 0.412518l 0.206259, -nanl 0.206259, -nanh
 2.47511" fill="none" stroke="#00ff00" fill-opacity="0.10" stroke-opacity="0.10"/>
<path d="M77.8085,332.042h 57.5463l 0.206259, -nanl 0.206259, -nanh 0.206259l 0.206259, -nanl 0.206259, -nanh 2.68137l 0.206259, -nanl 0.206259, -nanh 14.4381l 0.206259, nanl 0.206259, nanh 57.34l 0.206259, -nanl 0.206259, -nanl 0.206259, -nanl
 0.206259, -nanl 0.206259, -nanl 0.206259, -nanl 0.206259, -nanl 0.206259, -nanl 0.206259, -nanl 0.206259, -nanh 19.8009l 0.206259, -nanl 0.206259, -nanh 2.88763l 0.206259, -nanl 0.206259, -nanl 0.206259, -nanh 11.5505l 0.206259, -nanl 0.206259,
 -nanh 0.206259l 0.206259, -nanl 0.206259, -nanh 0.206259l 0.206259, -nanl 0.206259, -nanh 0.206259l 0.206259, -nanl 0.206259, -nanh 0.412518l 0.206259, -nanl 0.206259, -nanl 0.206259, -nanl 0.206259, -nanl 0.206259, -nanl 0.206259, -nanl 0.206259,
 -nanl 0.206259, -nanl 0.206259, -nanl 0.206259, -nanl 0.206259, -nanl 0.206259, -nanl 0.206259, -nanl 0.206259, -nanl 0.206259, -nanl 0.206259, -nanl 0.206259, -nanl 0.206259, -nanl 0.206259, -nanl 0.206259, -nanl 0.206259, -nanl 0.206259, -nanl
 0.206259, -nanl 0.206259, -nanl 0.206259, -nanl 0.206259, -nanl 0.206259, -nanl 0.206259, -nanl 0.206259, -nanl 0.206259, -nanl 0.206259, -nanl 0.206259, -nanl 0.206259, -nanl 0.206259, -nanh 4.12518l 0.206259, -nanl 0.206259, -nanh 17.3258l
 0.206259, -nanl 0.206259, -nanh 0.412518l 0.206259, -nanl 0.206259, -nanh 0.412518l 0.206259, -nanl 0.206259, -nanh 0.412518l 0.206259, -nanl 0.206259, -nanh 0.412518l 0.206259, -nanl 0.206259, -nanl 0.206259, -nanl 0.206259, -nanl 0.206259, -nanl
 0.206259, -nanl 0.206259, -nanl 0.206259, -nanl 0.206259, -nanl 0.206259, -nanh 0.825037l 0.206259, -nanl 0.206259, -nanh 4.12518l 0.206259, -nanl 0.206259, -nanh 6.60029l 0.206259, -nanl 0.206259, -nanl 0.206259, -nanl 0.206259, -nanl 0.206259,
 -nanl 0.206259, -nanl 0.206259, -nanl 0.206259, -nanl 0.206259, -nanl 0.206259, -nanl 0.206259, -nanl 0.206259, -nanl 0.206259, -nanl 0.206259, -nanl 0.206259, -nanl 0.206259, -nanl 0.206259, -nanl 0.206259, -nanl 0.206259, -nanl 0.206259, -nanh
 2.47511l 0.206259, -nanl 0.206259, -nanl 0.206259, -nanh 0.412518l 0.206259, -nanl 0.206259, -nanl 0.206259, -nanh 10.5192l 0.206259, -nanl 0.206259, nanl 0.206259, nanl 0.206259, -nanl 0.206259, -nanl 0.206259, nanl 0.206259, nanl 0.206259, -nanl
 0.206259, -nanl 0.206259, nanl 0.206259, nanl 0.206259, -nanl 0.206259, -nanl 0.206259, -nanh 0.206259l 0.206259, -nanl 0.206259, -nanl 0.206259, nanl 0.206259, nanh 2.26885l 0.206259, -nanl 0.206259, -nanl 0.206259, -nanl 0.206259, -nanh 0.412518l
 0.206259, -nanl 0.206259, -nanh 0.825037l 0.206259, -nanl 0.206259, -nanh 5.569l 0.206259, -nanl 0.206259, -nanh 0.618778l 0.206259, -nanl 0.206259, -nanh 2.06259l 0.206259, -nanl 0.206259, -nanh 7.01281l 0.206259, -nanl 0.206259, -nanh 1.0313l
 0.206259, -nanl 0.206259, -nanh 4.5377l 0.206259, -nanl 0.206259, -nanh 2.47511l 0.206259, -nanl 0.206259, -nanh 2.06259l 0.206259, -nanl 0.206259, -nanh 0.412518l 0.206259, -nanl 0.206259, -nanh 5.569l 0.206259, -nanl 0.206259, -nanh 5.98152l
 0.206259, -nanl 0.206259, -nanh 3.71267l 0.206259, -nanl 0.206259, -nanh 14.1554h -6.65178h 6.85801h -6.64953h 8.50356h -6.64707h 6.8533h -6.64497h 4.45493l 0.206259, -nanl 0.206259, -nanh 9.90044l 0.206259, -nanl 0.206259, -nanh 0.206259l 0.206259,
 -nanl 0.206259, -nanl 0.206259, -nanl 0.206259, -nanl 0.206259, -nanh 30.3201l 0.206259, -nanl 0.206259, -nanh 1.44381l 0.206259, -nanl 0.206259, -nanh 0.618778l 0.206259, -nanl 0.206259, -nanl 0.206259, -nanh 3.91892l 0.206259, -nanl 0.206259,
 -nanh 0.618778l 0.206259, -nanl 0.206259, -nanh 1.65007l 0.206259, -nanl 0.206259, -nanh 17.9445l 0.206259, nanl 0.206259, nanh 9.48792l 0.206259, -nanl 0.206259, -nanh 2.06259l 0.206259, -nanl 0.206259, -nanl 0.206259, -nanh 1.0313l 0.206259, -nanl
 0.206259, -nanl 0.206259, -nanl 0.206259, -nanl 0.206259, -nanl 0.206259, -nanl 0.206259, -nanl 0.206259, -nanl 0.206259, -nanl 0.206259, -nanh 2.88763l 0.206259, -nanl 0.206259, -nanl 0.206259, -nanl 0.206259, -nanl 0.206259, -nanl 0.206259, -nanl
 0.206259, -nanl 0.206259, -nanl 0.206259, -nanl 0.206259, -nanl 0.206259, -nanl 0.206259, -nanl 0.206259, -nanl 0.206259, -nanl 0.206259, -nanl 0.206259, -nanl 0.206259, -nanl 0.206259, -nanl 0.206259, -nanl 0.206259, -nanh 5.77526l 0.206259, -nanl
 0.206259, -nanh 0.412518l 0.206259, -nanl 0.206259, -nanh 2.47511" fill="none" stroke="#00ff00" fill-opacity="0.10" stroke-opacity="0.10"/>
<path d="M77.8085,332.042h 412.312" fill="none" stroke="#ff0000" fill-opacity="0.10" stroke-opacity="0.10"/>
<path d="M77.8085,332.042h 412.312" fill="none" stroke="#ff0000" fill-opacity="0.10" stroke-opacity="0.10"/>
<path d="M77.8085,332.042h 412.312" fill="none" stroke="#00ff00" fill-opacity="0.10" stroke-opacity="0.10"/>
<path d="M77.8085,332.042h 412.312" fill="none" stroke="#00ff00" fill-opacity="0.10" stroke-opacity="0.10"/>
<path d="M77.8085,332.042h 412.312" fill="none" stroke="#ff0000" fill-opacity="0.10" stroke-opacity="0.10"/>
<path d="M77.8085,332.042h 412.312" fill="none" stroke="#ff0000" fill-opacity="0.10" stroke-opacity="0.10"/>
<path d="M77.8085,332.042h 412.312" fill="none" stroke="#00ff00" fill-opacity="0.10" stroke-opacity="0.10"/>
<path d="M77.8085,332.042h 412.312" fill="none" stroke="#00ff00" fill-opacity="0.10" stroke-opacity="0.10"/>
<path d="M77.8085,332.042h 412.312" fill="none" stroke="#ff0000" fill-opacity="0.10" stroke-opacity="0.10"/>
<path d="M77.8085,332.042h 412.312" fill="none" stroke="#ff0000" fill-opacity="0.10" stroke-opacity="0.10"/>
<path d="M77.8085,332.042h 412.312" fill="none" stroke="#00ff00" fill-opacity="0.10" stroke-opacity="0.10"/>
<path d="M77.8085,332.042h 412.312" fill="none" stroke="#00ff00" fill-opacity="0.10" stroke-opacity="0.10"/>
<path d="M77.8085,332.042h 412.312" fill="none" stroke="#ff0000" fill-opacity="0.10" stroke-opacity="0.10"/>
<path d="M77.8085,332.042h 412.312" fill="none" stroke="#ff0000" fill-opacity="0.10" stroke-opacity="0.10"/>
<path d="M77.8085,332.042h 412.312" fill="none" stroke="#00ff00" fill-opacity="0.10" stroke-opacity="0.10"/>
<path d="M77.8085,332.042h 412.312" fill="none" stroke="#00ff00" fill-opacity="0.10" stroke-opacity="0.10"/>
<path d="M77.8085,332.042h 412.312" fill="none" stroke="#ff0000" fill-opacity="0.10" stroke-opacity="0.10"/>
<path d="M77.8085,332.042h 412.312" fill="none" stroke="#ff0000" fill-opacity="0.10" stroke-opacity="0.10"/>
<path d="M77.8085,332.042h 412.312" fill="none" stroke="#00ff00" fill-opacity="0.10" stroke-opacity="0.10"/>
<path d="M77.8085,332.042h 412.312" fill="none" stroke="#00ff00" fill-opacity="0.10" stroke-opacity="0.10"/>
<path d="M77.8085,332.042h 412.312" fill="none" stroke="#ff0000" fill-opacity="0.10" stroke-opacity="0.10"/>
<path d="M77.8085,332.042h 412.312" fill="none" stroke="#ff0000" fill-opacity="0.10" stroke-opacity="0.10"/>
<path d="M77.8085,332.042h 412.312" fill="none" stroke="#00ff00" fill-opacity="0.10" stroke-opacity="0.10"/>
<path d="M77.8085,332.042h 412.312" fill="none" stroke="#00ff00" fill-opacity="0.10" stroke-opacity="0.10"/>
<path d="M77.8085,332.042h 412.312" fill="none" stroke="#ff0000" fill-opacity="0.10" stroke-opacity="0.10"/>
<path d="M77.8085,332.042h 412.312" fill="none" stroke="#ff0000" fill-opacity="0.10" stroke-opacity="0.10"/>
<path d="M77.8085,332.042h 412.312" fill="none" stroke="#00ff00" fill-opacity="0.10" stroke-opacity="0.10"/>
<path d="M77.8085,332.042h 412.312" fill="none" stroke="#00ff00" fill-opacity="0.10" stroke-opacity="0.10"/>
<rect x="454.043" y="38.4469" width="56.6929" height="76.8938" fill="white"/>
<path d="M454.043,115.341h 56.6929" fill="none" stroke="black"/>
<path d="M510.736,115.341v -76.8938" fill="none" stroke="black"/>
<path d="M510.736,38.4469h -56.6929" fill="none" stroke="black"/>
<path d="M454.043,38.4469v 76.8938" fill="none" stroke="black"/>
<text xml:space="preserve" x="468.054" y="62.7206" fill="#ff0000" font-size="15.2473" font-family="Helvetica">Aout</text>
<path d="M456.169,57.6704h 9.92126" fill="none" stroke="#ff0000" fill-opacity="0.10" stroke-opacity="0.10"/>
<text xml:space="preserve" x="468.054" y="102.634" fill="#00ff00" font-size="15.2473" font-family="Helvetica">Ain</text>
<path d="M456.169,96.1173h 9.92126" fill="none" stroke="#00ff00" fill-opacity="0.10" stroke-opacity="0.10"/>
<text xml:space="preserve" x="232.648" y="18.7347" fill="black" font-size="16.9898" font-family="Helvetica">Elementare 7</text></svg>
