<?xml version="1.0" standalone="no"?>
<svg width="567.429" height="384.969" viewBox="0 0 567.429 384.969" xmlns="http://www.w3.org/2000/svg" shape-rendering="crispEdges">
<title>
sbml-my_RAF_ok.svg
</title>
<desc>
Creator: ROOT Version 6.18/04
CreationDate: Fri Feb 21 12:33:21 2020</desc>
<defs>
</defs>
<rect x="0.5" y="0" width="566.929" height="384.469" fill="white"/>
<rect x="57.1929" y="38.4469" width="453.543" height="307.575" fill="white"/>
<rect x="57.1929" y="38.4469" width="453.543" height="307.575" fill="none" stroke="black"/>
<rect x="57.1929" y="38.4469" width="453.543" height="307.575" fill="white"/>
<rect x="57.1929" y="38.4469" width="453.543" height="307.575" fill="none" stroke="black"/>
<path d="M57.1929,346.022h 453.543" fill="none" stroke="black"/>
<path d="M77.8085,38.4469v 307.575" fill="none" stroke="black" stroke-dasharray=" 1, 2"/>
<path d="M160.436,38.4469v 307.575" fill="none" stroke="black" stroke-dasharray=" 1, 2"/>
<path d="M243.064,38.4469v 307.575" fill="none" stroke="black" stroke-dasharray=" 1, 2"/>
<path d="M325.692,38.4469v 307.575" fill="none" stroke="black" stroke-dasharray=" 1, 2"/>
<path d="M408.319,38.4469v 307.575" fill="none" stroke="black" stroke-dasharray=" 1, 2"/>
<path d="M490.947,38.4469v 307.575" fill="none" stroke="black" stroke-dasharray=" 1, 2"/>
<path d="M77.8085,38.4469v 307.575" fill="none" stroke="black" stroke-dasharray=" 1, 2"/>
<path d="M490.947,38.4469v 307.575" fill="none" stroke="black" stroke-dasharray=" 1, 2"/>
<path d="M57.1929,346.022v -307.575" fill="none" stroke="black"/>
<path d="M510.736,346.022h -453.543" fill="none" stroke="black" stroke-dasharray=" 1, 2"/>
<path d="M510.736,287.409h -453.543" fill="none" stroke="black" stroke-dasharray=" 1, 2"/>
<path d="M510.736,228.795h -453.543" fill="none" stroke="black" stroke-dasharray=" 1, 2"/>
<path d="M510.736,170.181h -453.543" fill="none" stroke="black" stroke-dasharray=" 1, 2"/>
<path d="M510.736,111.567h -453.543" fill="none" stroke="black" stroke-dasharray=" 1, 2"/>
<path d="M510.736,52.9538h -453.543" fill="none" stroke="black" stroke-dasharray=" 1, 2"/>
<path d="M510.736,52.9538h -453.543" fill="none" stroke="black" stroke-dasharray=" 1, 2"/>
<path d="M57.1929,346.022h 453.543" fill="none" stroke="black"/>
<path d="M77.8085,336.795v 9.22726" fill="none" stroke="black"/>
<path d="M94.3341,341.409v 4.61363" fill="none" stroke="black"/>
<path d="M110.86,341.409v 4.61363" fill="none" stroke="black"/>
<path d="M127.385,341.409v 4.61363" fill="none" stroke="black"/>
<path d="M143.911,341.409v 4.61363" fill="none" stroke="black"/>
<path d="M160.436,336.795v 9.22726" fill="none" stroke="black"/>
<path d="M176.962,341.409v 4.61363" fill="none" stroke="black"/>
<path d="M193.487,341.409v 4.61363" fill="none" stroke="black"/>
<path d="M210.013,341.409v 4.61363" fill="none" stroke="black"/>
<path d="M226.538,341.409v 4.61363" fill="none" stroke="black"/>
<path d="M243.064,336.795v 9.22726" fill="none" stroke="black"/>
<path d="M259.589,341.409v 4.61363" fill="none" stroke="black"/>
<path d="M276.115,341.409v 4.61363" fill="none" stroke="black"/>
<path d="M292.64,341.409v 4.61363" fill="none" stroke="black"/>
<path d="M309.166,341.409v 4.61363" fill="none" stroke="black"/>
<path d="M325.692,336.795v 9.22726" fill="none" stroke="black"/>
<path d="M342.217,341.409v 4.61363" fill="none" stroke="black"/>
<path d="M358.743,341.409v 4.61363" fill="none" stroke="black"/>
<path d="M375.268,341.409v 4.61363" fill="none" stroke="black"/>
<path d="M391.794,341.409v 4.61363" fill="none" stroke="black"/>
<path d="M408.319,336.795v 9.22726" fill="none" stroke="black"/>
<path d="M424.845,341.409v 4.61363" fill="none" stroke="black"/>
<path d="M441.37,341.409v 4.61363" fill="none" stroke="black"/>
<path d="M457.896,341.409v 4.61363" fill="none" stroke="black"/>
<path d="M474.421,341.409v 4.61363" fill="none" stroke="black"/>
<path d="M490.947,336.795v 9.22726" fill="none" stroke="black"/>
<path d="M77.8085,336.795v 9.22726" fill="none" stroke="black"/>
<path d="M61.283,341.409v 4.61363" fill="none" stroke="black"/>
<path d="M490.947,336.795v 9.22726" fill="none" stroke="black"/>
<path d="M507.472,341.409v 4.61363" fill="none" stroke="black"/>
<text xml:space="preserve" x="73.8098" y="358.403" fill="black" font-size="12.8453" font-family="Helvetica">0</text>
<text xml:space="preserve" x="149.563" y="358.403" fill="black" font-size="12.8453" font-family="Helvetica">100</text>
<text xml:space="preserve" x="231.833" y="358.403" fill="black" font-size="12.8453" font-family="Helvetica">200</text>
<text xml:space="preserve" x="314.918" y="358.403" fill="black" font-size="12.8453" font-family="Helvetica">300</text>
<text xml:space="preserve" x="397.187" y="358.403" fill="black" font-size="12.8453" font-family="Helvetica">400</text>
<text xml:space="preserve" x="480.272" y="358.403" fill="black" font-size="12.8453" font-family="Helvetica">500</text>
<text xml:space="preserve" x="459.908" y="371.436" fill="black" font-size="12.8453" font-family="Helvetica">Timestep</text>
<path d="M57.1929,346.022v -307.575" fill="none" stroke="black"/>
<path d="M70.7992,346.022h -13.6063" fill="none" stroke="black"/>
<path d="M63.9961,331.369h -6.80315" fill="none" stroke="black"/>
<path d="M63.9961,316.715h -6.80315" fill="none" stroke="black"/>
<path d="M63.9961,302.062h -6.80315" fill="none" stroke="black"/>
<path d="M70.7992,287.409h -13.6063" fill="none" stroke="black"/>
<path d="M63.9961,272.755h -6.80315" fill="none" stroke="black"/>
<path d="M63.9961,258.102h -6.80315" fill="none" stroke="black"/>
<path d="M63.9961,243.448h -6.80315" fill="none" stroke="black"/>
<path d="M70.7992,228.795h -13.6063" fill="none" stroke="black"/>
<path d="M63.9961,214.141h -6.80315" fill="none" stroke="black"/>
<path d="M63.9961,199.488h -6.80315" fill="none" stroke="black"/>
<path d="M63.9961,184.835h -6.80315" fill="none" stroke="black"/>
<path d="M70.7992,170.181h -13.6063" fill="none" stroke="black"/>
<path d="M63.9961,155.528h -6.80315" fill="none" stroke="black"/>
<path d="M63.9961,140.874h -6.80315" fill="none" stroke="black"/>
<path d="M63.9961,126.221h -6.80315" fill="none" stroke="black"/>
<path d="M70.7992,111.567h -13.6063" fill="none" stroke="black"/>
<path d="M63.9961,96.9141h -6.80315" fill="none" stroke="black"/>
<path d="M63.9961,82.2607h -6.80315" fill="none" stroke="black"/>
<path d="M63.9961,67.6072h -6.80315" fill="none" stroke="black"/>
<path d="M70.7992,52.9538h -13.6063" fill="none" stroke="black"/>
<path d="M70.7992,52.9538h -13.6063" fill="none" stroke="black"/>
<text xml:space="preserve" x="47.7441" y="350.258" fill="black" font-size="12.8453" font-family="Helvetica">0</text>
<text xml:space="preserve" x="23.3075" y="291.61" fill="black" font-size="12.8453" font-family="Helvetica">0.002</text>
<text xml:space="preserve" x="23.3075" y="232.962" fill="black" font-size="12.8453" font-family="Helvetica">0.004</text>
<text xml:space="preserve" x="23.3075" y="174.314" fill="black" font-size="12.8453" font-family="Helvetica">0.006</text>
<text xml:space="preserve" x="23.3075" y="115.667" fill="black" font-size="12.8453" font-family="Helvetica">0.008</text>
<text xml:space="preserve" x="32.2676" y="57.8333" fill="black" font-size="12.8453" font-family="Helvetica">0.01</text>
<g transform="rotate(-90,11.0892,114.037)">
<text xml:space="preserve" x="11.0892" y="114.037" fill="black" font-size="12.8453" font-family="Helvetica">Concentration</text>
</g>
<path d="M77.8085,316.715h 412.312" fill="none" stroke="#ff0000" fill-opacity="0.10" stroke-opacity="0.10" stroke-width="3" stroke-dasharray=" 20, 5"/>
<path d="M77.8085,316.715h 412.312" fill="none" stroke="#ff0000" fill-opacity="0.10" stroke-opacity="0.10" stroke-width="3" stroke-dasharray=" 20, 5"/>
<path d="M77.8085,52.9538h 412.312" fill="none" stroke="#00ff00" fill-opacity="0.10" stroke-opacity="0.10" stroke-width="2" stroke-dasharray=" 1, 2"/>
<path d="M77.8085,52.9538h 412.312" fill="none" stroke="#00ff00" fill-opacity="0.10" stroke-opacity="0.10" stroke-width="2" stroke-dasharray=" 1, 2"/>
<path d="M77.8085,316.715h 412.312" fill="none" stroke="#0000ff" fill-opacity="0.10" stroke-opacity="0.10" stroke-width="3" stroke-dasharray=" 20, 10, 1, 10"/>
<path d="M77.8085,316.715h 412.312" fill="none" stroke="#0000ff" fill-opacity="0.10" stroke-opacity="0.10" stroke-width="3" stroke-dasharray=" 20, 10, 1, 10"/>
<path d="M77.8085,52.9538h 412.312" fill="none" stroke="#5954d8" fill-opacity="0.10" stroke-opacity="0.10" stroke-width="2" stroke-dasharray=" 3, 3"/>
<path d="M77.8085,52.9538h 412.312" fill="none" stroke="#5954d8" fill-opacity="0.10" stroke-opacity="0.10" stroke-width="2" stroke-dasharray=" 3, 3"/>
<path d="M77.8085,343.092h 412.312" fill="none" stroke="#59d354" fill-opacity="0.10" stroke-opacity="0.10" stroke-width="3"/>
<path d="M77.8085,343.092h 412.312" fill="none" stroke="#59d354" fill-opacity="0.10" stroke-opacity="0.10" stroke-width="3"/>
<path d="M77.8085,316.715h 412.312" fill="none" stroke="#ff0000" fill-opacity="0.10" stroke-opacity="0.10" stroke-width="3" stroke-dasharray=" 20, 5"/>
<path d="M77.8085,316.715h 412.312" fill="none" stroke="#ff0000" fill-opacity="0.10" stroke-opacity="0.10" stroke-width="3" stroke-dasharray=" 20, 5"/>
<path d="M77.8085,52.9538h 412.312" fill="none" stroke="#00ff00" fill-opacity="0.10" stroke-opacity="0.10" stroke-width="2" stroke-dasharray=" 1, 2"/>
<path d="M77.8085,52.9538h 412.312" fill="none" stroke="#00ff00" fill-opacity="0.10" stroke-opacity="0.10" stroke-width="2" stroke-dasharray=" 1, 2"/>
<path d="M77.8085,316.715h 412.312" fill="none" stroke="#0000ff" fill-opacity="0.10" stroke-opacity="0.10" stroke-width="3" stroke-dasharray=" 20, 10, 1, 10"/>
<path d="M77.8085,316.715h 412.312" fill="none" stroke="#0000ff" fill-opacity="0.10" stroke-opacity="0.10" stroke-width="3" stroke-dasharray=" 20, 10, 1, 10"/>
<path d="M77.8085,52.9538h 412.312" fill="none" stroke="#5954d8" fill-opacity="0.10" stroke-opacity="0.10" stroke-width="2" stroke-dasharray=" 3, 3"/>
<path d="M77.8085,52.9538h 412.312" fill="none" stroke="#5954d8" fill-opacity="0.10" stroke-opacity="0.10" stroke-width="2" stroke-dasharray=" 3, 3"/>
<path d="M77.8085,343.092h 412.312" fill="none" stroke="#59d354" fill-opacity="0.10" stroke-opacity="0.10" stroke-width="3"/>
<path d="M77.8085,343.092h 412.312" fill="none" stroke="#59d354" fill-opacity="0.10" stroke-opacity="0.10" stroke-width="3"/>
<path d="M77.8085,316.715h 412.312" fill="none" stroke="#ff0000" fill-opacity="0.10" stroke-opacity="0.10" stroke-width="3" stroke-dasharray=" 20, 5"/>
<path d="M77.8085,316.715h 412.312" fill="none" stroke="#ff0000" fill-opacity="0.10" stroke-opacity="0.10" stroke-width="3" stroke-dasharray=" 20, 5"/>
<path d="M77.8085,52.9538h 412.312" fill="none" stroke="#00ff00" fill-opacity="0.10" stroke-opacity="0.10" stroke-width="2" stroke-dasharray=" 1, 2"/>
<path d="M77.8085,52.9538h 412.312" fill="none" stroke="#00ff00" fill-opacity="0.10" stroke-opacity="0.10" stroke-width="2" stroke-dasharray=" 1, 2"/>
<path d="M77.8085,316.715h 412.312" fill="none" stroke="#0000ff" fill-opacity="0.10" stroke-opacity="0.10" stroke-width="3" stroke-dasharray=" 20, 10, 1, 10"/>
<path d="M77.8085,316.715h 412.312" fill="none" stroke="#0000ff" fill-opacity="0.10" stroke-opacity="0.10" stroke-width="3" stroke-dasharray=" 20, 10, 1, 10"/>
<path d="M77.8085,52.9538h 412.312" fill="none" stroke="#5954d8" fill-opacity="0.10" stroke-opacity="0.10" stroke-width="2" stroke-dasharray=" 3, 3"/>
<path d="M77.8085,52.9538h 412.312" fill="none" stroke="#5954d8" fill-opacity="0.10" stroke-opacity="0.10" stroke-width="2" stroke-dasharray=" 3, 3"/>
<path d="M77.8085,343.092h 412.312" fill="none" stroke="#59d354" fill-opacity="0.10" stroke-opacity="0.10" stroke-width="3"/>
<path d="M77.8085,343.092h 412.312" fill="none" stroke="#59d354" fill-opacity="0.10" stroke-opacity="0.10" stroke-width="3"/>
<path d="M77.8085,316.715h 412.312" fill="none" stroke="#ff0000" fill-opacity="0.10" stroke-opacity="0.10" stroke-width="3" stroke-dasharray=" 20, 5"/>
<path d="M77.8085,316.715h 412.312" fill="none" stroke="#ff0000" fill-opacity="0.10" stroke-opacity="0.10" stroke-width="3" stroke-dasharray=" 20, 5"/>
<path d="M77.8085,52.9538h 412.312" fill="none" stroke="#00ff00" fill-opacity="0.10" stroke-opacity="0.10" stroke-width="2" stroke-dasharray=" 1, 2"/>
<path d="M77.8085,52.9538h 412.312" fill="none" stroke="#00ff00" fill-opacity="0.10" stroke-opacity="0.10" stroke-width="2" stroke-dasharray=" 1, 2"/>
<path d="M77.8085,316.715h 412.312" fill="none" stroke="#0000ff" fill-opacity="0.10" stroke-opacity="0.10" stroke-width="3" stroke-dasharray=" 20, 10, 1, 10"/>
<path d="M77.8085,316.715h 412.312" fill="none" stroke="#0000ff" fill-opacity="0.10" stroke-opacity="0.10" stroke-width="3" stroke-dasharray=" 20, 10, 1, 10"/>
<path d="M77.8085,52.9538h 412.312" fill="none" stroke="#5954d8" fill-opacity="0.10" stroke-opacity="0.10" stroke-width="2" stroke-dasharray=" 3, 3"/>
<path d="M77.8085,52.9538h 412.312" fill="none" stroke="#5954d8" fill-opacity="0.10" stroke-opacity="0.10" stroke-width="2" stroke-dasharray=" 3, 3"/>
<path d="M77.8085,343.092h 412.312" fill="none" stroke="#59d354" fill-opacity="0.10" stroke-opacity="0.10" stroke-width="3"/>
<path d="M77.8085,343.092h 412.312" fill="none" stroke="#59d354" fill-opacity="0.10" stroke-opacity="0.10" stroke-width="3"/>
<path d="M77.8085,316.715h 412.312" fill="none" stroke="#ff0000" fill-opacity="0.10" stroke-opacity="0.10" stroke-width="3" stroke-dasharray=" 20, 5"/>
<path d="M77.8085,316.715h 412.312" fill="none" stroke="#ff0000" fill-opacity="0.10" stroke-opacity="0.10" stroke-width="3" stroke-dasharray=" 20, 5"/>
<path d="M77.8085,52.9538h 412.312" fill="none" stroke="#00ff00" fill-opacity="0.10" stroke-opacity="0.10" stroke-width="2" stroke-dasharray=" 1, 2"/>
<path d="M77.8085,52.9538h 412.312" fill="none" stroke="#00ff00" fill-opacity="0.10" stroke-opacity="0.10" stroke-width="2" stroke-dasharray=" 1, 2"/>
<path d="M77.8085,316.715h 412.312" fill="none" stroke="#0000ff" fill-opacity="0.10" stroke-opacity="0.10" stroke-width="3" stroke-dasharray=" 20, 10, 1, 10"/>
<path d="M77.8085,316.715h 412.312" fill="none" stroke="#0000ff" fill-opacity="0.10" stroke-opacity="0.10" stroke-width="3" stroke-dasharray=" 20, 10, 1, 10"/>
<path d="M77.8085,52.9538h 412.312" fill="none" stroke="#5954d8" fill-opacity="0.10" stroke-opacity="0.10" stroke-width="2" stroke-dasharray=" 3, 3"/>
<path d="M77.8085,52.9538h 412.312" fill="none" stroke="#5954d8" fill-opacity="0.10" stroke-opacity="0.10" stroke-width="2" stroke-dasharray=" 3, 3"/>
<path d="M77.8085,343.092h 412.312" fill="none" stroke="#59d354" fill-opacity="0.10" stroke-opacity="0.10" stroke-width="3"/>
<path d="M77.8085,343.092h 412.312" fill="none" stroke="#59d354" fill-opacity="0.10" stroke-opacity="0.10" stroke-width="3"/>
<path d="M77.8085,316.715h 412.312" fill="none" stroke="#ff0000" fill-opacity="0.10" stroke-opacity="0.10" stroke-width="3" stroke-dasharray=" 20, 5"/>
<path d="M77.8085,316.715h 412.312" fill="none" stroke="#ff0000" fill-opacity="0.10" stroke-opacity="0.10" stroke-width="3" stroke-dasharray=" 20, 5"/>
<path d="M77.8085,52.9538h 412.312" fill="none" stroke="#00ff00" fill-opacity="0.10" stroke-opacity="0.10" stroke-width="2" stroke-dasharray=" 1, 2"/>
<path d="M77.8085,52.9538h 412.312" fill="none" stroke="#00ff00" fill-opacity="0.10" stroke-opacity="0.10" stroke-width="2" stroke-dasharray=" 1, 2"/>
<path d="M77.8085,316.715h 412.312" fill="none" stroke="#0000ff" fill-opacity="0.10" stroke-opacity="0.10" stroke-width="3" stroke-dasharray=" 20, 10, 1, 10"/>
<path d="M77.8085,316.715h 412.312" fill="none" stroke="#0000ff" fill-opacity="0.10" stroke-opacity="0.10" stroke-width="3" stroke-dasharray=" 20, 10, 1, 10"/>
<path d="M77.8085,52.9538h 412.312" fill="none" stroke="#5954d8" fill-opacity="0.10" stroke-opacity="0.10" stroke-width="2" stroke-dasharray=" 3, 3"/>
<path d="M77.8085,52.9538h 412.312" fill="none" stroke="#5954d8" fill-opacity="0.10" stroke-opacity="0.10" stroke-width="2" stroke-dasharray=" 3, 3"/>
<path d="M77.8085,343.092h 412.312" fill="none" stroke="#59d354" fill-opacity="0.10" stroke-opacity="0.10" stroke-width="3"/>
<path d="M77.8085,343.092h 412.312" fill="none" stroke="#59d354" fill-opacity="0.10" stroke-opacity="0.10" stroke-width="3"/>
<path d="M77.8085,316.715h 412.312" fill="none" stroke="#ff0000" fill-opacity="0.10" stroke-opacity="0.10" stroke-width="3" stroke-dasharray=" 20, 5"/>
<path d="M77.8085,316.715h 412.312" fill="none" stroke="#ff0000" fill-opacity="0.10" stroke-opacity="0.10" stroke-width="3" stroke-dasharray=" 20, 5"/>
<path d="M77.8085,52.9538h 412.312" fill="none" stroke="#00ff00" fill-opacity="0.10" stroke-opacity="0.10" stroke-width="2" stroke-dasharray=" 1, 2"/>
<path d="M77.8085,52.9538h 412.312" fill="none" stroke="#00ff00" fill-opacity="0.10" stroke-opacity="0.10" stroke-width="2" stroke-dasharray=" 1, 2"/>
<path d="M77.8085,316.715h 412.312" fill="none" stroke="#0000ff" fill-opacity="0.10" stroke-opacity="0.10" stroke-width="3" stroke-dasharray=" 20, 10, 1, 10"/>
<path d="M77.8085,316.715h 412.312" fill="none" stroke="#0000ff" fill-opacity="0.10" stroke-opacity="0.10" stroke-width="3" stroke-dasharray=" 20, 10, 1, 10"/>
<path d="M77.8085,52.9538h 412.312" fill="none" stroke="#5954d8" fill-opacity="0.10" stroke-opacity="0.10" stroke-width="2" stroke-dasharray=" 3, 3"/>
<path d="M77.8085,52.9538h 412.312" fill="none" stroke="#5954d8" fill-opacity="0.10" stroke-opacity="0.10" stroke-width="2" stroke-dasharray=" 3, 3"/>
<path d="M77.8085,343.092h 412.312" fill="none" stroke="#59d354" fill-opacity="0.10" stroke-opacity="0.10" stroke-width="3"/>
<path d="M77.8085,343.092h 412.312" fill="none" stroke="#59d354" fill-opacity="0.10" stroke-opacity="0.10" stroke-width="3"/>
<path d="M77.8085,316.715h 412.312" fill="none" stroke="#ff0000" fill-opacity="0.10" stroke-opacity="0.10" stroke-width="3" stroke-dasharray=" 20, 5"/>
<path d="M77.8085,316.715h 412.312" fill="none" stroke="#ff0000" fill-opacity="0.10" stroke-opacity="0.10" stroke-width="3" stroke-dasharray=" 20, 5"/>
<path d="M77.8085,52.9538h 412.312" fill="none" stroke="#00ff00" fill-opacity="0.10" stroke-opacity="0.10" stroke-width="2" stroke-dasharray=" 1, 2"/>
<path d="M77.8085,52.9538h 412.312" fill="none" stroke="#00ff00" fill-opacity="0.10" stroke-opacity="0.10" stroke-width="2" stroke-dasharray=" 1, 2"/>
<path d="M77.8085,316.715h 412.312" fill="none" stroke="#0000ff" fill-opacity="0.10" stroke-opacity="0.10" stroke-width="3" stroke-dasharray=" 20, 10, 1, 10"/>
<path d="M77.8085,316.715h 412.312" fill="none" stroke="#0000ff" fill-opacity="0.10" stroke-opacity="0.10" stroke-width="3" stroke-dasharray=" 20, 10, 1, 10"/>
<path d="M77.8085,52.9538h 412.312" fill="none" stroke="#5954d8" fill-opacity="0.10" stroke-opacity="0.10" stroke-width="2" stroke-dasharray=" 3, 3"/>
<path d="M77.8085,52.9538h 412.312" fill="none" stroke="#5954d8" fill-opacity="0.10" stroke-opacity="0.10" stroke-width="2" stroke-dasharray=" 3, 3"/>
<path d="M77.8085,343.092h 412.312" fill="none" stroke="#59d354" fill-opacity="0.10" stroke-opacity="0.10" stroke-width="3"/>
<path d="M77.8085,343.092h 412.312" fill="none" stroke="#59d354" fill-opacity="0.10" stroke-opacity="0.10" stroke-width="3"/>
<path d="M77.8085,316.715h 412.312" fill="none" stroke="#ff0000" fill-opacity="0.10" stroke-opacity="0.10" stroke-width="3" stroke-dasharray=" 20, 5"/>
<path d="M77.8085,316.715h 412.312" fill="none" stroke="#ff0000" fill-opacity="0.10" stroke-opacity="0.10" stroke-width="3" stroke-dasharray=" 20, 5"/>
<path d="M77.8085,52.9538h 412.312" fill="none" stroke="#00ff00" fill-opacity="0.10" stroke-opacity="0.10" stroke-width="2" stroke-dasharray=" 1, 2"/>
<path d="M77.8085,52.9538h 412.312" fill="none" stroke="#00ff00" fill-opacity="0.10" stroke-opacity="0.10" stroke-width="2" stroke-dasharray=" 1, 2"/>
<path d="M77.8085,316.715h 412.312" fill="none" stroke="#0000ff" fill-opacity="0.10" stroke-opacity="0.10" stroke-width="3" stroke-dasharray=" 20, 10, 1, 10"/>
<path d="M77.8085,316.715h 412.312" fill="none" stroke="#0000ff" fill-opacity="0.10" stroke-opacity="0.10" stroke-width="3" stroke-dasharray=" 20, 10, 1, 10"/>
<path d="M77.8085,52.9538h 412.312" fill="none" stroke="#5954d8" fill-opacity="0.10" stroke-opacity="0.10" stroke-width="2" stroke-dasharray=" 3, 3"/>
<path d="M77.8085,52.9538h 412.312" fill="none" stroke="#5954d8" fill-opacity="0.10" stroke-opacity="0.10" stroke-width="2" stroke-dasharray=" 3, 3"/>
<path d="M77.8085,343.092h 412.312" fill="none" stroke="#59d354" fill-opacity="0.10" stroke-opacity="0.10" stroke-width="3"/>
<path d="M77.8085,343.092h 412.312" fill="none" stroke="#59d354" fill-opacity="0.10" stroke-opacity="0.10" stroke-width="3"/>
<path d="M77.8085,316.715h 412.312" fill="none" stroke="#ff0000" fill-opacity="0.10" stroke-opacity="0.10" stroke-width="3" stroke-dasharray=" 20, 5"/>
<path d="M77.8085,316.715h 412.312" fill="none" stroke="#ff0000" fill-opacity="0.10" stroke-opacity="0.10" stroke-width="3" stroke-dasharray=" 20, 5"/>
<path d="M77.8085,52.9538h 412.312" fill="none" stroke="#00ff00" fill-opacity="0.10" stroke-opacity="0.10" stroke-width="2" stroke-dasharray=" 1, 2"/>
<path d="M77.8085,52.9538h 412.312" fill="none" stroke="#00ff00" fill-opacity="0.10" stroke-opacity="0.10" stroke-width="2" stroke-dasharray=" 1, 2"/>
<path d="M77.8085,316.715h 412.312" fill="none" stroke="#0000ff" fill-opacity="0.10" stroke-opacity="0.10" stroke-width="3" stroke-dasharray=" 20, 10, 1, 10"/>
<path d="M77.8085,316.715h 412.312" fill="none" stroke="#0000ff" fill-opacity="0.10" stroke-opacity="0.10" stroke-width="3" stroke-dasharray=" 20, 10, 1, 10"/>
<path d="M77.8085,52.9538h 412.312" fill="none" stroke="#5954d8" fill-opacity="0.10" stroke-opacity="0.10" stroke-width="2" stroke-dasharray=" 3, 3"/>
<path d="M77.8085,52.9538h 412.312" fill="none" stroke="#5954d8" fill-opacity="0.10" stroke-opacity="0.10" stroke-width="2" stroke-dasharray=" 3, 3"/>
<path d="M77.8085,343.092h 412.312" fill="none" stroke="#59d354" fill-opacity="0.10" stroke-opacity="0.10" stroke-width="3"/>
<path d="M77.8085,343.092h 412.312" fill="none" stroke="#59d354" fill-opacity="0.10" stroke-opacity="0.10" stroke-width="3"/>
<text xml:space="preserve" x="248.124" y="18.7347" fill="black" font-size="18.7938" font-family="Helvetica">Gillespie</text></svg>
