<?xml version="1.0" standalone="no"?>
<svg width="567.429" height="384.969" viewBox="0 0 567.429 384.969" xmlns="http://www.w3.org/2000/svg" shape-rendering="crispEdges">
<title>
sbml-modules.svg
</title>
<desc>
Creator: ROOT Version 6.18/04
CreationDate: Thu Feb 27 16:51:26 2020</desc>
<defs>
</defs>
<rect x="0.5" y="0" width="566.929" height="384.469" fill="white"/>
<rect x="57.1929" y="38.4469" width="453.543" height="307.575" fill="white"/>
<rect x="57.1929" y="38.4469" width="453.543" height="307.575" fill="none" stroke="black"/>
<rect x="57.1929" y="38.4469" width="453.543" height="307.575" fill="white"/>
<rect x="57.1929" y="38.4469" width="453.543" height="307.575" fill="none" stroke="black"/>
<path d="M57.1929,346.022h 453.543" fill="none" stroke="black"/>
<path d="M77.8085,38.4469v 307.575" fill="none" stroke="black" stroke-dasharray=" 1, 2"/>
<path d="M161.104,38.4469v 307.575" fill="none" stroke="black" stroke-dasharray=" 1, 2"/>
<path d="M244.399,38.4469v 307.575" fill="none" stroke="black" stroke-dasharray=" 1, 2"/>
<path d="M327.695,38.4469v 307.575" fill="none" stroke="black" stroke-dasharray=" 1, 2"/>
<path d="M410.99,38.4469v 307.575" fill="none" stroke="black" stroke-dasharray=" 1, 2"/>
<path d="M494.285,38.4469v 307.575" fill="none" stroke="black" stroke-dasharray=" 1, 2"/>
<path d="M77.8085,38.4469v 307.575" fill="none" stroke="black" stroke-dasharray=" 1, 2"/>
<path d="M494.285,38.4469v 307.575" fill="none" stroke="black" stroke-dasharray=" 1, 2"/>
<path d="M57.1929,346.022v -307.575" fill="none" stroke="black"/>
<path d="M510.736,346.022h -453.543" fill="none" stroke="black" stroke-dasharray=" 1, 2"/>
<path d="M510.736,319.946h -453.543" fill="none" stroke="black" stroke-dasharray=" 1, 2"/>
<path d="M510.736,293.869h -453.543" fill="none" stroke="black" stroke-dasharray=" 1, 2"/>
<path d="M510.736,267.793h -453.543" fill="none" stroke="black" stroke-dasharray=" 1, 2"/>
<path d="M510.736,241.717h -453.543" fill="none" stroke="black" stroke-dasharray=" 1, 2"/>
<path d="M510.736,215.64h -453.543" fill="none" stroke="black" stroke-dasharray=" 1, 2"/>
<path d="M510.736,189.564h -453.543" fill="none" stroke="black" stroke-dasharray=" 1, 2"/>
<path d="M510.736,163.487h -453.543" fill="none" stroke="black" stroke-dasharray=" 1, 2"/>
<path d="M510.736,137.411h -453.543" fill="none" stroke="black" stroke-dasharray=" 1, 2"/>
<path d="M510.736,111.334h -453.543" fill="none" stroke="black" stroke-dasharray=" 1, 2"/>
<path d="M510.736,85.258h -453.543" fill="none" stroke="black" stroke-dasharray=" 1, 2"/>
<path d="M510.736,59.1816h -453.543" fill="none" stroke="black" stroke-dasharray=" 1, 2"/>
<path d="M510.736,59.1816h -453.543" fill="none" stroke="black" stroke-dasharray=" 1, 2"/>
<path d="M57.1929,346.022h 453.543" fill="none" stroke="black"/>
<path d="M77.8085,336.795v 9.22726" fill="none" stroke="black"/>
<path d="M94.4676,341.409v 4.61363" fill="none" stroke="black"/>
<path d="M111.127,341.409v 4.61363" fill="none" stroke="black"/>
<path d="M127.786,341.409v 4.61363" fill="none" stroke="black"/>
<path d="M144.445,341.409v 4.61363" fill="none" stroke="black"/>
<path d="M161.104,336.795v 9.22726" fill="none" stroke="black"/>
<path d="M177.763,341.409v 4.61363" fill="none" stroke="black"/>
<path d="M194.422,341.409v 4.61363" fill="none" stroke="black"/>
<path d="M211.081,341.409v 4.61363" fill="none" stroke="black"/>
<path d="M227.74,341.409v 4.61363" fill="none" stroke="black"/>
<path d="M244.399,336.795v 9.22726" fill="none" stroke="black"/>
<path d="M261.058,341.409v 4.61363" fill="none" stroke="black"/>
<path d="M277.717,341.409v 4.61363" fill="none" stroke="black"/>
<path d="M294.376,341.409v 4.61363" fill="none" stroke="black"/>
<path d="M311.036,341.409v 4.61363" fill="none" stroke="black"/>
<path d="M327.695,336.795v 9.22726" fill="none" stroke="black"/>
<path d="M344.354,341.409v 4.61363" fill="none" stroke="black"/>
<path d="M361.013,341.409v 4.61363" fill="none" stroke="black"/>
<path d="M377.672,341.409v 4.61363" fill="none" stroke="black"/>
<path d="M394.331,341.409v 4.61363" fill="none" stroke="black"/>
<path d="M410.99,336.795v 9.22726" fill="none" stroke="black"/>
<path d="M427.649,341.409v 4.61363" fill="none" stroke="black"/>
<path d="M444.308,341.409v 4.61363" fill="none" stroke="black"/>
<path d="M460.967,341.409v 4.61363" fill="none" stroke="black"/>
<path d="M477.626,341.409v 4.61363" fill="none" stroke="black"/>
<path d="M494.285,336.795v 9.22726" fill="none" stroke="black"/>
<path d="M77.8085,336.795v 9.22726" fill="none" stroke="black"/>
<path d="M61.1494,341.409v 4.61363" fill="none" stroke="black"/>
<path d="M494.285,336.795v 9.22726" fill="none" stroke="black"/>
<text xml:space="preserve" x="73.8098" y="358.403" fill="black" font-size="12.8453" font-family="Helvetica">0</text>
<text xml:space="preserve" x="153.636" y="358.403" fill="black" font-size="12.8453" font-family="Helvetica">10</text>
<text xml:space="preserve" x="236.72" y="358.403" fill="black" font-size="12.8453" font-family="Helvetica">20</text>
<text xml:space="preserve" x="319.805" y="358.403" fill="black" font-size="12.8453" font-family="Helvetica">30</text>
<text xml:space="preserve" x="402.889" y="358.403" fill="black" font-size="12.8453" font-family="Helvetica">40</text>
<text xml:space="preserve" x="486.788" y="358.403" fill="black" font-size="12.8453" font-family="Helvetica">50</text>
<text xml:space="preserve" x="459.908" y="371.436" fill="black" font-size="12.8453" font-family="Helvetica">Timestep</text>
<path d="M57.1929,346.022v -307.575" fill="none" stroke="black"/>
<path d="M70.7992,346.022h -13.6063" fill="none" stroke="black"/>
<path d="M63.9961,339.503h -6.80315" fill="none" stroke="black"/>
<path d="M63.9961,332.984h -6.80315" fill="none" stroke="black"/>
<path d="M63.9961,326.465h -6.80315" fill="none" stroke="black"/>
<path d="M70.7992,319.946h -13.6063" fill="none" stroke="black"/>
<path d="M63.9961,313.427h -6.80315" fill="none" stroke="black"/>
<path d="M63.9961,306.908h -6.80315" fill="none" stroke="black"/>
<path d="M63.9961,300.389h -6.80315" fill="none" stroke="black"/>
<path d="M70.7992,293.869h -13.6063" fill="none" stroke="black"/>
<path d="M63.9961,287.35h -6.80315" fill="none" stroke="black"/>
<path d="M63.9961,280.831h -6.80315" fill="none" stroke="black"/>
<path d="M63.9961,274.312h -6.80315" fill="none" stroke="black"/>
<path d="M70.7992,267.793h -13.6063" fill="none" stroke="black"/>
<path d="M63.9961,261.274h -6.80315" fill="none" stroke="black"/>
<path d="M63.9961,254.755h -6.80315" fill="none" stroke="black"/>
<path d="M63.9961,248.236h -6.80315" fill="none" stroke="black"/>
<path d="M70.7992,241.717h -13.6063" fill="none" stroke="black"/>
<path d="M63.9961,235.197h -6.80315" fill="none" stroke="black"/>
<path d="M63.9961,228.678h -6.80315" fill="none" stroke="black"/>
<path d="M63.9961,222.159h -6.80315" fill="none" stroke="black"/>
<path d="M70.7992,215.64h -13.6063" fill="none" stroke="black"/>
<path d="M63.9961,209.121h -6.80315" fill="none" stroke="black"/>
<path d="M63.9961,202.602h -6.80315" fill="none" stroke="black"/>
<path d="M63.9961,196.083h -6.80315" fill="none" stroke="black"/>
<path d="M70.7992,189.564h -13.6063" fill="none" stroke="black"/>
<path d="M63.9961,183.045h -6.80315" fill="none" stroke="black"/>
<path d="M63.9961,176.525h -6.80315" fill="none" stroke="black"/>
<path d="M63.9961,170.006h -6.80315" fill="none" stroke="black"/>
<path d="M70.7992,163.487h -13.6063" fill="none" stroke="black"/>
<path d="M63.9961,156.968h -6.80315" fill="none" stroke="black"/>
<path d="M63.9961,150.449h -6.80315" fill="none" stroke="black"/>
<path d="M63.9961,143.93h -6.80315" fill="none" stroke="black"/>
<path d="M70.7992,137.411h -13.6063" fill="none" stroke="black"/>
<path d="M63.9961,130.892h -6.80315" fill="none" stroke="black"/>
<path d="M63.9961,124.373h -6.80315" fill="none" stroke="black"/>
<path d="M63.9961,117.854h -6.80315" fill="none" stroke="black"/>
<path d="M70.7992,111.334h -13.6063" fill="none" stroke="black"/>
<path d="M63.9961,104.815h -6.80315" fill="none" stroke="black"/>
<path d="M63.9961,98.2962h -6.80315" fill="none" stroke="black"/>
<path d="M63.9961,91.7771h -6.80315" fill="none" stroke="black"/>
<path d="M70.7992,85.258h -13.6063" fill="none" stroke="black"/>
<path d="M63.9961,78.7389h -6.80315" fill="none" stroke="black"/>
<path d="M63.9961,72.2198h -6.80315" fill="none" stroke="black"/>
<path d="M63.9961,65.7007h -6.80315" fill="none" stroke="black"/>
<path d="M70.7992,59.1816h -13.6063" fill="none" stroke="black"/>
<path d="M70.7992,59.1816h -13.6063" fill="none" stroke="black"/>
<path d="M63.9961,52.6625h -6.80315" fill="none" stroke="black"/>
<path d="M63.9961,46.1434h -6.80315" fill="none" stroke="black"/>
<path d="M63.9961,39.6243h -6.80315" fill="none" stroke="black"/>
<text xml:space="preserve" x="47.7441" y="350.258" fill="black" font-size="12.8453" font-family="Helvetica">0</text>
<text xml:space="preserve" x="16.7911" y="324.192" fill="black" font-size="12.8453" font-family="Helvetica">0.0002</text>
<text xml:space="preserve" x="16.7911" y="298.127" fill="black" font-size="12.8453" font-family="Helvetica">0.0004</text>
<text xml:space="preserve" x="16.7911" y="272.061" fill="black" font-size="12.8453" font-family="Helvetica">0.0006</text>
<text xml:space="preserve" x="16.7911" y="245.995" fill="black" font-size="12.8453" font-family="Helvetica">0.0008</text>
<text xml:space="preserve" x="25.7512" y="219.929" fill="black" font-size="12.8453" font-family="Helvetica">0.001</text>
<text xml:space="preserve" x="16.7911" y="193.864" fill="black" font-size="12.8453" font-family="Helvetica">0.0012</text>
<text xml:space="preserve" x="16.7911" y="167.798" fill="black" font-size="12.8453" font-family="Helvetica">0.0014</text>
<text xml:space="preserve" x="16.7911" y="141.732" fill="black" font-size="12.8453" font-family="Helvetica">0.0016</text>
<text xml:space="preserve" x="16.7911" y="115.667" fill="black" font-size="12.8453" font-family="Helvetica">0.0018</text>
<text xml:space="preserve" x="23.3075" y="89.6009" fill="black" font-size="12.8453" font-family="Helvetica">0.002</text>
<text xml:space="preserve" x="16.7911" y="63.5352" fill="black" font-size="12.8453" font-family="Helvetica">0.0022</text>
<g transform="rotate(-90,5.38732,114.037)">
<text xml:space="preserve" x="5.38732" y="114.037" fill="black" font-size="12.8453" font-family="Helvetica">Concentration</text>
</g>
<path d="M77.8085,84.7153l 4.16477, -1.93918l 4.16477, -1.89783l 4.16477, -1.85445l 4.16477, -1.80927l 4.16477, -1.76221l 4.16477, -1.71322l 4.16477, -1.66222l 4.16477, -1.60915l 4.16477, -1.55394l 4.16477, -1.49652l 4.16477, -1.43683l 4.16477,
 -1.3748l 4.16477, -1.31038l 4.16477, -1.24352l 4.16477, -1.17417l 4.16477, -1.10228l 4.16477, -1.02783l 4.16477, -0.950783l 4.16477, -0.871129l 4.16477, -0.788859l 4.16477, -0.703977l 4.16477, -0.616503l 4.16477, -0.526467l 4.16477, -0.433918l
 4.16477, -0.33892l 4.16477, -0.241553l 4.16477, -0.141919l 4.16477, -0.0401385l 4.16477, 0.0636482l 4.16477, 0.169279l 4.16477, 0.276571l 4.16477, 0.385318l 4.16477, 0.495293l 4.16477, 0.606246l 4.16477, 0.717907l 4.16477, 0.829987l 4.16477,
 0.942176l 4.16477, 1.05415l 4.16477, 1.16557l 4.16477, 1.27607l 4.16477, 1.38531l 4.16477, 1.4929l 4.16477, 1.59848l 4.16477, 1.70168l 4.16477, 1.80212l 4.16477, 1.89944l 4.16477, 1.99331l 4.16477, 2.08337l 4.16477, 2.16933l 4.16477, 2.25088l
 4.16477, 2.32777l 4.16477, 2.39976l 4.16477, 2.46663l 4.16477, 2.52823l 4.16477, 2.5844l 4.16477, 2.63506l 4.16477, 2.68012l 4.16477, 2.71957l 4.16477, 2.75341l 4.16477, 2.78168l 4.16477, 2.80444l 4.16477, 2.8218l 4.16477, 2.8339l 4.16477, 2.84089l
 4.16477, 2.84294l 4.16477, 2.84027l 4.16477, 2.83309l 4.16477, 2.82163l 4.16477, 2.80613l 4.16477, 2.78685l 4.16477, 2.76405l 4.16477, 2.73798l 4.16477, 2.70891l 4.16477, 2.67711l 4.16477, 2.64281l 4.16477, 2.60629l 4.16477, 2.56778l 4.16477,
 2.52751l 4.16477, 2.48573l 4.16477, 2.44263l 4.16477, 2.39844l 4.16477, 2.35334l 4.16477, 2.30752l 4.16477, 2.26116l 4.16477, 2.2144l 4.16477, 2.16741l 4.16477, 2.12031l 4.16477, 2.07323l 4.16477, 2.0263l 4.16477, 1.97961l 4.16477, 1.93325l 4.16477,
 1.88732l 4.16477, 1.8419l 4.16477, 1.79703l 4.16477, 1.7528l 4.16477, 1.70924l 4.16477, 1.66641l 4.16477, 1.62434l 4.16477, 1.58307" fill="none" stroke="#ff0000" fill-opacity="0.50" stroke-opacity="0.50" stroke-width="3"/>
<path d="M77.8085,84.7153l 4.16477, -1.93918l 4.16477, -1.89783l 4.16477, -1.85445l 4.16477, -1.80927l 4.16477, -1.76221l 4.16477, -1.71322l 4.16477, -1.66222l 4.16477, -1.60915l 4.16477, -1.55394l 4.16477, -1.49652l 4.16477, -1.43683l 4.16477,
 -1.3748l 4.16477, -1.31038l 4.16477, -1.24352l 4.16477, -1.17417l 4.16477, -1.10228l 4.16477, -1.02783l 4.16477, -0.950783l 4.16477, -0.871129l 4.16477, -0.788859l 4.16477, -0.703977l 4.16477, -0.616503l 4.16477, -0.526467l 4.16477, -0.433918l
 4.16477, -0.33892l 4.16477, -0.241553l 4.16477, -0.141919l 4.16477, -0.0401385l 4.16477, 0.0636482l 4.16477, 0.169279l 4.16477, 0.276571l 4.16477, 0.385318l 4.16477, 0.495293l 4.16477, 0.606246l 4.16477, 0.717907l 4.16477, 0.829987l 4.16477,
 0.942176l 4.16477, 1.05415l 4.16477, 1.16557l 4.16477, 1.27607l 4.16477, 1.38531l 4.16477, 1.4929l 4.16477, 1.59848l 4.16477, 1.70168l 4.16477, 1.80212l 4.16477, 1.89944l 4.16477, 1.99331l 4.16477, 2.08337l 4.16477, 2.16933l 4.16477, 2.25088l
 4.16477, 2.32777l 4.16477, 2.39976l 4.16477, 2.46663l 4.16477, 2.52823l 4.16477, 2.5844l 4.16477, 2.63506l 4.16477, 2.68012l 4.16477, 2.71957l 4.16477, 2.75341l 4.16477, 2.78168l 4.16477, 2.80444l 4.16477, 2.8218l 4.16477, 2.8339l 4.16477, 2.84089l
 4.16477, 2.84294l 4.16477, 2.84027l 4.16477, 2.83309l 4.16477, 2.82163l 4.16477, 2.80613l 4.16477, 2.78685l 4.16477, 2.76405l 4.16477, 2.73798l 4.16477, 2.70891l 4.16477, 2.67711l 4.16477, 2.64281l 4.16477, 2.60629l 4.16477, 2.56778l 4.16477,
 2.52751l 4.16477, 2.48573l 4.16477, 2.44263l 4.16477, 2.39844l 4.16477, 2.35334l 4.16477, 2.30752l 4.16477, 2.26116l 4.16477, 2.2144l 4.16477, 2.16741l 4.16477, 2.12031l 4.16477, 2.07323l 4.16477, 2.0263l 4.16477, 1.97961l 4.16477, 1.93325l 4.16477,
 1.88732l 4.16477, 1.8419l 4.16477, 1.79703l 4.16477, 1.7528l 4.16477, 1.70924l 4.16477, 1.66641l 4.16477, 1.62434l 4.16477, 1.58307" fill="none" stroke="#ff0000" fill-opacity="0.50" stroke-opacity="0.50" stroke-width="3"/>
<path d="M77.8085,214.578l 4.16477, -0.998206l 4.16477, -0.978628l 4.16477, -0.958246l 4.16477, -0.937017l 4.16477, -0.914906l 4.16477, -0.891885l 4.16477, -0.867922l 4.16477, -0.842981l 4.16477, -0.817032l 4.16477, -0.790039l 4.16477, -0.761973l
 4.16477, -0.732799l 4.16477, -0.702491l 4.16477, -0.671022l 4.16477, -0.638367l 4.16477, -0.604504l 4.16477, -0.569414l 4.16477, -0.533081l 4.16477, -0.495494l 4.16477, -0.456646l 4.16477, -0.416534l 4.16477, -0.375163l 4.16477, -0.332542l 4.16477,
 -0.28869l 4.16477, -0.24363l 4.16477, -0.197394l 4.16477, -0.150026l 4.16477, -0.101574l 4.16477, -0.0520979l 4.16477, -0.001668l 4.16477, 0.0496364l 4.16477, 0.101725l 4.16477, 0.154498l 4.16477, 0.207844l 4.16477, 0.261642l 4.16477, 0.315763l
 4.16477, 0.370065l 4.16477, 0.4244l 4.16477, 0.478613l 4.16477, 0.53254l 4.16477, 0.586013l 4.16477, 0.63886l 4.16477, 0.690905l 4.16477, 0.741972l 4.16477, 0.791885l 4.16477, 0.840472l 4.16477, 0.887563l 4.16477, 0.932994l 4.16477, 0.97661l
 4.16477, 1.01827l 4.16477, 1.05782l 4.16477, 1.09516l 4.16477, 1.13017l 4.16477, 1.16276l 4.16477, 1.19284l 4.16477, 1.22036l 4.16477, 1.24527l 4.16477, 1.26753l 4.16477, 1.28714l 4.16477, 1.30409l 4.16477, 1.31841l 4.16477, 1.33013l 4.16477,
 1.3393l 4.16477, 1.34598l 4.16477, 1.35023l 4.16477, 1.35215l 4.16477, 1.35183l 4.16477, 1.34937l 4.16477, 1.34487l 4.16477, 1.33844l 4.16477, 1.33021l 4.16477, 1.32029l 4.16477, 1.3088l 4.16477, 1.29587l 4.16477, 1.28161l 4.16477, 1.26614l 4.16477,
 1.24957l 4.16477, 1.23203l 4.16477, 1.21362l 4.16477, 1.19445l 4.16477, 1.17462l 4.16477, 1.15422l 4.16477, 1.13335l 4.16477, 1.1121l 4.16477, 1.09054l 4.16477, 1.06875l 4.16477, 1.0468l 4.16477, 1.02476l 4.16477, 1.00268l 4.16477, 0.98063l 4.16477,
 0.958653l 4.16477, 0.936796l 4.16477, 0.9151l 4.16477, 0.893603l 4.16477, 0.87234l 4.16477, 0.851339l 4.16477, 0.830628l 4.16477, 0.810229l 4.16477, 0.790162" fill="none" stroke="#0000ff" fill-opacity="0.50" stroke-opacity="0.50" stroke-width="3"/>
<path d="M77.8085,214.578l 4.16477, -0.998206l 4.16477, -0.978628l 4.16477, -0.958246l 4.16477, -0.937017l 4.16477, -0.914906l 4.16477, -0.891885l 4.16477, -0.867922l 4.16477, -0.842981l 4.16477, -0.817032l 4.16477, -0.790039l 4.16477, -0.761973l
 4.16477, -0.732799l 4.16477, -0.702491l 4.16477, -0.671022l 4.16477, -0.638367l 4.16477, -0.604504l 4.16477, -0.569414l 4.16477, -0.533081l 4.16477, -0.495494l 4.16477, -0.456646l 4.16477, -0.416534l 4.16477, -0.375163l 4.16477, -0.332542l 4.16477,
 -0.28869l 4.16477, -0.24363l 4.16477, -0.197394l 4.16477, -0.150026l 4.16477, -0.101574l 4.16477, -0.0520979l 4.16477, -0.001668l 4.16477, 0.0496364l 4.16477, 0.101725l 4.16477, 0.154498l 4.16477, 0.207844l 4.16477, 0.261642l 4.16477, 0.315763l
 4.16477, 0.370065l 4.16477, 0.4244l 4.16477, 0.478613l 4.16477, 0.53254l 4.16477, 0.586013l 4.16477, 0.63886l 4.16477, 0.690905l 4.16477, 0.741972l 4.16477, 0.791885l 4.16477, 0.840472l 4.16477, 0.887563l 4.16477, 0.932994l 4.16477, 0.97661l
 4.16477, 1.01827l 4.16477, 1.05782l 4.16477, 1.09516l 4.16477, 1.13017l 4.16477, 1.16276l 4.16477, 1.19284l 4.16477, 1.22036l 4.16477, 1.24527l 4.16477, 1.26753l 4.16477, 1.28714l 4.16477, 1.30409l 4.16477, 1.31841l 4.16477, 1.33013l 4.16477,
 1.3393l 4.16477, 1.34598l 4.16477, 1.35023l 4.16477, 1.35215l 4.16477, 1.35183l 4.16477, 1.34937l 4.16477, 1.34487l 4.16477, 1.33844l 4.16477, 1.33021l 4.16477, 1.32029l 4.16477, 1.3088l 4.16477, 1.29587l 4.16477, 1.28161l 4.16477, 1.26614l 4.16477,
 1.24957l 4.16477, 1.23203l 4.16477, 1.21362l 4.16477, 1.19445l 4.16477, 1.17462l 4.16477, 1.15422l 4.16477, 1.13335l 4.16477, 1.1121l 4.16477, 1.09054l 4.16477, 1.06875l 4.16477, 1.0468l 4.16477, 1.02476l 4.16477, 1.00268l 4.16477, 0.98063l 4.16477,
 0.958653l 4.16477, 0.936796l 4.16477, 0.9151l 4.16477, 0.893603l 4.16477, 0.87234l 4.16477, 0.851339l 4.16477, 0.830628l 4.16477, 0.810229l 4.16477, 0.790162" fill="none" stroke="#0000ff" fill-opacity="0.50" stroke-opacity="0.50" stroke-width="3"/>
<path d="M77.8085,333.43l 4.16477, -0.378335l 4.16477, -0.395595l 4.16477, -0.413472l 4.16477, -0.432164l 4.16477, -0.451706l 4.16477, -0.472125l 4.16477, -0.493454l 4.16477, -0.515728l 4.16477, -0.538979l 4.16477, -0.56324l 4.16477, -0.588546l
 4.16477, -0.614929l 4.16477, -0.642419l 4.16477, -0.671044l 4.16477, -0.700831l 4.16477, -0.731805l 4.16477, -0.763989l 4.16477, -0.797403l 4.16477, -0.832062l 4.16477, -0.86798l 4.16477, -0.905163l 4.16477, -0.943614l 4.16477, -0.983331l 4.16477,
 -1.0243l 4.16477, -1.06652l 4.16477, -1.10995l 4.16477, -1.15457l 4.16477, -1.20033l 4.16477, -1.2472l 4.16477, -1.29511l 4.16477, -1.344l 4.16477, -1.39378l 4.16477, -1.44439l 4.16477, -1.49571l 4.16477, -1.54764l 4.16477, -1.60007l 4.16477,
 -1.65287l 4.16477, -1.70591l 4.16477, -1.75904l 4.16477, -1.81212l 4.16477, -1.86499l 4.16477, -1.9175l 4.16477, -1.96946l 4.16477, -2.02073l 4.16477, -2.07113l 4.16477, -2.12049l 4.16477, -2.16864l 4.16477, -2.21543l 4.16477, -2.2607l 4.16477,
 -2.30431l 4.16477, -2.3461l 4.16477, -2.38595l 4.16477, -2.42374l 4.16477, -2.45937l 4.16477, -2.49274l 4.16477, -2.52378l 4.16477, -2.55242l 4.16477, -2.57862l 4.16477, -2.60234l 4.16477, -2.62356l 4.16477, -2.64229l 4.16477, -2.65854l 4.16477,
 -2.67234l 4.16477, -2.68372l 4.16477, -2.69273l 4.16477, -2.69945l 4.16477, -2.70394l 4.16477, -2.70629l 4.16477, -2.70658l 4.16477, -2.70491l 4.16477, -2.70139l 4.16477, -2.69611l 4.16477, -2.68919l 4.16477, -2.68073l 4.16477, -2.67085l 4.16477,
 -2.65966l 4.16477, -2.64726l 4.16477, -2.63375l 4.16477, -2.61926l 4.16477, -2.60388l 4.16477, -2.5877l 4.16477, -2.57082l 4.16477, -2.55334l 4.16477, -2.53533l 4.16477, -2.51689l 4.16477, -2.49808l 4.16477, -2.47899l 4.16477, -2.45967l 4.16477,
 -2.44019l 4.16477, -2.42061l 4.16477, -2.40099l 4.16477, -2.38136l 4.16477, -2.36179l 4.16477, -2.34231l 4.16477, -2.32295l 4.16477, -2.30376l 4.16477, -2.28476l 4.16477, -2.26598l 4.16477, -2.24744" fill="none" stroke="#59d354" fill-opacity="0.50"
 stroke-opacity="0.50" stroke-width="3"/>
<path d="M77.8085,333.43l 4.16477, -0.378335l 4.16477, -0.395595l 4.16477, -0.413472l 4.16477, -0.432164l 4.16477, -0.451706l 4.16477, -0.472125l 4.16477, -0.493454l 4.16477, -0.515728l 4.16477, -0.538979l 4.16477, -0.56324l 4.16477, -0.588546l
 4.16477, -0.614929l 4.16477, -0.642419l 4.16477, -0.671044l 4.16477, -0.700831l 4.16477, -0.731805l 4.16477, -0.763989l 4.16477, -0.797403l 4.16477, -0.832062l 4.16477, -0.86798l 4.16477, -0.905163l 4.16477, -0.943614l 4.16477, -0.983331l 4.16477,
 -1.0243l 4.16477, -1.06652l 4.16477, -1.10995l 4.16477, -1.15457l 4.16477, -1.20033l 4.16477, -1.2472l 4.16477, -1.29511l 4.16477, -1.344l 4.16477, -1.39378l 4.16477, -1.44439l 4.16477, -1.49571l 4.16477, -1.54764l 4.16477, -1.60007l 4.16477,
 -1.65287l 4.16477, -1.70591l 4.16477, -1.75904l 4.16477, -1.81212l 4.16477, -1.86499l 4.16477, -1.9175l 4.16477, -1.96946l 4.16477, -2.02073l 4.16477, -2.07113l 4.16477, -2.12049l 4.16477, -2.16864l 4.16477, -2.21543l 4.16477, -2.2607l 4.16477,
 -2.30431l 4.16477, -2.3461l 4.16477, -2.38595l 4.16477, -2.42374l 4.16477, -2.45937l 4.16477, -2.49274l 4.16477, -2.52378l 4.16477, -2.55242l 4.16477, -2.57862l 4.16477, -2.60234l 4.16477, -2.62356l 4.16477, -2.64229l 4.16477, -2.65854l 4.16477,
 -2.67234l 4.16477, -2.68372l 4.16477, -2.69273l 4.16477, -2.69945l 4.16477, -2.70394l 4.16477, -2.70629l 4.16477, -2.70658l 4.16477, -2.70491l 4.16477, -2.70139l 4.16477, -2.69611l 4.16477, -2.68919l 4.16477, -2.68073l 4.16477, -2.67085l 4.16477,
 -2.65966l 4.16477, -2.64726l 4.16477, -2.63375l 4.16477, -2.61926l 4.16477, -2.60388l 4.16477, -2.5877l 4.16477, -2.57082l 4.16477, -2.55334l 4.16477, -2.53533l 4.16477, -2.51689l 4.16477, -2.49808l 4.16477, -2.47899l 4.16477, -2.45967l 4.16477,
 -2.44019l 4.16477, -2.42061l 4.16477, -2.40099l 4.16477, -2.38136l 4.16477, -2.36179l 4.16477, -2.34231l 4.16477, -2.32295l 4.16477, -2.30376l 4.16477, -2.28476l 4.16477, -2.26598l 4.16477, -2.24744" fill="none" stroke="#59d354" fill-opacity="0.50"
 stroke-opacity="0.50" stroke-width="3"/>
<path d="M77.8085,346.022h 412.312" fill="none" stroke="#876656" fill-opacity="0.50" stroke-opacity="0.50" stroke-width="5"/>
<path d="M77.8085,346.022h 412.312" fill="none" stroke="#876656" fill-opacity="0.50" stroke-opacity="0.50" stroke-width="5"/>
<text xml:space="preserve" x="248.939" y="18.7347" fill="black" font-size="16.9898" font-family="Helvetica">Standard</text></svg>
