<?xml version="1.0" standalone="no"?>
<svg width="567.429" height="384.969" viewBox="0 0 567.429 384.969" xmlns="http://www.w3.org/2000/svg" shape-rendering="crispEdges">
<title>
sbml-modules.svg
</title>
<desc>
Creator: ROOT Version 6.18/04
CreationDate: Thu Feb 27 16:47:08 2020</desc>
<defs>
</defs>
<rect x="0.5" y="0" width="566.929" height="384.469" fill="white"/>
<rect x="57.1929" y="38.4469" width="453.543" height="307.575" fill="white"/>
<rect x="57.1929" y="38.4469" width="453.543" height="307.575" fill="none" stroke="black"/>
<rect x="57.1929" y="38.4469" width="453.543" height="307.575" fill="white"/>
<rect x="57.1929" y="38.4469" width="453.543" height="307.575" fill="none" stroke="black"/>
<path d="M57.1929,346.022h 453.543" fill="none" stroke="black"/>
<path d="M77.8085,38.4469v 307.575" fill="none" stroke="black" stroke-dasharray=" 1, 2"/>
<path d="M161.104,38.4469v 307.575" fill="none" stroke="black" stroke-dasharray=" 1, 2"/>
<path d="M244.399,38.4469v 307.575" fill="none" stroke="black" stroke-dasharray=" 1, 2"/>
<path d="M327.695,38.4469v 307.575" fill="none" stroke="black" stroke-dasharray=" 1, 2"/>
<path d="M410.99,38.4469v 307.575" fill="none" stroke="black" stroke-dasharray=" 1, 2"/>
<path d="M494.285,38.4469v 307.575" fill="none" stroke="black" stroke-dasharray=" 1, 2"/>
<path d="M77.8085,38.4469v 307.575" fill="none" stroke="black" stroke-dasharray=" 1, 2"/>
<path d="M494.285,38.4469v 307.575" fill="none" stroke="black" stroke-dasharray=" 1, 2"/>
<path d="M57.1929,346.022v -307.575" fill="none" stroke="black"/>
<path d="M510.736,346.022h -453.543" fill="none" stroke="black" stroke-dasharray=" 1, 2"/>
<path d="M510.736,307.148h -453.543" fill="none" stroke="black" stroke-dasharray=" 1, 2"/>
<path d="M510.736,268.273h -453.543" fill="none" stroke="black" stroke-dasharray=" 1, 2"/>
<path d="M510.736,229.398h -453.543" fill="none" stroke="black" stroke-dasharray=" 1, 2"/>
<path d="M510.736,190.524h -453.543" fill="none" stroke="black" stroke-dasharray=" 1, 2"/>
<path d="M510.736,151.649h -453.543" fill="none" stroke="black" stroke-dasharray=" 1, 2"/>
<path d="M510.736,112.774h -453.543" fill="none" stroke="black" stroke-dasharray=" 1, 2"/>
<path d="M510.736,73.8997h -453.543" fill="none" stroke="black" stroke-dasharray=" 1, 2"/>
<path d="M510.736,73.8997h -453.543" fill="none" stroke="black" stroke-dasharray=" 1, 2"/>
<path d="M57.1929,346.022h 453.543" fill="none" stroke="black"/>
<path d="M77.8085,336.795v 9.22726" fill="none" stroke="black"/>
<path d="M94.4676,341.409v 4.61363" fill="none" stroke="black"/>
<path d="M111.127,341.409v 4.61363" fill="none" stroke="black"/>
<path d="M127.786,341.409v 4.61363" fill="none" stroke="black"/>
<path d="M144.445,341.409v 4.61363" fill="none" stroke="black"/>
<path d="M161.104,336.795v 9.22726" fill="none" stroke="black"/>
<path d="M177.763,341.409v 4.61363" fill="none" stroke="black"/>
<path d="M194.422,341.409v 4.61363" fill="none" stroke="black"/>
<path d="M211.081,341.409v 4.61363" fill="none" stroke="black"/>
<path d="M227.74,341.409v 4.61363" fill="none" stroke="black"/>
<path d="M244.399,336.795v 9.22726" fill="none" stroke="black"/>
<path d="M261.058,341.409v 4.61363" fill="none" stroke="black"/>
<path d="M277.717,341.409v 4.61363" fill="none" stroke="black"/>
<path d="M294.376,341.409v 4.61363" fill="none" stroke="black"/>
<path d="M311.036,341.409v 4.61363" fill="none" stroke="black"/>
<path d="M327.695,336.795v 9.22726" fill="none" stroke="black"/>
<path d="M344.354,341.409v 4.61363" fill="none" stroke="black"/>
<path d="M361.013,341.409v 4.61363" fill="none" stroke="black"/>
<path d="M377.672,341.409v 4.61363" fill="none" stroke="black"/>
<path d="M394.331,341.409v 4.61363" fill="none" stroke="black"/>
<path d="M410.99,336.795v 9.22726" fill="none" stroke="black"/>
<path d="M427.649,341.409v 4.61363" fill="none" stroke="black"/>
<path d="M444.308,341.409v 4.61363" fill="none" stroke="black"/>
<path d="M460.967,341.409v 4.61363" fill="none" stroke="black"/>
<path d="M477.626,341.409v 4.61363" fill="none" stroke="black"/>
<path d="M494.285,336.795v 9.22726" fill="none" stroke="black"/>
<path d="M77.8085,336.795v 9.22726" fill="none" stroke="black"/>
<path d="M61.1494,341.409v 4.61363" fill="none" stroke="black"/>
<path d="M494.285,336.795v 9.22726" fill="none" stroke="black"/>
<text xml:space="preserve" x="73.8098" y="358.403" fill="black" font-size="12.8453" font-family="Helvetica">0</text>
<text xml:space="preserve" x="153.636" y="358.403" fill="black" font-size="12.8453" font-family="Helvetica">10</text>
<text xml:space="preserve" x="236.72" y="358.403" fill="black" font-size="12.8453" font-family="Helvetica">20</text>
<text xml:space="preserve" x="319.805" y="358.403" fill="black" font-size="12.8453" font-family="Helvetica">30</text>
<text xml:space="preserve" x="402.889" y="358.403" fill="black" font-size="12.8453" font-family="Helvetica">40</text>
<text xml:space="preserve" x="486.788" y="358.403" fill="black" font-size="12.8453" font-family="Helvetica">50</text>
<text xml:space="preserve" x="459.908" y="371.436" fill="black" font-size="12.8453" font-family="Helvetica">Timestep</text>
<path d="M57.1929,346.022v -307.575" fill="none" stroke="black"/>
<path d="M70.7992,346.022h -13.6063" fill="none" stroke="black"/>
<path d="M63.9961,336.304h -6.80315" fill="none" stroke="black"/>
<path d="M63.9961,326.585h -6.80315" fill="none" stroke="black"/>
<path d="M63.9961,316.866h -6.80315" fill="none" stroke="black"/>
<path d="M70.7992,307.148h -13.6063" fill="none" stroke="black"/>
<path d="M63.9961,297.429h -6.80315" fill="none" stroke="black"/>
<path d="M63.9961,287.71h -6.80315" fill="none" stroke="black"/>
<path d="M63.9961,277.992h -6.80315" fill="none" stroke="black"/>
<path d="M70.7992,268.273h -13.6063" fill="none" stroke="black"/>
<path d="M63.9961,258.554h -6.80315" fill="none" stroke="black"/>
<path d="M63.9961,248.836h -6.80315" fill="none" stroke="black"/>
<path d="M63.9961,239.117h -6.80315" fill="none" stroke="black"/>
<path d="M70.7992,229.398h -13.6063" fill="none" stroke="black"/>
<path d="M63.9961,219.68h -6.80315" fill="none" stroke="black"/>
<path d="M63.9961,209.961h -6.80315" fill="none" stroke="black"/>
<path d="M63.9961,200.242h -6.80315" fill="none" stroke="black"/>
<path d="M70.7992,190.524h -13.6063" fill="none" stroke="black"/>
<path d="M63.9961,180.805h -6.80315" fill="none" stroke="black"/>
<path d="M63.9961,171.086h -6.80315" fill="none" stroke="black"/>
<path d="M63.9961,161.368h -6.80315" fill="none" stroke="black"/>
<path d="M70.7992,151.649h -13.6063" fill="none" stroke="black"/>
<path d="M63.9961,141.93h -6.80315" fill="none" stroke="black"/>
<path d="M63.9961,132.212h -6.80315" fill="none" stroke="black"/>
<path d="M63.9961,122.493h -6.80315" fill="none" stroke="black"/>
<path d="M70.7992,112.774h -13.6063" fill="none" stroke="black"/>
<path d="M63.9961,103.056h -6.80315" fill="none" stroke="black"/>
<path d="M63.9961,93.337h -6.80315" fill="none" stroke="black"/>
<path d="M63.9961,83.6183h -6.80315" fill="none" stroke="black"/>
<path d="M70.7992,73.8997h -13.6063" fill="none" stroke="black"/>
<path d="M70.7992,73.8997h -13.6063" fill="none" stroke="black"/>
<path d="M63.9961,64.181h -6.80315" fill="none" stroke="black"/>
<path d="M63.9961,54.4623h -6.80315" fill="none" stroke="black"/>
<path d="M63.9961,44.7437h -6.80315" fill="none" stroke="black"/>
<text xml:space="preserve" x="47.7441" y="350.258" fill="black" font-size="12.8453" font-family="Helvetica">0</text>
<text xml:space="preserve" x="16.7911" y="311.974" fill="black" font-size="12.8453" font-family="Helvetica">0.0002</text>
<text xml:space="preserve" x="16.7911" y="272.875" fill="black" font-size="12.8453" font-family="Helvetica">0.0004</text>
<text xml:space="preserve" x="16.7911" y="233.777" fill="black" font-size="12.8453" font-family="Helvetica">0.0006</text>
<text xml:space="preserve" x="16.7911" y="194.678" fill="black" font-size="12.8453" font-family="Helvetica">0.0008</text>
<text xml:space="preserve" x="25.7512" y="156.394" fill="black" font-size="12.8453" font-family="Helvetica">0.001</text>
<text xml:space="preserve" x="16.7911" y="117.296" fill="black" font-size="12.8453" font-family="Helvetica">0.0012</text>
<text xml:space="preserve" x="16.7911" y="78.1971" fill="black" font-size="12.8453" font-family="Helvetica">0.0014</text>
<g transform="rotate(-90,5.38732,114.037)">
<text xml:space="preserve" x="5.38732" y="114.037" fill="black" font-size="12.8453" font-family="Helvetica">Concentration</text>
</g>
<path d="M77.8085,151.244l 4.16477, -1.44546l 4.16477, -1.41464l 4.16477, -1.3823l 4.16477, -1.34863l 4.16477, -1.31355l 4.16477, -1.27703l 4.16477, -1.23902l 4.16477, -1.19946l 4.16477, -1.1583l 4.16477, -1.1155l 4.16477, -1.07101l 4.16477,
 -1.02478l 4.16477, -0.976757l 4.16477, -0.926917l 4.16477, -0.875221l 4.16477, -0.821638l 4.16477, -0.766141l 4.16477, -0.708713l 4.16477, -0.649338l 4.16477, -0.588014l 4.16477, -0.524743l 4.16477, -0.45954l 4.16477, -0.392428l 4.16477, -0.323442l
 4.16477, -0.25263l 4.16477, -0.180053l 4.16477, -0.105786l 4.16477, -0.0299192l 4.16477, 0.0474433l 4.16477, 0.126181l 4.16477, 0.206156l 4.16477, 0.287216l 4.16477, 0.369191l 4.16477, 0.451895l 4.16477, 0.535127l 4.16477, 0.618671l 4.16477,
 0.702297l 4.16477, 0.785762l 4.16477, 0.868812l 4.16477, 0.951184l 4.16477, 1.03261l 4.16477, 1.11281l 4.16477, 1.19151l 4.16477, 1.26843l 4.16477, 1.3433l 4.16477, 1.41584l 4.16477, 1.48581l 4.16477, 1.55294l 4.16477, 1.61701l 4.16477, 1.67781l
 4.16477, 1.73512l 4.16477, 1.78878l 4.16477, 1.83862l 4.16477, 1.88454l 4.16477, 1.92641l 4.16477, 1.96417l 4.16477, 1.99776l 4.16477, 2.02717l 4.16477, 2.05239l 4.16477, 2.07346l 4.16477, 2.09043l 4.16477, 2.10337l 4.16477, 2.11239l 4.16477,
 2.11759l 4.16477, 2.11913l 4.16477, 2.11713l 4.16477, 2.11178l 4.16477, 2.10324l 4.16477, 2.09169l 4.16477, 2.07731l 4.16477, 2.06032l 4.16477, 2.04089l 4.16477, 2.01922l 4.16477, 1.99551l 4.16477, 1.96995l 4.16477, 1.94273l 4.16477, 1.91402l
 4.16477, 1.88401l 4.16477, 1.85286l 4.16477, 1.82074l 4.16477, 1.78779l 4.16477, 1.75418l 4.16477, 1.72002l 4.16477, 1.68546l 4.16477, 1.65061l 4.16477, 1.61558l 4.16477, 1.58047l 4.16477, 1.54539l 4.16477, 1.5104l 4.16477, 1.4756l 4.16477, 1.44104l
 4.16477, 1.40681l 4.16477, 1.37295l 4.16477, 1.33951l 4.16477, 1.30653l 4.16477, 1.27407l 4.16477, 1.24214l 4.16477, 1.21078l 4.16477, 1.18001" fill="none" stroke="#ff0000" fill-opacity="0.50" stroke-opacity="0.50" stroke-width="3"/>
<path d="M77.8085,151.244l 4.16477, -1.44546l 4.16477, -1.41464l 4.16477, -1.3823l 4.16477, -1.34863l 4.16477, -1.31355l 4.16477, -1.27703l 4.16477, -1.23902l 4.16477, -1.19946l 4.16477, -1.1583l 4.16477, -1.1155l 4.16477, -1.07101l 4.16477,
 -1.02478l 4.16477, -0.976757l 4.16477, -0.926917l 4.16477, -0.875221l 4.16477, -0.821638l 4.16477, -0.766141l 4.16477, -0.708713l 4.16477, -0.649338l 4.16477, -0.588014l 4.16477, -0.524743l 4.16477, -0.45954l 4.16477, -0.392428l 4.16477, -0.323442l
 4.16477, -0.25263l 4.16477, -0.180053l 4.16477, -0.105786l 4.16477, -0.0299192l 4.16477, 0.0474433l 4.16477, 0.126181l 4.16477, 0.206156l 4.16477, 0.287216l 4.16477, 0.369191l 4.16477, 0.451895l 4.16477, 0.535127l 4.16477, 0.618671l 4.16477,
 0.702297l 4.16477, 0.785762l 4.16477, 0.868812l 4.16477, 0.951184l 4.16477, 1.03261l 4.16477, 1.11281l 4.16477, 1.19151l 4.16477, 1.26843l 4.16477, 1.3433l 4.16477, 1.41584l 4.16477, 1.48581l 4.16477, 1.55294l 4.16477, 1.61701l 4.16477, 1.67781l
 4.16477, 1.73512l 4.16477, 1.78878l 4.16477, 1.83862l 4.16477, 1.88454l 4.16477, 1.92641l 4.16477, 1.96417l 4.16477, 1.99776l 4.16477, 2.02717l 4.16477, 2.05239l 4.16477, 2.07346l 4.16477, 2.09043l 4.16477, 2.10337l 4.16477, 2.11239l 4.16477,
 2.11759l 4.16477, 2.11913l 4.16477, 2.11713l 4.16477, 2.11178l 4.16477, 2.10324l 4.16477, 2.09169l 4.16477, 2.07731l 4.16477, 2.06032l 4.16477, 2.04089l 4.16477, 2.01922l 4.16477, 1.99551l 4.16477, 1.96995l 4.16477, 1.94273l 4.16477, 1.91402l
 4.16477, 1.88401l 4.16477, 1.85286l 4.16477, 1.82074l 4.16477, 1.78779l 4.16477, 1.75418l 4.16477, 1.72002l 4.16477, 1.68546l 4.16477, 1.65061l 4.16477, 1.61558l 4.16477, 1.58047l 4.16477, 1.54539l 4.16477, 1.5104l 4.16477, 1.4756l 4.16477, 1.44104l
 4.16477, 1.40681l 4.16477, 1.37295l 4.16477, 1.33951l 4.16477, 1.30653l 4.16477, 1.27407l 4.16477, 1.24214l 4.16477, 1.21078l 4.16477, 1.18001" fill="none" stroke="#ff0000" fill-opacity="0.50" stroke-opacity="0.50" stroke-width="3"/>
<path d="M77.8085,150.066l 4.16477, -1.48812l 4.16477, -1.45894l 4.16477, -1.42855l 4.16477, -1.3969l 4.16477, -1.36394l 4.16477, -1.32962l 4.16477, -1.2939l 4.16477, -1.25671l 4.16477, -1.21803l 4.16477, -1.17779l 4.16477, -1.13595l 4.16477,
 -1.09245l 4.16477, -1.04727l 4.16477, -1.00036l 4.16477, -0.951675l 4.16477, -0.901193l 4.16477, -0.848881l 4.16477, -0.794716l 4.16477, -0.738681l 4.16477, -0.680766l 4.16477, -0.620967l 4.16477, -0.559291l 4.16477, -0.495753l 4.16477, -0.430378l
 4.16477, -0.363202l 4.16477, -0.294275l 4.16477, -0.223658l 4.16477, -0.151426l 4.16477, -0.0776674l 4.16477, -0.00248664l 4.16477, 0.0739977l 4.16477, 0.151652l 4.16477, 0.230325l 4.16477, 0.309853l 4.16477, 0.390056l 4.16477, 0.470738l 4.16477,
 0.551691l 4.16477, 0.632694l 4.16477, 0.713514l 4.16477, 0.793909l 4.16477, 0.873626l 4.16477, 0.95241l 4.16477, 1.03l 4.16477, 1.10613l 4.16477, 1.18054l 4.16477, 1.25297l 4.16477, 1.32318l 4.16477, 1.3909l 4.16477, 1.45593l 4.16477, 1.51803l
 4.16477, 1.577l 4.16477, 1.63267l 4.16477, 1.68486l 4.16477, 1.73344l 4.16477, 1.77829l 4.16477, 1.81931l 4.16477, 1.85644l 4.16477, 1.88963l 4.16477, 1.91886l 4.16477, 1.94413l 4.16477, 1.96548l 4.16477, 1.98296l 4.16477, 1.99662l 4.16477, 2.00658l
 4.16477, 2.01292l 4.16477, 2.01579l 4.16477, 2.01531l 4.16477, 2.01163l 4.16477, 2.00493l 4.16477, 1.99535l 4.16477, 1.98308l 4.16477, 1.96829l 4.16477, 1.95116l 4.16477, 1.93188l 4.16477, 1.91062l 4.16477, 1.88755l 4.16477, 1.86286l 4.16477,
 1.83671l 4.16477, 1.80927l 4.16477, 1.78069l 4.16477, 1.75112l 4.16477, 1.72071l 4.16477, 1.6896l 4.16477, 1.65791l 4.16477, 1.62577l 4.16477, 1.59328l 4.16477, 1.56056l 4.16477, 1.5277l 4.16477, 1.49479l 4.16477, 1.46192l 4.16477, 1.42916l 4.16477,
 1.39657l 4.16477, 1.36423l 4.16477, 1.33218l 4.16477, 1.30048l 4.16477, 1.26917l 4.16477, 1.2383l 4.16477, 1.20789l 4.16477, 1.17797" fill="none" stroke="#0000ff" fill-opacity="0.50" stroke-opacity="0.50" stroke-width="3"/>
<path d="M77.8085,150.066l 4.16477, -1.48812l 4.16477, -1.45894l 4.16477, -1.42855l 4.16477, -1.3969l 4.16477, -1.36394l 4.16477, -1.32962l 4.16477, -1.2939l 4.16477, -1.25671l 4.16477, -1.21803l 4.16477, -1.17779l 4.16477, -1.13595l 4.16477,
 -1.09245l 4.16477, -1.04727l 4.16477, -1.00036l 4.16477, -0.951675l 4.16477, -0.901193l 4.16477, -0.848881l 4.16477, -0.794716l 4.16477, -0.738681l 4.16477, -0.680766l 4.16477, -0.620967l 4.16477, -0.559291l 4.16477, -0.495753l 4.16477, -0.430378l
 4.16477, -0.363202l 4.16477, -0.294275l 4.16477, -0.223658l 4.16477, -0.151426l 4.16477, -0.0776674l 4.16477, -0.00248664l 4.16477, 0.0739977l 4.16477, 0.151652l 4.16477, 0.230325l 4.16477, 0.309853l 4.16477, 0.390056l 4.16477, 0.470738l 4.16477,
 0.551691l 4.16477, 0.632694l 4.16477, 0.713514l 4.16477, 0.793909l 4.16477, 0.873626l 4.16477, 0.95241l 4.16477, 1.03l 4.16477, 1.10613l 4.16477, 1.18054l 4.16477, 1.25297l 4.16477, 1.32318l 4.16477, 1.3909l 4.16477, 1.45593l 4.16477, 1.51803l
 4.16477, 1.577l 4.16477, 1.63267l 4.16477, 1.68486l 4.16477, 1.73344l 4.16477, 1.77829l 4.16477, 1.81931l 4.16477, 1.85644l 4.16477, 1.88963l 4.16477, 1.91886l 4.16477, 1.94413l 4.16477, 1.96548l 4.16477, 1.98296l 4.16477, 1.99662l 4.16477, 2.00658l
 4.16477, 2.01292l 4.16477, 2.01579l 4.16477, 2.01531l 4.16477, 2.01163l 4.16477, 2.00493l 4.16477, 1.99535l 4.16477, 1.98308l 4.16477, 1.96829l 4.16477, 1.95116l 4.16477, 1.93188l 4.16477, 1.91062l 4.16477, 1.88755l 4.16477, 1.86286l 4.16477,
 1.83671l 4.16477, 1.80927l 4.16477, 1.78069l 4.16477, 1.75112l 4.16477, 1.72071l 4.16477, 1.6896l 4.16477, 1.65791l 4.16477, 1.62577l 4.16477, 1.59328l 4.16477, 1.56056l 4.16477, 1.5277l 4.16477, 1.49479l 4.16477, 1.46192l 4.16477, 1.42916l 4.16477,
 1.39657l 4.16477, 1.36423l 4.16477, 1.33218l 4.16477, 1.30048l 4.16477, 1.26917l 4.16477, 1.2383l 4.16477, 1.20789l 4.16477, 1.17797" fill="none" stroke="#0000ff" fill-opacity="0.50" stroke-opacity="0.50" stroke-width="3"/>
<path d="M77.8085,327.25l 4.16477, -0.56402l 4.16477, -0.589751l 4.16477, -0.616403l 4.16477, -0.64427l 4.16477, -0.673402l 4.16477, -0.703842l 4.16477, -0.73564l 4.16477, -0.768846l 4.16477, -0.803508l 4.16477, -0.839677l 4.16477, -0.877403l
 4.16477, -0.916735l 4.16477, -0.957716l 4.16477, -1.00039l 4.16477, -1.0448l 4.16477, -1.09097l 4.16477, -1.13895l 4.16477, -1.18877l 4.16477, -1.24044l 4.16477, -1.29398l 4.16477, -1.34941l 4.16477, -1.40674l 4.16477, -1.46595l 4.16477, -1.52703l
 4.16477, -1.58996l 4.16477, -1.65471l 4.16477, -1.72123l 4.16477, -1.78946l 4.16477, -1.85932l 4.16477, -1.93075l 4.16477, -2.00363l 4.16477, -2.07785l 4.16477, -2.15329l 4.16477, -2.22979l 4.16477, -2.30721l 4.16477, -2.38537l 4.16477, -2.46409l
 4.16477, -2.54316l 4.16477, -2.62237l 4.16477, -2.70151l 4.16477, -2.78033l 4.16477, -2.8586l 4.16477, -2.93607l 4.16477, -3.0125l 4.16477, -3.08763l 4.16477, -3.16122l 4.16477, -3.23301l 4.16477, -3.30276l 4.16477, -3.37025l 4.16477, -3.43525l
 4.16477, -3.49755l 4.16477, -3.55696l 4.16477, -3.6133l 4.16477, -3.66642l 4.16477, -3.71617l 4.16477, -3.76244l 4.16477, -3.80514l 4.16477, -3.84419l 4.16477, -3.87955l 4.16477, -3.9112l 4.16477, -3.93912l 4.16477, -3.96335l 4.16477, -3.98391l
 4.16477, -4.00088l 4.16477, -4.01432l 4.16477, -4.02433l 4.16477, -4.03103l 4.16477, -4.03453l 4.16477, -4.03496l 4.16477, -4.03248l 4.16477, -4.02722l 4.16477, -4.01936l 4.16477, -4.00904l 4.16477, -3.99643l 4.16477, -3.9817l 4.16477, -3.96501l
 4.16477, -3.94652l 4.16477, -3.92639l 4.16477, -3.90479l 4.16477, -3.88185l 4.16477, -3.85773l 4.16477, -3.83257l 4.16477, -3.80651l 4.16477, -3.77967l 4.16477, -3.75217l 4.16477, -3.72414l 4.16477, -3.69567l 4.16477, -3.66687l 4.16477, -3.63783l
 4.16477, -3.60864l 4.16477, -3.57938l 4.16477, -3.55013l 4.16477, -3.52095l 4.16477, -3.49191l 4.16477, -3.46305l 4.16477, -3.43444l 4.16477, -3.40611l 4.16477, -3.37811l 4.16477, -3.35048" fill="none" stroke="#59d354" fill-opacity="0.50"
 stroke-opacity="0.50" stroke-width="3"/>
<path d="M77.8085,327.25l 4.16477, -0.56402l 4.16477, -0.589751l 4.16477, -0.616403l 4.16477, -0.64427l 4.16477, -0.673402l 4.16477, -0.703842l 4.16477, -0.73564l 4.16477, -0.768846l 4.16477, -0.803508l 4.16477, -0.839677l 4.16477, -0.877403l
 4.16477, -0.916735l 4.16477, -0.957716l 4.16477, -1.00039l 4.16477, -1.0448l 4.16477, -1.09097l 4.16477, -1.13895l 4.16477, -1.18877l 4.16477, -1.24044l 4.16477, -1.29398l 4.16477, -1.34941l 4.16477, -1.40674l 4.16477, -1.46595l 4.16477, -1.52703l
 4.16477, -1.58996l 4.16477, -1.65471l 4.16477, -1.72123l 4.16477, -1.78946l 4.16477, -1.85932l 4.16477, -1.93075l 4.16477, -2.00363l 4.16477, -2.07785l 4.16477, -2.15329l 4.16477, -2.22979l 4.16477, -2.30721l 4.16477, -2.38537l 4.16477, -2.46409l
 4.16477, -2.54316l 4.16477, -2.62237l 4.16477, -2.70151l 4.16477, -2.78033l 4.16477, -2.8586l 4.16477, -2.93607l 4.16477, -3.0125l 4.16477, -3.08763l 4.16477, -3.16122l 4.16477, -3.23301l 4.16477, -3.30276l 4.16477, -3.37025l 4.16477, -3.43525l
 4.16477, -3.49755l 4.16477, -3.55696l 4.16477, -3.6133l 4.16477, -3.66642l 4.16477, -3.71617l 4.16477, -3.76244l 4.16477, -3.80514l 4.16477, -3.84419l 4.16477, -3.87955l 4.16477, -3.9112l 4.16477, -3.93912l 4.16477, -3.96335l 4.16477, -3.98391l
 4.16477, -4.00088l 4.16477, -4.01432l 4.16477, -4.02433l 4.16477, -4.03103l 4.16477, -4.03453l 4.16477, -4.03496l 4.16477, -4.03248l 4.16477, -4.02722l 4.16477, -4.01936l 4.16477, -4.00904l 4.16477, -3.99643l 4.16477, -3.9817l 4.16477, -3.96501l
 4.16477, -3.94652l 4.16477, -3.92639l 4.16477, -3.90479l 4.16477, -3.88185l 4.16477, -3.85773l 4.16477, -3.83257l 4.16477, -3.80651l 4.16477, -3.77967l 4.16477, -3.75217l 4.16477, -3.72414l 4.16477, -3.69567l 4.16477, -3.66687l 4.16477, -3.63783l
 4.16477, -3.60864l 4.16477, -3.57938l 4.16477, -3.55013l 4.16477, -3.52095l 4.16477, -3.49191l 4.16477, -3.46305l 4.16477, -3.43444l 4.16477, -3.40611l 4.16477, -3.37811l 4.16477, -3.35048" fill="none" stroke="#59d354" fill-opacity="0.50"
 stroke-opacity="0.50" stroke-width="3"/>
<path d="M77.8085,346.022h 412.312" fill="none" stroke="#876656" fill-opacity="0.50" stroke-opacity="0.50" stroke-width="5"/>
<path d="M77.8085,346.022h 412.312" fill="none" stroke="#876656" fill-opacity="0.50" stroke-opacity="0.50" stroke-width="5"/>
<text xml:space="preserve" x="248.939" y="18.7347" fill="black" font-size="16.9898" font-family="Helvetica">Standard</text></svg>
