<?xml version="1.0" standalone="no"?>
<svg width="567.429" height="384.969" viewBox="0 0 567.429 384.969" xmlns="http://www.w3.org/2000/svg" shape-rendering="crispEdges">
<title>
sbml-modules.svg
</title>
<desc>
Creator: ROOT Version 6.18/04
CreationDate: Tue Feb 25 18:43:50 2020</desc>
<defs>
</defs>
<rect x="0.5" y="0" width="566.929" height="384.469" fill="white"/>
<rect x="57.1929" y="38.4469" width="453.543" height="307.575" fill="white"/>
<rect x="57.1929" y="38.4469" width="453.543" height="307.575" fill="none" stroke="black"/>
<rect x="57.1929" y="38.4469" width="453.543" height="307.575" fill="white"/>
<rect x="57.1929" y="38.4469" width="453.543" height="307.575" fill="none" stroke="black"/>
<path d="M57.1929,346.022h 453.543" fill="none" stroke="black"/>
<path d="M77.8085,38.4469v 307.575" fill="none" stroke="black" stroke-dasharray=" 1, 2"/>
<path d="M161.104,38.4469v 307.575" fill="none" stroke="black" stroke-dasharray=" 1, 2"/>
<path d="M244.399,38.4469v 307.575" fill="none" stroke="black" stroke-dasharray=" 1, 2"/>
<path d="M327.695,38.4469v 307.575" fill="none" stroke="black" stroke-dasharray=" 1, 2"/>
<path d="M410.99,38.4469v 307.575" fill="none" stroke="black" stroke-dasharray=" 1, 2"/>
<path d="M494.285,38.4469v 307.575" fill="none" stroke="black" stroke-dasharray=" 1, 2"/>
<path d="M77.8085,38.4469v 307.575" fill="none" stroke="black" stroke-dasharray=" 1, 2"/>
<path d="M494.285,38.4469v 307.575" fill="none" stroke="black" stroke-dasharray=" 1, 2"/>
<path d="M57.1929,346.022v -307.575" fill="none" stroke="black"/>
<path d="M510.736,332.462h -453.543" fill="none" stroke="black" stroke-dasharray=" 1, 2"/>
<path d="M510.736,290.616h -453.543" fill="none" stroke="black" stroke-dasharray=" 1, 2"/>
<path d="M510.736,248.77h -453.543" fill="none" stroke="black" stroke-dasharray=" 1, 2"/>
<path d="M510.736,206.925h -453.543" fill="none" stroke="black" stroke-dasharray=" 1, 2"/>
<path d="M510.736,165.079h -453.543" fill="none" stroke="black" stroke-dasharray=" 1, 2"/>
<path d="M510.736,123.233h -453.543" fill="none" stroke="black" stroke-dasharray=" 1, 2"/>
<path d="M510.736,81.3871h -453.543" fill="none" stroke="black" stroke-dasharray=" 1, 2"/>
<path d="M510.736,39.5413h -453.543" fill="none" stroke="black" stroke-dasharray=" 1, 2"/>
<path d="M510.736,332.462h -453.543" fill="none" stroke="black" stroke-dasharray=" 1, 2"/>
<path d="M510.736,39.5413h -453.543" fill="none" stroke="black" stroke-dasharray=" 1, 2"/>
<path d="M57.1929,346.022h 453.543" fill="none" stroke="black"/>
<path d="M77.8085,336.795v 9.22726" fill="none" stroke="black"/>
<path d="M94.4676,341.409v 4.61363" fill="none" stroke="black"/>
<path d="M111.127,341.409v 4.61363" fill="none" stroke="black"/>
<path d="M127.786,341.409v 4.61363" fill="none" stroke="black"/>
<path d="M144.445,341.409v 4.61363" fill="none" stroke="black"/>
<path d="M161.104,336.795v 9.22726" fill="none" stroke="black"/>
<path d="M177.763,341.409v 4.61363" fill="none" stroke="black"/>
<path d="M194.422,341.409v 4.61363" fill="none" stroke="black"/>
<path d="M211.081,341.409v 4.61363" fill="none" stroke="black"/>
<path d="M227.74,341.409v 4.61363" fill="none" stroke="black"/>
<path d="M244.399,336.795v 9.22726" fill="none" stroke="black"/>
<path d="M261.058,341.409v 4.61363" fill="none" stroke="black"/>
<path d="M277.717,341.409v 4.61363" fill="none" stroke="black"/>
<path d="M294.376,341.409v 4.61363" fill="none" stroke="black"/>
<path d="M311.036,341.409v 4.61363" fill="none" stroke="black"/>
<path d="M327.695,336.795v 9.22726" fill="none" stroke="black"/>
<path d="M344.354,341.409v 4.61363" fill="none" stroke="black"/>
<path d="M361.013,341.409v 4.61363" fill="none" stroke="black"/>
<path d="M377.672,341.409v 4.61363" fill="none" stroke="black"/>
<path d="M394.331,341.409v 4.61363" fill="none" stroke="black"/>
<path d="M410.99,336.795v 9.22726" fill="none" stroke="black"/>
<path d="M427.649,341.409v 4.61363" fill="none" stroke="black"/>
<path d="M444.308,341.409v 4.61363" fill="none" stroke="black"/>
<path d="M460.967,341.409v 4.61363" fill="none" stroke="black"/>
<path d="M477.626,341.409v 4.61363" fill="none" stroke="black"/>
<path d="M494.285,336.795v 9.22726" fill="none" stroke="black"/>
<path d="M77.8085,336.795v 9.22726" fill="none" stroke="black"/>
<path d="M61.1494,341.409v 4.61363" fill="none" stroke="black"/>
<path d="M494.285,336.795v 9.22726" fill="none" stroke="black"/>
<text xml:space="preserve" x="73.8098" y="358.403" fill="black" font-size="12.8453" font-family="Helvetica">0</text>
<text xml:space="preserve" x="153.636" y="358.403" fill="black" font-size="12.8453" font-family="Helvetica">10</text>
<text xml:space="preserve" x="236.72" y="358.403" fill="black" font-size="12.8453" font-family="Helvetica">20</text>
<text xml:space="preserve" x="319.805" y="358.403" fill="black" font-size="12.8453" font-family="Helvetica">30</text>
<text xml:space="preserve" x="402.889" y="358.403" fill="black" font-size="12.8453" font-family="Helvetica">40</text>
<text xml:space="preserve" x="486.788" y="358.403" fill="black" font-size="12.8453" font-family="Helvetica">50</text>
<text xml:space="preserve" x="459.908" y="371.436" fill="black" font-size="12.8453" font-family="Helvetica">Timestep</text>
<path d="M57.1929,346.022v -307.575" fill="none" stroke="black"/>
<path d="M70.7992,332.462h -13.6063" fill="none" stroke="black"/>
<path d="M63.9961,322h -6.80315" fill="none" stroke="black"/>
<path d="M63.9961,311.539h -6.80315" fill="none" stroke="black"/>
<path d="M63.9961,301.078h -6.80315" fill="none" stroke="black"/>
<path d="M70.7992,290.616h -13.6063" fill="none" stroke="black"/>
<path d="M63.9961,280.155h -6.80315" fill="none" stroke="black"/>
<path d="M63.9961,269.693h -6.80315" fill="none" stroke="black"/>
<path d="M63.9961,259.232h -6.80315" fill="none" stroke="black"/>
<path d="M70.7992,248.77h -13.6063" fill="none" stroke="black"/>
<path d="M63.9961,238.309h -6.80315" fill="none" stroke="black"/>
<path d="M63.9961,227.847h -6.80315" fill="none" stroke="black"/>
<path d="M63.9961,217.386h -6.80315" fill="none" stroke="black"/>
<path d="M70.7992,206.925h -13.6063" fill="none" stroke="black"/>
<path d="M63.9961,196.463h -6.80315" fill="none" stroke="black"/>
<path d="M63.9961,186.002h -6.80315" fill="none" stroke="black"/>
<path d="M63.9961,175.54h -6.80315" fill="none" stroke="black"/>
<path d="M70.7992,165.079h -13.6063" fill="none" stroke="black"/>
<path d="M63.9961,154.617h -6.80315" fill="none" stroke="black"/>
<path d="M63.9961,144.156h -6.80315" fill="none" stroke="black"/>
<path d="M63.9961,133.694h -6.80315" fill="none" stroke="black"/>
<path d="M70.7992,123.233h -13.6063" fill="none" stroke="black"/>
<path d="M63.9961,112.771h -6.80315" fill="none" stroke="black"/>
<path d="M63.9961,102.31h -6.80315" fill="none" stroke="black"/>
<path d="M63.9961,91.8485h -6.80315" fill="none" stroke="black"/>
<path d="M70.7992,81.3871h -13.6063" fill="none" stroke="black"/>
<path d="M63.9961,70.9256h -6.80315" fill="none" stroke="black"/>
<path d="M63.9961,60.4642h -6.80315" fill="none" stroke="black"/>
<path d="M63.9961,50.0027h -6.80315" fill="none" stroke="black"/>
<path d="M70.7992,39.5413h -13.6063" fill="none" stroke="black"/>
<path d="M70.7992,332.462h -13.6063" fill="none" stroke="black"/>
<path d="M63.9961,342.923h -6.80315" fill="none" stroke="black"/>
<path d="M70.7992,39.5413h -13.6063" fill="none" stroke="black"/>
<text xml:space="preserve" x="39.5986" y="337.225" fill="black" font-size="12.8453" font-family="Helvetica">0.1</text>
<text xml:space="preserve" x="30.6385" y="294.868" fill="black" font-size="12.8453" font-family="Helvetica">0.12</text>
<text xml:space="preserve" x="30.6385" y="253.326" fill="black" font-size="12.8453" font-family="Helvetica">0.14</text>
<text xml:space="preserve" x="30.6385" y="211.784" fill="black" font-size="12.8453" font-family="Helvetica">0.16</text>
<text xml:space="preserve" x="30.6385" y="169.427" fill="black" font-size="12.8453" font-family="Helvetica">0.18</text>
<text xml:space="preserve" x="37.1549" y="127.885" fill="black" font-size="12.8453" font-family="Helvetica">0.2</text>
<text xml:space="preserve" x="30.6385" y="85.5281" fill="black" font-size="12.8453" font-family="Helvetica">0.22</text>
<text xml:space="preserve" x="30.6385" y="43.9859" fill="black" font-size="12.8453" font-family="Helvetica">0.24</text>
<text xml:space="preserve" x="81.1408" y="30.1385" fill="black" font-size="8.73023" font-family="Helvetica">15</text>
<text xml:space="preserve" x="77.068" y="30.1385" fill="black" font-size="8.73023" font-family="Times">&#8722;</text>
<text xml:space="preserve" x="63.2206" y="36.6549" fill="black" font-size="12.8453" font-family="Helvetica">10</text>
<text xml:space="preserve" x="56.7042" y="36.6549" fill="black" font-size="12.8453" font-family="Times">&#0215;</text>
<g transform="rotate(-90,18.4202,114.037)">
<text xml:space="preserve" x="18.4202" y="114.037" fill="black" font-size="12.8453" font-family="Helvetica">Concentration</text>
</g>
<path d="M77.8085,332.042l 4.16477, -0.429651l 4.16477, -0.442661l 4.16477, -0.456259l 4.16477, -0.470472l 4.16477, -0.485331l 4.16477, -0.50086l 4.16477, -0.517089l 4.16477, -0.534051l 4.16477, -0.551775l 4.16477, -0.570297l 4.16477, -0.589653l
 4.16477, -0.609879l 4.16477, -0.631012l 4.16477, -0.653088l 4.16477, -0.676145l 4.16477, -0.700224l 4.16477, -0.725364l 4.16477, -0.751607l 4.16477, -0.778994l 4.16477, -0.807568l 4.16477, -0.83737l 4.16477, -0.868443l 4.16477, -0.900831l 4.16477,
 -0.934575l 4.16477, -0.969718l 4.16477, -1.0063l 4.16477, -1.04436l 4.16477, -1.08394l 4.16477, -1.12508l 4.16477, -1.16782l 4.16477, -1.21218l 4.16477, -1.25819l 4.16477, -1.3059l 4.16477, -1.35532l 4.16477, -1.40648l 4.16477, -1.45939l 4.16477,
 -1.51407l 4.16477, -1.57053l 4.16477, -1.62877l 4.16477, -1.6888l 4.16477, -1.75061l 4.16477, -1.81419l 4.16477, -1.87953l 4.16477, -1.94661l 4.16477, -2.0154l 4.16477, -2.08586l 4.16477, -2.15796l 4.16477, -2.23166l 4.16477, -2.30691l 4.16477,
 -2.38365l 4.16477, -2.46182l 4.16477, -2.54137l 4.16477, -2.62223l 4.16477, -2.70432l 4.16477, -2.78757l 4.16477, -2.8719l 4.16477, -2.95724l 4.16477, -3.04349l 4.16477, -3.13059l 4.16477, -3.21844l 4.16477, -3.30697l 4.16477, -3.39608l 4.16477,
 -3.4857l 4.16477, -3.57574l 4.16477, -3.66612l 4.16477, -3.75677l 4.16477, -3.8476l 4.16477, -3.93855l 4.16477, -4.02955l 4.16477, -4.12052l 4.16477, -4.2114l 4.16477, -4.30213l 4.16477, -4.39266l 4.16477, -4.48293l 4.16477, -4.5729l 4.16477,
 -4.6625l 4.16477, -4.75171l 4.16477, -4.84049l 4.16477, -4.92879l 4.16477, -5.01659l 4.16477, -5.10386l 4.16477, -5.19058l 4.16477, -5.27672l 4.16477, -5.36226l 4.16477, -5.44718l 4.16477, -5.53148l 4.16477, -5.61515l 4.16477, -5.69816l 4.16477,
 -5.78053l 4.16477, -5.86224l 4.16477, -5.94329l 4.16477, -6.02368l 4.16477, -6.10341l 4.16477, -6.18248l 4.16477, -6.2609l 4.16477, -6.33867l 4.16477, -6.4158l 4.16477, -6.4923l 4.16477, -6.56817" fill="none" stroke="#00ff00" fill-opacity="0.10"
 stroke-opacity="0.10" stroke-width="5"/>
<path d="M77.8085,332.042l 4.16477, -0.429651l 4.16477, -0.442661l 4.16477, -0.456259l 4.16477, -0.470472l 4.16477, -0.485331l 4.16477, -0.50086l 4.16477, -0.517089l 4.16477, -0.534051l 4.16477, -0.551775l 4.16477, -0.570297l 4.16477, -0.589653l
 4.16477, -0.609879l 4.16477, -0.631012l 4.16477, -0.653088l 4.16477, -0.676145l 4.16477, -0.700224l 4.16477, -0.725364l 4.16477, -0.751607l 4.16477, -0.778994l 4.16477, -0.807568l 4.16477, -0.83737l 4.16477, -0.868443l 4.16477, -0.900831l 4.16477,
 -0.934575l 4.16477, -0.969718l 4.16477, -1.0063l 4.16477, -1.04436l 4.16477, -1.08394l 4.16477, -1.12508l 4.16477, -1.16782l 4.16477, -1.21218l 4.16477, -1.25819l 4.16477, -1.3059l 4.16477, -1.35532l 4.16477, -1.40648l 4.16477, -1.45939l 4.16477,
 -1.51407l 4.16477, -1.57053l 4.16477, -1.62877l 4.16477, -1.6888l 4.16477, -1.75061l 4.16477, -1.81419l 4.16477, -1.87953l 4.16477, -1.94661l 4.16477, -2.0154l 4.16477, -2.08586l 4.16477, -2.15796l 4.16477, -2.23166l 4.16477, -2.30691l 4.16477,
 -2.38365l 4.16477, -2.46182l 4.16477, -2.54137l 4.16477, -2.62223l 4.16477, -2.70432l 4.16477, -2.78757l 4.16477, -2.8719l 4.16477, -2.95724l 4.16477, -3.04349l 4.16477, -3.13059l 4.16477, -3.21844l 4.16477, -3.30697l 4.16477, -3.39608l 4.16477,
 -3.4857l 4.16477, -3.57574l 4.16477, -3.66612l 4.16477, -3.75677l 4.16477, -3.8476l 4.16477, -3.93855l 4.16477, -4.02955l 4.16477, -4.12052l 4.16477, -4.2114l 4.16477, -4.30213l 4.16477, -4.39266l 4.16477, -4.48293l 4.16477, -4.5729l 4.16477,
 -4.6625l 4.16477, -4.75171l 4.16477, -4.84049l 4.16477, -4.92879l 4.16477, -5.01659l 4.16477, -5.10386l 4.16477, -5.19058l 4.16477, -5.27672l 4.16477, -5.36226l 4.16477, -5.44718l 4.16477, -5.53148l 4.16477, -5.61515l 4.16477, -5.69816l 4.16477,
 -5.78053l 4.16477, -5.86224l 4.16477, -5.94329l 4.16477, -6.02368l 4.16477, -6.10341l 4.16477, -6.18248l 4.16477, -6.2609l 4.16477, -6.33867l 4.16477, -6.4158l 4.16477, -6.4923l 4.16477, -6.56817" fill="none" stroke="#00ff00" fill-opacity="0.10"
 stroke-opacity="0.10" stroke-width="5"/>
<path d="M77.8085,332.042l 4.16477, -0.429651l 4.16477, -0.442661l 4.16477, -0.456259l 4.16477, -0.470472l 4.16477, -0.485331l 4.16477, -0.50086l 4.16477, -0.517089l 4.16477, -0.534051l 4.16477, -0.551775l 4.16477, -0.570297l 4.16477, -0.589653l
 4.16477, -0.609879l 4.16477, -0.631012l 4.16477, -0.653088l 4.16477, -0.676145l 4.16477, -0.700224l 4.16477, -0.725364l 4.16477, -0.751607l 4.16477, -0.778994l 4.16477, -0.807568l 4.16477, -0.83737l 4.16477, -0.868443l 4.16477, -0.900831l 4.16477,
 -0.934575l 4.16477, -0.969718l 4.16477, -1.0063l 4.16477, -1.04436l 4.16477, -1.08394l 4.16477, -1.12508l 4.16477, -1.16782l 4.16477, -1.21218l 4.16477, -1.25819l 4.16477, -1.3059l 4.16477, -1.35532l 4.16477, -1.40648l 4.16477, -1.45939l 4.16477,
 -1.51407l 4.16477, -1.57053l 4.16477, -1.62877l 4.16477, -1.6888l 4.16477, -1.75061l 4.16477, -1.81419l 4.16477, -1.87953l 4.16477, -1.94661l 4.16477, -2.0154l 4.16477, -2.08586l 4.16477, -2.15796l 4.16477, -2.23166l 4.16477, -2.30691l 4.16477,
 -2.38365l 4.16477, -2.46182l 4.16477, -2.54137l 4.16477, -2.62223l 4.16477, -2.70432l 4.16477, -2.78757l 4.16477, -2.8719l 4.16477, -2.95724l 4.16477, -3.04349l 4.16477, -3.13059l 4.16477, -3.21844l 4.16477, -3.30697l 4.16477, -3.39608l 4.16477,
 -3.4857l 4.16477, -3.57574l 4.16477, -3.66612l 4.16477, -3.75677l 4.16477, -3.8476l 4.16477, -3.93855l 4.16477, -4.02955l 4.16477, -4.12052l 4.16477, -4.2114l 4.16477, -4.30213l 4.16477, -4.39266l 4.16477, -4.48293l 4.16477, -4.5729l 4.16477,
 -4.6625l 4.16477, -4.75171l 4.16477, -4.84049l 4.16477, -4.92879l 4.16477, -5.01659l 4.16477, -5.10386l 4.16477, -5.19058l 4.16477, -5.27672l 4.16477, -5.36226l 4.16477, -5.44718l 4.16477, -5.53148l 4.16477, -5.61515l 4.16477, -5.69816l 4.16477,
 -5.78053l 4.16477, -5.86224l 4.16477, -5.94329l 4.16477, -6.02368l 4.16477, -6.10341l 4.16477, -6.18248l 4.16477, -6.2609l 4.16477, -6.33867l 4.16477, -6.4158l 4.16477, -6.4923l 4.16477, -6.56817" fill="none" stroke="#00ff00" fill-opacity="0.10"
 stroke-opacity="0.10" stroke-width="5"/>
<path d="M77.8085,332.042l 4.16477, -0.429651l 4.16477, -0.442661l 4.16477, -0.456259l 4.16477, -0.470472l 4.16477, -0.485331l 4.16477, -0.50086l 4.16477, -0.517089l 4.16477, -0.534051l 4.16477, -0.551775l 4.16477, -0.570297l 4.16477, -0.589653l
 4.16477, -0.609879l 4.16477, -0.631012l 4.16477, -0.653088l 4.16477, -0.676145l 4.16477, -0.700224l 4.16477, -0.725364l 4.16477, -0.751607l 4.16477, -0.778994l 4.16477, -0.807568l 4.16477, -0.83737l 4.16477, -0.868443l 4.16477, -0.900831l 4.16477,
 -0.934575l 4.16477, -0.969718l 4.16477, -1.0063l 4.16477, -1.04436l 4.16477, -1.08394l 4.16477, -1.12508l 4.16477, -1.16782l 4.16477, -1.21218l 4.16477, -1.25819l 4.16477, -1.3059l 4.16477, -1.35532l 4.16477, -1.40648l 4.16477, -1.45939l 4.16477,
 -1.51407l 4.16477, -1.57053l 4.16477, -1.62877l 4.16477, -1.6888l 4.16477, -1.75061l 4.16477, -1.81419l 4.16477, -1.87953l 4.16477, -1.94661l 4.16477, -2.0154l 4.16477, -2.08586l 4.16477, -2.15796l 4.16477, -2.23166l 4.16477, -2.30691l 4.16477,
 -2.38365l 4.16477, -2.46182l 4.16477, -2.54137l 4.16477, -2.62223l 4.16477, -2.70432l 4.16477, -2.78757l 4.16477, -2.8719l 4.16477, -2.95724l 4.16477, -3.04349l 4.16477, -3.13059l 4.16477, -3.21844l 4.16477, -3.30697l 4.16477, -3.39608l 4.16477,
 -3.4857l 4.16477, -3.57574l 4.16477, -3.66612l 4.16477, -3.75677l 4.16477, -3.8476l 4.16477, -3.93855l 4.16477, -4.02955l 4.16477, -4.12052l 4.16477, -4.2114l 4.16477, -4.30213l 4.16477, -4.39266l 4.16477, -4.48293l 4.16477, -4.5729l 4.16477,
 -4.6625l 4.16477, -4.75171l 4.16477, -4.84049l 4.16477, -4.92879l 4.16477, -5.01659l 4.16477, -5.10386l 4.16477, -5.19058l 4.16477, -5.27672l 4.16477, -5.36226l 4.16477, -5.44718l 4.16477, -5.53148l 4.16477, -5.61515l 4.16477, -5.69816l 4.16477,
 -5.78053l 4.16477, -5.86224l 4.16477, -5.94329l 4.16477, -6.02368l 4.16477, -6.10341l 4.16477, -6.18248l 4.16477, -6.2609l 4.16477, -6.33867l 4.16477, -6.4158l 4.16477, -6.4923l 4.16477, -6.56817" fill="none" stroke="#00ff00" fill-opacity="0.10"
 stroke-opacity="0.10" stroke-width="5"/>
<path d="M77.8085,332.042l 4.16477, -0.429651l 4.16477, -0.442661l 4.16477, -0.456259l 4.16477, -0.470472l 4.16477, -0.485331l 4.16477, -0.50086l 4.16477, -0.517089l 4.16477, -0.534051l 4.16477, -0.551775l 4.16477, -0.570297l 4.16477, -0.589653l
 4.16477, -0.609879l 4.16477, -0.631012l 4.16477, -0.653088l 4.16477, -0.676145l 4.16477, -0.700224l 4.16477, -0.725364l 4.16477, -0.751607l 4.16477, -0.778994l 4.16477, -0.807568l 4.16477, -0.83737l 4.16477, -0.868443l 4.16477, -0.900831l 4.16477,
 -0.934575l 4.16477, -0.969718l 4.16477, -1.0063l 4.16477, -1.04436l 4.16477, -1.08394l 4.16477, -1.12508l 4.16477, -1.16782l 4.16477, -1.21218l 4.16477, -1.25819l 4.16477, -1.3059l 4.16477, -1.35532l 4.16477, -1.40648l 4.16477, -1.45939l 4.16477,
 -1.51407l 4.16477, -1.57053l 4.16477, -1.62877l 4.16477, -1.6888l 4.16477, -1.75061l 4.16477, -1.81419l 4.16477, -1.87953l 4.16477, -1.94661l 4.16477, -2.0154l 4.16477, -2.08586l 4.16477, -2.15796l 4.16477, -2.23166l 4.16477, -2.30691l 4.16477,
 -2.38365l 4.16477, -2.46182l 4.16477, -2.54137l 4.16477, -2.62223l 4.16477, -2.70432l 4.16477, -2.78757l 4.16477, -2.8719l 4.16477, -2.95724l 4.16477, -3.04349l 4.16477, -3.13059l 4.16477, -3.21844l 4.16477, -3.30697l 4.16477, -3.39608l 4.16477,
 -3.4857l 4.16477, -3.57574l 4.16477, -3.66612l 4.16477, -3.75677l 4.16477, -3.8476l 4.16477, -3.93855l 4.16477, -4.02955l 4.16477, -4.12052l 4.16477, -4.2114l 4.16477, -4.30213l 4.16477, -4.39266l 4.16477, -4.48293l 4.16477, -4.5729l 4.16477,
 -4.6625l 4.16477, -4.75171l 4.16477, -4.84049l 4.16477, -4.92879l 4.16477, -5.01659l 4.16477, -5.10386l 4.16477, -5.19058l 4.16477, -5.27672l 4.16477, -5.36226l 4.16477, -5.44718l 4.16477, -5.53148l 4.16477, -5.61515l 4.16477, -5.69816l 4.16477,
 -5.78053l 4.16477, -5.86224l 4.16477, -5.94329l 4.16477, -6.02368l 4.16477, -6.10341l 4.16477, -6.18248l 4.16477, -6.2609l 4.16477, -6.33867l 4.16477, -6.4158l 4.16477, -6.4923l 4.16477, -6.56817" fill="none" stroke="#00ff00" fill-opacity="0.10"
 stroke-opacity="0.10" stroke-width="5"/>
<path d="M77.8085,332.042l 4.16477, -0.429651l 4.16477, -0.442661l 4.16477, -0.456259l 4.16477, -0.470472l 4.16477, -0.485331l 4.16477, -0.50086l 4.16477, -0.517089l 4.16477, -0.534051l 4.16477, -0.551775l 4.16477, -0.570297l 4.16477, -0.589653l
 4.16477, -0.609879l 4.16477, -0.631012l 4.16477, -0.653088l 4.16477, -0.676145l 4.16477, -0.700224l 4.16477, -0.725364l 4.16477, -0.751607l 4.16477, -0.778994l 4.16477, -0.807568l 4.16477, -0.83737l 4.16477, -0.868443l 4.16477, -0.900831l 4.16477,
 -0.934575l 4.16477, -0.969718l 4.16477, -1.0063l 4.16477, -1.04436l 4.16477, -1.08394l 4.16477, -1.12508l 4.16477, -1.16782l 4.16477, -1.21218l 4.16477, -1.25819l 4.16477, -1.3059l 4.16477, -1.35532l 4.16477, -1.40648l 4.16477, -1.45939l 4.16477,
 -1.51407l 4.16477, -1.57053l 4.16477, -1.62877l 4.16477, -1.6888l 4.16477, -1.75061l 4.16477, -1.81419l 4.16477, -1.87953l 4.16477, -1.94661l 4.16477, -2.0154l 4.16477, -2.08586l 4.16477, -2.15796l 4.16477, -2.23166l 4.16477, -2.30691l 4.16477,
 -2.38365l 4.16477, -2.46182l 4.16477, -2.54137l 4.16477, -2.62223l 4.16477, -2.70432l 4.16477, -2.78757l 4.16477, -2.8719l 4.16477, -2.95724l 4.16477, -3.04349l 4.16477, -3.13059l 4.16477, -3.21844l 4.16477, -3.30697l 4.16477, -3.39608l 4.16477,
 -3.4857l 4.16477, -3.57574l 4.16477, -3.66612l 4.16477, -3.75677l 4.16477, -3.8476l 4.16477, -3.93855l 4.16477, -4.02955l 4.16477, -4.12052l 4.16477, -4.2114l 4.16477, -4.30213l 4.16477, -4.39266l 4.16477, -4.48293l 4.16477, -4.5729l 4.16477,
 -4.6625l 4.16477, -4.75171l 4.16477, -4.84049l 4.16477, -4.92879l 4.16477, -5.01659l 4.16477, -5.10386l 4.16477, -5.19058l 4.16477, -5.27672l 4.16477, -5.36226l 4.16477, -5.44718l 4.16477, -5.53148l 4.16477, -5.61515l 4.16477, -5.69816l 4.16477,
 -5.78053l 4.16477, -5.86224l 4.16477, -5.94329l 4.16477, -6.02368l 4.16477, -6.10341l 4.16477, -6.18248l 4.16477, -6.2609l 4.16477, -6.33867l 4.16477, -6.4158l 4.16477, -6.4923l 4.16477, -6.56817" fill="none" stroke="#00ff00" fill-opacity="0.10"
 stroke-opacity="0.10" stroke-width="5"/>
<path d="M77.8085,332.042l 4.16477, -0.429651l 4.16477, -0.442661l 4.16477, -0.456259l 4.16477, -0.470472l 4.16477, -0.485331l 4.16477, -0.50086l 4.16477, -0.517089l 4.16477, -0.534051l 4.16477, -0.551775l 4.16477, -0.570297l 4.16477, -0.589653l
 4.16477, -0.609879l 4.16477, -0.631012l 4.16477, -0.653088l 4.16477, -0.676145l 4.16477, -0.700224l 4.16477, -0.725364l 4.16477, -0.751607l 4.16477, -0.778994l 4.16477, -0.807568l 4.16477, -0.83737l 4.16477, -0.868443l 4.16477, -0.900831l 4.16477,
 -0.934575l 4.16477, -0.969718l 4.16477, -1.0063l 4.16477, -1.04436l 4.16477, -1.08394l 4.16477, -1.12508l 4.16477, -1.16782l 4.16477, -1.21218l 4.16477, -1.25819l 4.16477, -1.3059l 4.16477, -1.35532l 4.16477, -1.40648l 4.16477, -1.45939l 4.16477,
 -1.51407l 4.16477, -1.57053l 4.16477, -1.62877l 4.16477, -1.6888l 4.16477, -1.75061l 4.16477, -1.81419l 4.16477, -1.87953l 4.16477, -1.94661l 4.16477, -2.0154l 4.16477, -2.08586l 4.16477, -2.15796l 4.16477, -2.23166l 4.16477, -2.30691l 4.16477,
 -2.38365l 4.16477, -2.46182l 4.16477, -2.54137l 4.16477, -2.62223l 4.16477, -2.70432l 4.16477, -2.78757l 4.16477, -2.8719l 4.16477, -2.95724l 4.16477, -3.04349l 4.16477, -3.13059l 4.16477, -3.21844l 4.16477, -3.30697l 4.16477, -3.39608l 4.16477,
 -3.4857l 4.16477, -3.57574l 4.16477, -3.66612l 4.16477, -3.75677l 4.16477, -3.8476l 4.16477, -3.93855l 4.16477, -4.02955l 4.16477, -4.12052l 4.16477, -4.2114l 4.16477, -4.30213l 4.16477, -4.39266l 4.16477, -4.48293l 4.16477, -4.5729l 4.16477,
 -4.6625l 4.16477, -4.75171l 4.16477, -4.84049l 4.16477, -4.92879l 4.16477, -5.01659l 4.16477, -5.10386l 4.16477, -5.19058l 4.16477, -5.27672l 4.16477, -5.36226l 4.16477, -5.44718l 4.16477, -5.53148l 4.16477, -5.61515l 4.16477, -5.69816l 4.16477,
 -5.78053l 4.16477, -5.86224l 4.16477, -5.94329l 4.16477, -6.02368l 4.16477, -6.10341l 4.16477, -6.18248l 4.16477, -6.2609l 4.16477, -6.33867l 4.16477, -6.4158l 4.16477, -6.4923l 4.16477, -6.56817" fill="none" stroke="#00ff00" fill-opacity="0.10"
 stroke-opacity="0.10" stroke-width="5"/>
<path d="M77.8085,332.042l 4.16477, -0.429651l 4.16477, -0.442661l 4.16477, -0.456259l 4.16477, -0.470472l 4.16477, -0.485331l 4.16477, -0.50086l 4.16477, -0.517089l 4.16477, -0.534051l 4.16477, -0.551775l 4.16477, -0.570297l 4.16477, -0.589653l
 4.16477, -0.609879l 4.16477, -0.631012l 4.16477, -0.653088l 4.16477, -0.676145l 4.16477, -0.700224l 4.16477, -0.725364l 4.16477, -0.751607l 4.16477, -0.778994l 4.16477, -0.807568l 4.16477, -0.83737l 4.16477, -0.868443l 4.16477, -0.900831l 4.16477,
 -0.934575l 4.16477, -0.969718l 4.16477, -1.0063l 4.16477, -1.04436l 4.16477, -1.08394l 4.16477, -1.12508l 4.16477, -1.16782l 4.16477, -1.21218l 4.16477, -1.25819l 4.16477, -1.3059l 4.16477, -1.35532l 4.16477, -1.40648l 4.16477, -1.45939l 4.16477,
 -1.51407l 4.16477, -1.57053l 4.16477, -1.62877l 4.16477, -1.6888l 4.16477, -1.75061l 4.16477, -1.81419l 4.16477, -1.87953l 4.16477, -1.94661l 4.16477, -2.0154l 4.16477, -2.08586l 4.16477, -2.15796l 4.16477, -2.23166l 4.16477, -2.30691l 4.16477,
 -2.38365l 4.16477, -2.46182l 4.16477, -2.54137l 4.16477, -2.62223l 4.16477, -2.70432l 4.16477, -2.78757l 4.16477, -2.8719l 4.16477, -2.95724l 4.16477, -3.04349l 4.16477, -3.13059l 4.16477, -3.21844l 4.16477, -3.30697l 4.16477, -3.39608l 4.16477,
 -3.4857l 4.16477, -3.57574l 4.16477, -3.66612l 4.16477, -3.75677l 4.16477, -3.8476l 4.16477, -3.93855l 4.16477, -4.02955l 4.16477, -4.12052l 4.16477, -4.2114l 4.16477, -4.30213l 4.16477, -4.39266l 4.16477, -4.48293l 4.16477, -4.5729l 4.16477,
 -4.6625l 4.16477, -4.75171l 4.16477, -4.84049l 4.16477, -4.92879l 4.16477, -5.01659l 4.16477, -5.10386l 4.16477, -5.19058l 4.16477, -5.27672l 4.16477, -5.36226l 4.16477, -5.44718l 4.16477, -5.53148l 4.16477, -5.61515l 4.16477, -5.69816l 4.16477,
 -5.78053l 4.16477, -5.86224l 4.16477, -5.94329l 4.16477, -6.02368l 4.16477, -6.10341l 4.16477, -6.18248l 4.16477, -6.2609l 4.16477, -6.33867l 4.16477, -6.4158l 4.16477, -6.4923l 4.16477, -6.56817" fill="none" stroke="#00ff00" fill-opacity="0.10"
 stroke-opacity="0.10" stroke-width="5"/>
<path d="M77.8085,332.042l 4.16477, -0.429651l 4.16477, -0.442661l 4.16477, -0.456259l 4.16477, -0.470472l 4.16477, -0.485331l 4.16477, -0.50086l 4.16477, -0.517089l 4.16477, -0.534051l 4.16477, -0.551775l 4.16477, -0.570297l 4.16477, -0.589653l
 4.16477, -0.609879l 4.16477, -0.631012l 4.16477, -0.653088l 4.16477, -0.676145l 4.16477, -0.700224l 4.16477, -0.725364l 4.16477, -0.751607l 4.16477, -0.778994l 4.16477, -0.807568l 4.16477, -0.83737l 4.16477, -0.868443l 4.16477, -0.900831l 4.16477,
 -0.934575l 4.16477, -0.969718l 4.16477, -1.0063l 4.16477, -1.04436l 4.16477, -1.08394l 4.16477, -1.12508l 4.16477, -1.16782l 4.16477, -1.21218l 4.16477, -1.25819l 4.16477, -1.3059l 4.16477, -1.35532l 4.16477, -1.40648l 4.16477, -1.45939l 4.16477,
 -1.51407l 4.16477, -1.57053l 4.16477, -1.62877l 4.16477, -1.6888l 4.16477, -1.75061l 4.16477, -1.81419l 4.16477, -1.87953l 4.16477, -1.94661l 4.16477, -2.0154l 4.16477, -2.08586l 4.16477, -2.15796l 4.16477, -2.23166l 4.16477, -2.30691l 4.16477,
 -2.38365l 4.16477, -2.46182l 4.16477, -2.54137l 4.16477, -2.62223l 4.16477, -2.70432l 4.16477, -2.78757l 4.16477, -2.8719l 4.16477, -2.95724l 4.16477, -3.04349l 4.16477, -3.13059l 4.16477, -3.21844l 4.16477, -3.30697l 4.16477, -3.39608l 4.16477,
 -3.4857l 4.16477, -3.57574l 4.16477, -3.66612l 4.16477, -3.75677l 4.16477, -3.8476l 4.16477, -3.93855l 4.16477, -4.02955l 4.16477, -4.12052l 4.16477, -4.2114l 4.16477, -4.30213l 4.16477, -4.39266l 4.16477, -4.48293l 4.16477, -4.5729l 4.16477,
 -4.6625l 4.16477, -4.75171l 4.16477, -4.84049l 4.16477, -4.92879l 4.16477, -5.01659l 4.16477, -5.10386l 4.16477, -5.19058l 4.16477, -5.27672l 4.16477, -5.36226l 4.16477, -5.44718l 4.16477, -5.53148l 4.16477, -5.61515l 4.16477, -5.69816l 4.16477,
 -5.78053l 4.16477, -5.86224l 4.16477, -5.94329l 4.16477, -6.02368l 4.16477, -6.10341l 4.16477, -6.18248l 4.16477, -6.2609l 4.16477, -6.33867l 4.16477, -6.4158l 4.16477, -6.4923l 4.16477, -6.56817" fill="none" stroke="#00ff00" fill-opacity="0.10"
 stroke-opacity="0.10" stroke-width="5"/>
<path d="M77.8085,332.042l 4.16477, -0.429651l 4.16477, -0.442661l 4.16477, -0.456259l 4.16477, -0.470472l 4.16477, -0.485331l 4.16477, -0.50086l 4.16477, -0.517089l 4.16477, -0.534051l 4.16477, -0.551775l 4.16477, -0.570297l 4.16477, -0.589653l
 4.16477, -0.609879l 4.16477, -0.631012l 4.16477, -0.653088l 4.16477, -0.676145l 4.16477, -0.700224l 4.16477, -0.725364l 4.16477, -0.751607l 4.16477, -0.778994l 4.16477, -0.807568l 4.16477, -0.83737l 4.16477, -0.868443l 4.16477, -0.900831l 4.16477,
 -0.934575l 4.16477, -0.969718l 4.16477, -1.0063l 4.16477, -1.04436l 4.16477, -1.08394l 4.16477, -1.12508l 4.16477, -1.16782l 4.16477, -1.21218l 4.16477, -1.25819l 4.16477, -1.3059l 4.16477, -1.35532l 4.16477, -1.40648l 4.16477, -1.45939l 4.16477,
 -1.51407l 4.16477, -1.57053l 4.16477, -1.62877l 4.16477, -1.6888l 4.16477, -1.75061l 4.16477, -1.81419l 4.16477, -1.87953l 4.16477, -1.94661l 4.16477, -2.0154l 4.16477, -2.08586l 4.16477, -2.15796l 4.16477, -2.23166l 4.16477, -2.30691l 4.16477,
 -2.38365l 4.16477, -2.46182l 4.16477, -2.54137l 4.16477, -2.62223l 4.16477, -2.70432l 4.16477, -2.78757l 4.16477, -2.8719l 4.16477, -2.95724l 4.16477, -3.04349l 4.16477, -3.13059l 4.16477, -3.21844l 4.16477, -3.30697l 4.16477, -3.39608l 4.16477,
 -3.4857l 4.16477, -3.57574l 4.16477, -3.66612l 4.16477, -3.75677l 4.16477, -3.8476l 4.16477, -3.93855l 4.16477, -4.02955l 4.16477, -4.12052l 4.16477, -4.2114l 4.16477, -4.30213l 4.16477, -4.39266l 4.16477, -4.48293l 4.16477, -4.5729l 4.16477,
 -4.6625l 4.16477, -4.75171l 4.16477, -4.84049l 4.16477, -4.92879l 4.16477, -5.01659l 4.16477, -5.10386l 4.16477, -5.19058l 4.16477, -5.27672l 4.16477, -5.36226l 4.16477, -5.44718l 4.16477, -5.53148l 4.16477, -5.61515l 4.16477, -5.69816l 4.16477,
 -5.78053l 4.16477, -5.86224l 4.16477, -5.94329l 4.16477, -6.02368l 4.16477, -6.10341l 4.16477, -6.18248l 4.16477, -6.2609l 4.16477, -6.33867l 4.16477, -6.4158l 4.16477, -6.4923l 4.16477, -6.56817" fill="none" stroke="#00ff00" fill-opacity="0.10"
 stroke-opacity="0.10" stroke-width="5"/>
<path d="M77.8085,332.042l 4.16477, -0.429651l 4.16477, -0.442661l 4.16477, -0.456259l 4.16477, -0.470472l 4.16477, -0.485331l 4.16477, -0.50086l 4.16477, -0.517089l 4.16477, -0.534051l 4.16477, -0.551775l 4.16477, -0.570297l 4.16477, -0.589653l
 4.16477, -0.609879l 4.16477, -0.631012l 4.16477, -0.653088l 4.16477, -0.676145l 4.16477, -0.700224l 4.16477, -0.725364l 4.16477, -0.751607l 4.16477, -0.778994l 4.16477, -0.807568l 4.16477, -0.83737l 4.16477, -0.868443l 4.16477, -0.900831l 4.16477,
 -0.934575l 4.16477, -0.969718l 4.16477, -1.0063l 4.16477, -1.04436l 4.16477, -1.08394l 4.16477, -1.12508l 4.16477, -1.16782l 4.16477, -1.21218l 4.16477, -1.25819l 4.16477, -1.3059l 4.16477, -1.35532l 4.16477, -1.40648l 4.16477, -1.45939l 4.16477,
 -1.51407l 4.16477, -1.57053l 4.16477, -1.62877l 4.16477, -1.6888l 4.16477, -1.75061l 4.16477, -1.81419l 4.16477, -1.87953l 4.16477, -1.94661l 4.16477, -2.0154l 4.16477, -2.08586l 4.16477, -2.15796l 4.16477, -2.23166l 4.16477, -2.30691l 4.16477,
 -2.38365l 4.16477, -2.46182l 4.16477, -2.54137l 4.16477, -2.62223l 4.16477, -2.70432l 4.16477, -2.78757l 4.16477, -2.8719l 4.16477, -2.95724l 4.16477, -3.04349l 4.16477, -3.13059l 4.16477, -3.21844l 4.16477, -3.30697l 4.16477, -3.39608l 4.16477,
 -3.4857l 4.16477, -3.57574l 4.16477, -3.66612l 4.16477, -3.75677l 4.16477, -3.8476l 4.16477, -3.93855l 4.16477, -4.02955l 4.16477, -4.12052l 4.16477, -4.2114l 4.16477, -4.30213l 4.16477, -4.39266l 4.16477, -4.48293l 4.16477, -4.5729l 4.16477,
 -4.6625l 4.16477, -4.75171l 4.16477, -4.84049l 4.16477, -4.92879l 4.16477, -5.01659l 4.16477, -5.10386l 4.16477, -5.19058l 4.16477, -5.27672l 4.16477, -5.36226l 4.16477, -5.44718l 4.16477, -5.53148l 4.16477, -5.61515l 4.16477, -5.69816l 4.16477,
 -5.78053l 4.16477, -5.86224l 4.16477, -5.94329l 4.16477, -6.02368l 4.16477, -6.10341l 4.16477, -6.18248l 4.16477, -6.2609l 4.16477, -6.33867l 4.16477, -6.4158l 4.16477, -6.4923l 4.16477, -6.56817" fill="none" stroke="#00ff00" fill-opacity="0.10"
 stroke-opacity="0.10" stroke-width="5"/>
<path d="M77.8085,332.042l 4.16477, -0.429651l 4.16477, -0.442661l 4.16477, -0.456259l 4.16477, -0.470472l 4.16477, -0.485331l 4.16477, -0.50086l 4.16477, -0.517089l 4.16477, -0.534051l 4.16477, -0.551775l 4.16477, -0.570297l 4.16477, -0.589653l
 4.16477, -0.609879l 4.16477, -0.631012l 4.16477, -0.653088l 4.16477, -0.676145l 4.16477, -0.700224l 4.16477, -0.725364l 4.16477, -0.751607l 4.16477, -0.778994l 4.16477, -0.807568l 4.16477, -0.83737l 4.16477, -0.868443l 4.16477, -0.900831l 4.16477,
 -0.934575l 4.16477, -0.969718l 4.16477, -1.0063l 4.16477, -1.04436l 4.16477, -1.08394l 4.16477, -1.12508l 4.16477, -1.16782l 4.16477, -1.21218l 4.16477, -1.25819l 4.16477, -1.3059l 4.16477, -1.35532l 4.16477, -1.40648l 4.16477, -1.45939l 4.16477,
 -1.51407l 4.16477, -1.57053l 4.16477, -1.62877l 4.16477, -1.6888l 4.16477, -1.75061l 4.16477, -1.81419l 4.16477, -1.87953l 4.16477, -1.94661l 4.16477, -2.0154l 4.16477, -2.08586l 4.16477, -2.15796l 4.16477, -2.23166l 4.16477, -2.30691l 4.16477,
 -2.38365l 4.16477, -2.46182l 4.16477, -2.54137l 4.16477, -2.62223l 4.16477, -2.70432l 4.16477, -2.78757l 4.16477, -2.8719l 4.16477, -2.95724l 4.16477, -3.04349l 4.16477, -3.13059l 4.16477, -3.21844l 4.16477, -3.30697l 4.16477, -3.39608l 4.16477,
 -3.4857l 4.16477, -3.57574l 4.16477, -3.66612l 4.16477, -3.75677l 4.16477, -3.8476l 4.16477, -3.93855l 4.16477, -4.02955l 4.16477, -4.12052l 4.16477, -4.2114l 4.16477, -4.30213l 4.16477, -4.39266l 4.16477, -4.48293l 4.16477, -4.5729l 4.16477,
 -4.6625l 4.16477, -4.75171l 4.16477, -4.84049l 4.16477, -4.92879l 4.16477, -5.01659l 4.16477, -5.10386l 4.16477, -5.19058l 4.16477, -5.27672l 4.16477, -5.36226l 4.16477, -5.44718l 4.16477, -5.53148l 4.16477, -5.61515l 4.16477, -5.69816l 4.16477,
 -5.78053l 4.16477, -5.86224l 4.16477, -5.94329l 4.16477, -6.02368l 4.16477, -6.10341l 4.16477, -6.18248l 4.16477, -6.2609l 4.16477, -6.33867l 4.16477, -6.4158l 4.16477, -6.4923l 4.16477, -6.56817" fill="none" stroke="#00ff00" fill-opacity="0.10"
 stroke-opacity="0.10" stroke-width="5"/>
<path d="M77.8085,332.042l 4.16477, -0.429651l 4.16477, -0.442661l 4.16477, -0.456259l 4.16477, -0.470472l 4.16477, -0.485331l 4.16477, -0.50086l 4.16477, -0.517089l 4.16477, -0.534051l 4.16477, -0.551775l 4.16477, -0.570297l 4.16477, -0.589653l
 4.16477, -0.609879l 4.16477, -0.631012l 4.16477, -0.653088l 4.16477, -0.676145l 4.16477, -0.700224l 4.16477, -0.725364l 4.16477, -0.751607l 4.16477, -0.778994l 4.16477, -0.807568l 4.16477, -0.83737l 4.16477, -0.868443l 4.16477, -0.900831l 4.16477,
 -0.934575l 4.16477, -0.969718l 4.16477, -1.0063l 4.16477, -1.04436l 4.16477, -1.08394l 4.16477, -1.12508l 4.16477, -1.16782l 4.16477, -1.21218l 4.16477, -1.25819l 4.16477, -1.3059l 4.16477, -1.35532l 4.16477, -1.40648l 4.16477, -1.45939l 4.16477,
 -1.51407l 4.16477, -1.57053l 4.16477, -1.62877l 4.16477, -1.6888l 4.16477, -1.75061l 4.16477, -1.81419l 4.16477, -1.87953l 4.16477, -1.94661l 4.16477, -2.0154l 4.16477, -2.08586l 4.16477, -2.15796l 4.16477, -2.23166l 4.16477, -2.30691l 4.16477,
 -2.38365l 4.16477, -2.46182l 4.16477, -2.54137l 4.16477, -2.62223l 4.16477, -2.70432l 4.16477, -2.78757l 4.16477, -2.8719l 4.16477, -2.95724l 4.16477, -3.04349l 4.16477, -3.13059l 4.16477, -3.21844l 4.16477, -3.30697l 4.16477, -3.39608l 4.16477,
 -3.4857l 4.16477, -3.57574l 4.16477, -3.66612l 4.16477, -3.75677l 4.16477, -3.8476l 4.16477, -3.93855l 4.16477, -4.02955l 4.16477, -4.12052l 4.16477, -4.2114l 4.16477, -4.30213l 4.16477, -4.39266l 4.16477, -4.48293l 4.16477, -4.5729l 4.16477,
 -4.6625l 4.16477, -4.75171l 4.16477, -4.84049l 4.16477, -4.92879l 4.16477, -5.01659l 4.16477, -5.10386l 4.16477, -5.19058l 4.16477, -5.27672l 4.16477, -5.36226l 4.16477, -5.44718l 4.16477, -5.53148l 4.16477, -5.61515l 4.16477, -5.69816l 4.16477,
 -5.78053l 4.16477, -5.86224l 4.16477, -5.94329l 4.16477, -6.02368l 4.16477, -6.10341l 4.16477, -6.18248l 4.16477, -6.2609l 4.16477, -6.33867l 4.16477, -6.4158l 4.16477, -6.4923l 4.16477, -6.56817" fill="none" stroke="#00ff00" fill-opacity="0.10"
 stroke-opacity="0.10" stroke-width="5"/>
<path d="M77.8085,332.042l 4.16477, -0.429651l 4.16477, -0.442661l 4.16477, -0.456259l 4.16477, -0.470472l 4.16477, -0.485331l 4.16477, -0.50086l 4.16477, -0.517089l 4.16477, -0.534051l 4.16477, -0.551775l 4.16477, -0.570297l 4.16477, -0.589653l
 4.16477, -0.609879l 4.16477, -0.631012l 4.16477, -0.653088l 4.16477, -0.676145l 4.16477, -0.700224l 4.16477, -0.725364l 4.16477, -0.751607l 4.16477, -0.778994l 4.16477, -0.807568l 4.16477, -0.83737l 4.16477, -0.868443l 4.16477, -0.900831l 4.16477,
 -0.934575l 4.16477, -0.969718l 4.16477, -1.0063l 4.16477, -1.04436l 4.16477, -1.08394l 4.16477, -1.12508l 4.16477, -1.16782l 4.16477, -1.21218l 4.16477, -1.25819l 4.16477, -1.3059l 4.16477, -1.35532l 4.16477, -1.40648l 4.16477, -1.45939l 4.16477,
 -1.51407l 4.16477, -1.57053l 4.16477, -1.62877l 4.16477, -1.6888l 4.16477, -1.75061l 4.16477, -1.81419l 4.16477, -1.87953l 4.16477, -1.94661l 4.16477, -2.0154l 4.16477, -2.08586l 4.16477, -2.15796l 4.16477, -2.23166l 4.16477, -2.30691l 4.16477,
 -2.38365l 4.16477, -2.46182l 4.16477, -2.54137l 4.16477, -2.62223l 4.16477, -2.70432l 4.16477, -2.78757l 4.16477, -2.8719l 4.16477, -2.95724l 4.16477, -3.04349l 4.16477, -3.13059l 4.16477, -3.21844l 4.16477, -3.30697l 4.16477, -3.39608l 4.16477,
 -3.4857l 4.16477, -3.57574l 4.16477, -3.66612l 4.16477, -3.75677l 4.16477, -3.8476l 4.16477, -3.93855l 4.16477, -4.02955l 4.16477, -4.12052l 4.16477, -4.2114l 4.16477, -4.30213l 4.16477, -4.39266l 4.16477, -4.48293l 4.16477, -4.5729l 4.16477,
 -4.6625l 4.16477, -4.75171l 4.16477, -4.84049l 4.16477, -4.92879l 4.16477, -5.01659l 4.16477, -5.10386l 4.16477, -5.19058l 4.16477, -5.27672l 4.16477, -5.36226l 4.16477, -5.44718l 4.16477, -5.53148l 4.16477, -5.61515l 4.16477, -5.69816l 4.16477,
 -5.78053l 4.16477, -5.86224l 4.16477, -5.94329l 4.16477, -6.02368l 4.16477, -6.10341l 4.16477, -6.18248l 4.16477, -6.2609l 4.16477, -6.33867l 4.16477, -6.4158l 4.16477, -6.4923l 4.16477, -6.56817" fill="none" stroke="#00ff00" fill-opacity="0.10"
 stroke-opacity="0.10" stroke-width="5"/>
<path d="M77.8085,332.042l 4.16477, -0.429651l 4.16477, -0.442661l 4.16477, -0.456259l 4.16477, -0.470472l 4.16477, -0.485331l 4.16477, -0.50086l 4.16477, -0.517089l 4.16477, -0.534051l 4.16477, -0.551775l 4.16477, -0.570297l 4.16477, -0.589653l
 4.16477, -0.609879l 4.16477, -0.631012l 4.16477, -0.653088l 4.16477, -0.676145l 4.16477, -0.700224l 4.16477, -0.725364l 4.16477, -0.751607l 4.16477, -0.778994l 4.16477, -0.807568l 4.16477, -0.83737l 4.16477, -0.868443l 4.16477, -0.900831l 4.16477,
 -0.934575l 4.16477, -0.969718l 4.16477, -1.0063l 4.16477, -1.04436l 4.16477, -1.08394l 4.16477, -1.12508l 4.16477, -1.16782l 4.16477, -1.21218l 4.16477, -1.25819l 4.16477, -1.3059l 4.16477, -1.35532l 4.16477, -1.40648l 4.16477, -1.45939l 4.16477,
 -1.51407l 4.16477, -1.57053l 4.16477, -1.62877l 4.16477, -1.6888l 4.16477, -1.75061l 4.16477, -1.81419l 4.16477, -1.87953l 4.16477, -1.94661l 4.16477, -2.0154l 4.16477, -2.08586l 4.16477, -2.15796l 4.16477, -2.23166l 4.16477, -2.30691l 4.16477,
 -2.38365l 4.16477, -2.46182l 4.16477, -2.54137l 4.16477, -2.62223l 4.16477, -2.70432l 4.16477, -2.78757l 4.16477, -2.8719l 4.16477, -2.95724l 4.16477, -3.04349l 4.16477, -3.13059l 4.16477, -3.21844l 4.16477, -3.30697l 4.16477, -3.39608l 4.16477,
 -3.4857l 4.16477, -3.57574l 4.16477, -3.66612l 4.16477, -3.75677l 4.16477, -3.8476l 4.16477, -3.93855l 4.16477, -4.02955l 4.16477, -4.12052l 4.16477, -4.2114l 4.16477, -4.30213l 4.16477, -4.39266l 4.16477, -4.48293l 4.16477, -4.5729l 4.16477,
 -4.6625l 4.16477, -4.75171l 4.16477, -4.84049l 4.16477, -4.92879l 4.16477, -5.01659l 4.16477, -5.10386l 4.16477, -5.19058l 4.16477, -5.27672l 4.16477, -5.36226l 4.16477, -5.44718l 4.16477, -5.53148l 4.16477, -5.61515l 4.16477, -5.69816l 4.16477,
 -5.78053l 4.16477, -5.86224l 4.16477, -5.94329l 4.16477, -6.02368l 4.16477, -6.10341l 4.16477, -6.18248l 4.16477, -6.2609l 4.16477, -6.33867l 4.16477, -6.4158l 4.16477, -6.4923l 4.16477, -6.56817" fill="none" stroke="#00ff00" fill-opacity="0.10"
 stroke-opacity="0.10" stroke-width="5"/>
<path d="M77.8085,332.042l 4.16477, -0.429651l 4.16477, -0.442661l 4.16477, -0.456259l 4.16477, -0.470472l 4.16477, -0.485331l 4.16477, -0.50086l 4.16477, -0.517089l 4.16477, -0.534051l 4.16477, -0.551775l 4.16477, -0.570297l 4.16477, -0.589653l
 4.16477, -0.609879l 4.16477, -0.631012l 4.16477, -0.653088l 4.16477, -0.676145l 4.16477, -0.700224l 4.16477, -0.725364l 4.16477, -0.751607l 4.16477, -0.778994l 4.16477, -0.807568l 4.16477, -0.83737l 4.16477, -0.868443l 4.16477, -0.900831l 4.16477,
 -0.934575l 4.16477, -0.969718l 4.16477, -1.0063l 4.16477, -1.04436l 4.16477, -1.08394l 4.16477, -1.12508l 4.16477, -1.16782l 4.16477, -1.21218l 4.16477, -1.25819l 4.16477, -1.3059l 4.16477, -1.35532l 4.16477, -1.40648l 4.16477, -1.45939l 4.16477,
 -1.51407l 4.16477, -1.57053l 4.16477, -1.62877l 4.16477, -1.6888l 4.16477, -1.75061l 4.16477, -1.81419l 4.16477, -1.87953l 4.16477, -1.94661l 4.16477, -2.0154l 4.16477, -2.08586l 4.16477, -2.15796l 4.16477, -2.23166l 4.16477, -2.30691l 4.16477,
 -2.38365l 4.16477, -2.46182l 4.16477, -2.54137l 4.16477, -2.62223l 4.16477, -2.70432l 4.16477, -2.78757l 4.16477, -2.8719l 4.16477, -2.95724l 4.16477, -3.04349l 4.16477, -3.13059l 4.16477, -3.21844l 4.16477, -3.30697l 4.16477, -3.39608l 4.16477,
 -3.4857l 4.16477, -3.57574l 4.16477, -3.66612l 4.16477, -3.75677l 4.16477, -3.8476l 4.16477, -3.93855l 4.16477, -4.02955l 4.16477, -4.12052l 4.16477, -4.2114l 4.16477, -4.30213l 4.16477, -4.39266l 4.16477, -4.48293l 4.16477, -4.5729l 4.16477,
 -4.6625l 4.16477, -4.75171l 4.16477, -4.84049l 4.16477, -4.92879l 4.16477, -5.01659l 4.16477, -5.10386l 4.16477, -5.19058l 4.16477, -5.27672l 4.16477, -5.36226l 4.16477, -5.44718l 4.16477, -5.53148l 4.16477, -5.61515l 4.16477, -5.69816l 4.16477,
 -5.78053l 4.16477, -5.86224l 4.16477, -5.94329l 4.16477, -6.02368l 4.16477, -6.10341l 4.16477, -6.18248l 4.16477, -6.2609l 4.16477, -6.33867l 4.16477, -6.4158l 4.16477, -6.4923l 4.16477, -6.56817" fill="none" stroke="#00ff00" fill-opacity="0.10"
 stroke-opacity="0.10" stroke-width="5"/>
<path d="M77.8085,332.042l 4.16477, -0.429651l 4.16477, -0.442661l 4.16477, -0.456259l 4.16477, -0.470472l 4.16477, -0.485331l 4.16477, -0.50086l 4.16477, -0.517089l 4.16477, -0.534051l 4.16477, -0.551775l 4.16477, -0.570297l 4.16477, -0.589653l
 4.16477, -0.609879l 4.16477, -0.631012l 4.16477, -0.653088l 4.16477, -0.676145l 4.16477, -0.700224l 4.16477, -0.725364l 4.16477, -0.751607l 4.16477, -0.778994l 4.16477, -0.807568l 4.16477, -0.83737l 4.16477, -0.868443l 4.16477, -0.900831l 4.16477,
 -0.934575l 4.16477, -0.969718l 4.16477, -1.0063l 4.16477, -1.04436l 4.16477, -1.08394l 4.16477, -1.12508l 4.16477, -1.16782l 4.16477, -1.21218l 4.16477, -1.25819l 4.16477, -1.3059l 4.16477, -1.35532l 4.16477, -1.40648l 4.16477, -1.45939l 4.16477,
 -1.51407l 4.16477, -1.57053l 4.16477, -1.62877l 4.16477, -1.6888l 4.16477, -1.75061l 4.16477, -1.81419l 4.16477, -1.87953l 4.16477, -1.94661l 4.16477, -2.0154l 4.16477, -2.08586l 4.16477, -2.15796l 4.16477, -2.23166l 4.16477, -2.30691l 4.16477,
 -2.38365l 4.16477, -2.46182l 4.16477, -2.54137l 4.16477, -2.62223l 4.16477, -2.70432l 4.16477, -2.78757l 4.16477, -2.8719l 4.16477, -2.95724l 4.16477, -3.04349l 4.16477, -3.13059l 4.16477, -3.21844l 4.16477, -3.30697l 4.16477, -3.39608l 4.16477,
 -3.4857l 4.16477, -3.57574l 4.16477, -3.66612l 4.16477, -3.75677l 4.16477, -3.8476l 4.16477, -3.93855l 4.16477, -4.02955l 4.16477, -4.12052l 4.16477, -4.2114l 4.16477, -4.30213l 4.16477, -4.39266l 4.16477, -4.48293l 4.16477, -4.5729l 4.16477,
 -4.6625l 4.16477, -4.75171l 4.16477, -4.84049l 4.16477, -4.92879l 4.16477, -5.01659l 4.16477, -5.10386l 4.16477, -5.19058l 4.16477, -5.27672l 4.16477, -5.36226l 4.16477, -5.44718l 4.16477, -5.53148l 4.16477, -5.61515l 4.16477, -5.69816l 4.16477,
 -5.78053l 4.16477, -5.86224l 4.16477, -5.94329l 4.16477, -6.02368l 4.16477, -6.10341l 4.16477, -6.18248l 4.16477, -6.2609l 4.16477, -6.33867l 4.16477, -6.4158l 4.16477, -6.4923l 4.16477, -6.56817" fill="none" stroke="#00ff00" fill-opacity="0.10"
 stroke-opacity="0.10" stroke-width="5"/>
<path d="M77.8085,332.042l 4.16477, -0.429651l 4.16477, -0.442661l 4.16477, -0.456259l 4.16477, -0.470472l 4.16477, -0.485331l 4.16477, -0.50086l 4.16477, -0.517089l 4.16477, -0.534051l 4.16477, -0.551775l 4.16477, -0.570297l 4.16477, -0.589653l
 4.16477, -0.609879l 4.16477, -0.631012l 4.16477, -0.653088l 4.16477, -0.676145l 4.16477, -0.700224l 4.16477, -0.725364l 4.16477, -0.751607l 4.16477, -0.778994l 4.16477, -0.807568l 4.16477, -0.83737l 4.16477, -0.868443l 4.16477, -0.900831l 4.16477,
 -0.934575l 4.16477, -0.969718l 4.16477, -1.0063l 4.16477, -1.04436l 4.16477, -1.08394l 4.16477, -1.12508l 4.16477, -1.16782l 4.16477, -1.21218l 4.16477, -1.25819l 4.16477, -1.3059l 4.16477, -1.35532l 4.16477, -1.40648l 4.16477, -1.45939l 4.16477,
 -1.51407l 4.16477, -1.57053l 4.16477, -1.62877l 4.16477, -1.6888l 4.16477, -1.75061l 4.16477, -1.81419l 4.16477, -1.87953l 4.16477, -1.94661l 4.16477, -2.0154l 4.16477, -2.08586l 4.16477, -2.15796l 4.16477, -2.23166l 4.16477, -2.30691l 4.16477,
 -2.38365l 4.16477, -2.46182l 4.16477, -2.54137l 4.16477, -2.62223l 4.16477, -2.70432l 4.16477, -2.78757l 4.16477, -2.8719l 4.16477, -2.95724l 4.16477, -3.04349l 4.16477, -3.13059l 4.16477, -3.21844l 4.16477, -3.30697l 4.16477, -3.39608l 4.16477,
 -3.4857l 4.16477, -3.57574l 4.16477, -3.66612l 4.16477, -3.75677l 4.16477, -3.8476l 4.16477, -3.93855l 4.16477, -4.02955l 4.16477, -4.12052l 4.16477, -4.2114l 4.16477, -4.30213l 4.16477, -4.39266l 4.16477, -4.48293l 4.16477, -4.5729l 4.16477,
 -4.6625l 4.16477, -4.75171l 4.16477, -4.84049l 4.16477, -4.92879l 4.16477, -5.01659l 4.16477, -5.10386l 4.16477, -5.19058l 4.16477, -5.27672l 4.16477, -5.36226l 4.16477, -5.44718l 4.16477, -5.53148l 4.16477, -5.61515l 4.16477, -5.69816l 4.16477,
 -5.78053l 4.16477, -5.86224l 4.16477, -5.94329l 4.16477, -6.02368l 4.16477, -6.10341l 4.16477, -6.18248l 4.16477, -6.2609l 4.16477, -6.33867l 4.16477, -6.4158l 4.16477, -6.4923l 4.16477, -6.56817" fill="none" stroke="#00ff00" fill-opacity="0.10"
 stroke-opacity="0.10" stroke-width="5"/>
<path d="M77.8085,332.042l 4.16477, -0.429651l 4.16477, -0.442661l 4.16477, -0.456259l 4.16477, -0.470472l 4.16477, -0.485331l 4.16477, -0.50086l 4.16477, -0.517089l 4.16477, -0.534051l 4.16477, -0.551775l 4.16477, -0.570297l 4.16477, -0.589653l
 4.16477, -0.609879l 4.16477, -0.631012l 4.16477, -0.653088l 4.16477, -0.676145l 4.16477, -0.700224l 4.16477, -0.725364l 4.16477, -0.751607l 4.16477, -0.778994l 4.16477, -0.807568l 4.16477, -0.83737l 4.16477, -0.868443l 4.16477, -0.900831l 4.16477,
 -0.934575l 4.16477, -0.969718l 4.16477, -1.0063l 4.16477, -1.04436l 4.16477, -1.08394l 4.16477, -1.12508l 4.16477, -1.16782l 4.16477, -1.21218l 4.16477, -1.25819l 4.16477, -1.3059l 4.16477, -1.35532l 4.16477, -1.40648l 4.16477, -1.45939l 4.16477,
 -1.51407l 4.16477, -1.57053l 4.16477, -1.62877l 4.16477, -1.6888l 4.16477, -1.75061l 4.16477, -1.81419l 4.16477, -1.87953l 4.16477, -1.94661l 4.16477, -2.0154l 4.16477, -2.08586l 4.16477, -2.15796l 4.16477, -2.23166l 4.16477, -2.30691l 4.16477,
 -2.38365l 4.16477, -2.46182l 4.16477, -2.54137l 4.16477, -2.62223l 4.16477, -2.70432l 4.16477, -2.78757l 4.16477, -2.8719l 4.16477, -2.95724l 4.16477, -3.04349l 4.16477, -3.13059l 4.16477, -3.21844l 4.16477, -3.30697l 4.16477, -3.39608l 4.16477,
 -3.4857l 4.16477, -3.57574l 4.16477, -3.66612l 4.16477, -3.75677l 4.16477, -3.8476l 4.16477, -3.93855l 4.16477, -4.02955l 4.16477, -4.12052l 4.16477, -4.2114l 4.16477, -4.30213l 4.16477, -4.39266l 4.16477, -4.48293l 4.16477, -4.5729l 4.16477,
 -4.6625l 4.16477, -4.75171l 4.16477, -4.84049l 4.16477, -4.92879l 4.16477, -5.01659l 4.16477, -5.10386l 4.16477, -5.19058l 4.16477, -5.27672l 4.16477, -5.36226l 4.16477, -5.44718l 4.16477, -5.53148l 4.16477, -5.61515l 4.16477, -5.69816l 4.16477,
 -5.78053l 4.16477, -5.86224l 4.16477, -5.94329l 4.16477, -6.02368l 4.16477, -6.10341l 4.16477, -6.18248l 4.16477, -6.2609l 4.16477, -6.33867l 4.16477, -6.4158l 4.16477, -6.4923l 4.16477, -6.56817" fill="none" stroke="#00ff00" fill-opacity="0.10"
 stroke-opacity="0.10" stroke-width="5"/>
<path d="M77.8085,332.042l 4.16477, -0.429651l 4.16477, -0.442661l 4.16477, -0.456259l 4.16477, -0.470472l 4.16477, -0.485331l 4.16477, -0.50086l 4.16477, -0.517089l 4.16477, -0.534051l 4.16477, -0.551775l 4.16477, -0.570297l 4.16477, -0.589653l
 4.16477, -0.609879l 4.16477, -0.631012l 4.16477, -0.653088l 4.16477, -0.676145l 4.16477, -0.700224l 4.16477, -0.725364l 4.16477, -0.751607l 4.16477, -0.778994l 4.16477, -0.807568l 4.16477, -0.83737l 4.16477, -0.868443l 4.16477, -0.900831l 4.16477,
 -0.934575l 4.16477, -0.969718l 4.16477, -1.0063l 4.16477, -1.04436l 4.16477, -1.08394l 4.16477, -1.12508l 4.16477, -1.16782l 4.16477, -1.21218l 4.16477, -1.25819l 4.16477, -1.3059l 4.16477, -1.35532l 4.16477, -1.40648l 4.16477, -1.45939l 4.16477,
 -1.51407l 4.16477, -1.57053l 4.16477, -1.62877l 4.16477, -1.6888l 4.16477, -1.75061l 4.16477, -1.81419l 4.16477, -1.87953l 4.16477, -1.94661l 4.16477, -2.0154l 4.16477, -2.08586l 4.16477, -2.15796l 4.16477, -2.23166l 4.16477, -2.30691l 4.16477,
 -2.38365l 4.16477, -2.46182l 4.16477, -2.54137l 4.16477, -2.62223l 4.16477, -2.70432l 4.16477, -2.78757l 4.16477, -2.8719l 4.16477, -2.95724l 4.16477, -3.04349l 4.16477, -3.13059l 4.16477, -3.21844l 4.16477, -3.30697l 4.16477, -3.39608l 4.16477,
 -3.4857l 4.16477, -3.57574l 4.16477, -3.66612l 4.16477, -3.75677l 4.16477, -3.8476l 4.16477, -3.93855l 4.16477, -4.02955l 4.16477, -4.12052l 4.16477, -4.2114l 4.16477, -4.30213l 4.16477, -4.39266l 4.16477, -4.48293l 4.16477, -4.5729l 4.16477,
 -4.6625l 4.16477, -4.75171l 4.16477, -4.84049l 4.16477, -4.92879l 4.16477, -5.01659l 4.16477, -5.10386l 4.16477, -5.19058l 4.16477, -5.27672l 4.16477, -5.36226l 4.16477, -5.44718l 4.16477, -5.53148l 4.16477, -5.61515l 4.16477, -5.69816l 4.16477,
 -5.78053l 4.16477, -5.86224l 4.16477, -5.94329l 4.16477, -6.02368l 4.16477, -6.10341l 4.16477, -6.18248l 4.16477, -6.2609l 4.16477, -6.33867l 4.16477, -6.4158l 4.16477, -6.4923l 4.16477, -6.56817" fill="none" stroke="#00ff00" fill-opacity="0.10"
 stroke-opacity="0.10" stroke-width="5"/>
<text xml:space="preserve" x="248.939" y="18.7347" fill="black" font-size="16.9898" font-family="Helvetica">Standard</text></svg>
