<?xml version="1.0" standalone="no"?>
<svg width="567.429" height="384.969" viewBox="0 0 567.429 384.969" xmlns="http://www.w3.org/2000/svg" shape-rendering="crispEdges">
<title>
sbml-modules.svg
</title>
<desc>
Creator: ROOT Version 6.18/04
CreationDate: Fri Feb 28 21:07:35 2020</desc>
<defs>
</defs>
<rect x="0.5" y="0" width="566.929" height="384.469" fill="white"/>
<rect x="57.1929" y="38.4469" width="453.543" height="307.575" fill="white"/>
<rect x="57.1929" y="38.4469" width="453.543" height="307.575" fill="none" stroke="black"/>
<rect x="57.1929" y="38.4469" width="453.543" height="307.575" fill="white"/>
<rect x="57.1929" y="38.4469" width="453.543" height="307.575" fill="none" stroke="black"/>
<path d="M57.1929,346.022h 453.543" fill="none" stroke="black"/>
<path d="M77.8085,38.4469v 307.575" fill="none" stroke="black" stroke-dasharray=" 1, 2"/>
<path d="M160.685,38.4469v 307.575" fill="none" stroke="black" stroke-dasharray=" 1, 2"/>
<path d="M243.562,38.4469v 307.575" fill="none" stroke="black" stroke-dasharray=" 1, 2"/>
<path d="M326.439,38.4469v 307.575" fill="none" stroke="black" stroke-dasharray=" 1, 2"/>
<path d="M409.316,38.4469v 307.575" fill="none" stroke="black" stroke-dasharray=" 1, 2"/>
<path d="M492.193,38.4469v 307.575" fill="none" stroke="black" stroke-dasharray=" 1, 2"/>
<path d="M77.8085,38.4469v 307.575" fill="none" stroke="black" stroke-dasharray=" 1, 2"/>
<path d="M492.193,38.4469v 307.575" fill="none" stroke="black" stroke-dasharray=" 1, 2"/>
<path d="M57.1929,346.022v -307.575" fill="none" stroke="black"/>
<path d="M510.736,332.201h -453.543" fill="none" stroke="black" stroke-dasharray=" 1, 2"/>
<path d="M510.736,292.423h -453.543" fill="none" stroke="black" stroke-dasharray=" 1, 2"/>
<path d="M510.736,252.644h -453.543" fill="none" stroke="black" stroke-dasharray=" 1, 2"/>
<path d="M510.736,212.866h -453.543" fill="none" stroke="black" stroke-dasharray=" 1, 2"/>
<path d="M510.736,173.088h -453.543" fill="none" stroke="black" stroke-dasharray=" 1, 2"/>
<path d="M510.736,133.309h -453.543" fill="none" stroke="black" stroke-dasharray=" 1, 2"/>
<path d="M510.736,93.5306h -453.543" fill="none" stroke="black" stroke-dasharray=" 1, 2"/>
<path d="M510.736,53.7521h -453.543" fill="none" stroke="black" stroke-dasharray=" 1, 2"/>
<path d="M510.736,332.201h -453.543" fill="none" stroke="black" stroke-dasharray=" 1, 2"/>
<path d="M510.736,53.7521h -453.543" fill="none" stroke="black" stroke-dasharray=" 1, 2"/>
<path d="M57.1929,346.022h 453.543" fill="none" stroke="black"/>
<path d="M77.8085,336.795v 9.22726" fill="none" stroke="black"/>
<path d="M98.5277,341.409v 4.61363" fill="none" stroke="black"/>
<path d="M119.247,341.409v 4.61363" fill="none" stroke="black"/>
<path d="M139.966,341.409v 4.61363" fill="none" stroke="black"/>
<path d="M160.685,336.795v 9.22726" fill="none" stroke="black"/>
<path d="M181.405,341.409v 4.61363" fill="none" stroke="black"/>
<path d="M202.124,341.409v 4.61363" fill="none" stroke="black"/>
<path d="M222.843,341.409v 4.61363" fill="none" stroke="black"/>
<path d="M243.562,336.795v 9.22726" fill="none" stroke="black"/>
<path d="M264.281,341.409v 4.61363" fill="none" stroke="black"/>
<path d="M285.001,341.409v 4.61363" fill="none" stroke="black"/>
<path d="M305.72,341.409v 4.61363" fill="none" stroke="black"/>
<path d="M326.439,336.795v 9.22726" fill="none" stroke="black"/>
<path d="M347.158,341.409v 4.61363" fill="none" stroke="black"/>
<path d="M367.877,341.409v 4.61363" fill="none" stroke="black"/>
<path d="M388.597,341.409v 4.61363" fill="none" stroke="black"/>
<path d="M409.316,336.795v 9.22726" fill="none" stroke="black"/>
<path d="M430.035,341.409v 4.61363" fill="none" stroke="black"/>
<path d="M450.754,341.409v 4.61363" fill="none" stroke="black"/>
<path d="M471.473,341.409v 4.61363" fill="none" stroke="black"/>
<path d="M492.193,336.795v 9.22726" fill="none" stroke="black"/>
<path d="M77.8085,336.795v 9.22726" fill="none" stroke="black"/>
<path d="M492.193,336.795v 9.22726" fill="none" stroke="black"/>
<text xml:space="preserve" x="73.8098" y="358.403" fill="black" font-size="12.8453" font-family="Helvetica">0</text>
<text xml:space="preserve" x="152.821" y="358.403" fill="black" font-size="12.8453" font-family="Helvetica">20</text>
<text xml:space="preserve" x="235.906" y="358.403" fill="black" font-size="12.8453" font-family="Helvetica">40</text>
<text xml:space="preserve" x="318.99" y="358.403" fill="black" font-size="12.8453" font-family="Helvetica">60</text>
<text xml:space="preserve" x="401.26" y="358.403" fill="black" font-size="12.8453" font-family="Helvetica">80</text>
<text xml:space="preserve" x="481.086" y="358.403" fill="black" font-size="12.8453" font-family="Helvetica">100</text>
<text xml:space="preserve" x="459.908" y="371.436" fill="black" font-size="12.8453" font-family="Helvetica">Timestep</text>
<path d="M57.1929,346.022v -307.575" fill="none" stroke="black"/>
<path d="M70.7992,332.201h -13.6063" fill="none" stroke="black"/>
<path d="M63.9961,324.246h -6.80315" fill="none" stroke="black"/>
<path d="M63.9961,316.29h -6.80315" fill="none" stroke="black"/>
<path d="M63.9961,308.334h -6.80315" fill="none" stroke="black"/>
<path d="M63.9961,300.379h -6.80315" fill="none" stroke="black"/>
<path d="M70.7992,292.423h -13.6063" fill="none" stroke="black"/>
<path d="M63.9961,284.467h -6.80315" fill="none" stroke="black"/>
<path d="M63.9961,276.512h -6.80315" fill="none" stroke="black"/>
<path d="M63.9961,268.556h -6.80315" fill="none" stroke="black"/>
<path d="M63.9961,260.6h -6.80315" fill="none" stroke="black"/>
<path d="M70.7992,252.644h -13.6063" fill="none" stroke="black"/>
<path d="M63.9961,244.689h -6.80315" fill="none" stroke="black"/>
<path d="M63.9961,236.733h -6.80315" fill="none" stroke="black"/>
<path d="M63.9961,228.777h -6.80315" fill="none" stroke="black"/>
<path d="M63.9961,220.822h -6.80315" fill="none" stroke="black"/>
<path d="M70.7992,212.866h -13.6063" fill="none" stroke="black"/>
<path d="M63.9961,204.91h -6.80315" fill="none" stroke="black"/>
<path d="M63.9961,196.955h -6.80315" fill="none" stroke="black"/>
<path d="M63.9961,188.999h -6.80315" fill="none" stroke="black"/>
<path d="M63.9961,181.043h -6.80315" fill="none" stroke="black"/>
<path d="M70.7992,173.088h -13.6063" fill="none" stroke="black"/>
<path d="M63.9961,165.132h -6.80315" fill="none" stroke="black"/>
<path d="M63.9961,157.176h -6.80315" fill="none" stroke="black"/>
<path d="M63.9961,149.22h -6.80315" fill="none" stroke="black"/>
<path d="M63.9961,141.265h -6.80315" fill="none" stroke="black"/>
<path d="M70.7992,133.309h -13.6063" fill="none" stroke="black"/>
<path d="M63.9961,125.353h -6.80315" fill="none" stroke="black"/>
<path d="M63.9961,117.398h -6.80315" fill="none" stroke="black"/>
<path d="M63.9961,109.442h -6.80315" fill="none" stroke="black"/>
<path d="M63.9961,101.486h -6.80315" fill="none" stroke="black"/>
<path d="M70.7992,93.5306h -13.6063" fill="none" stroke="black"/>
<path d="M63.9961,85.5749h -6.80315" fill="none" stroke="black"/>
<path d="M63.9961,77.6192h -6.80315" fill="none" stroke="black"/>
<path d="M63.9961,69.6635h -6.80315" fill="none" stroke="black"/>
<path d="M63.9961,61.7078h -6.80315" fill="none" stroke="black"/>
<path d="M70.7992,53.7521h -13.6063" fill="none" stroke="black"/>
<path d="M70.7992,332.201h -13.6063" fill="none" stroke="black"/>
<path d="M63.9961,340.157h -6.80315" fill="none" stroke="black"/>
<path d="M70.7992,53.7521h -13.6063" fill="none" stroke="black"/>
<path d="M63.9961,45.7965h -6.80315" fill="none" stroke="black"/>
<text xml:space="preserve" x="39.5986" y="336.411" fill="black" font-size="12.8453" font-family="Helvetica">0.1</text>
<text xml:space="preserve" x="30.6385" y="296.497" fill="black" font-size="12.8453" font-family="Helvetica">0.15</text>
<text xml:space="preserve" x="37.1549" y="257.399" fill="black" font-size="12.8453" font-family="Helvetica">0.2</text>
<text xml:space="preserve" x="30.6385" y="217.486" fill="black" font-size="12.8453" font-family="Helvetica">0.25</text>
<text xml:space="preserve" x="37.1549" y="177.573" fill="black" font-size="12.8453" font-family="Helvetica">0.3</text>
<text xml:space="preserve" x="30.6385" y="137.66" fill="black" font-size="12.8453" font-family="Helvetica">0.35</text>
<text xml:space="preserve" x="37.1549" y="97.7464" fill="black" font-size="12.8453" font-family="Helvetica">0.4</text>
<text xml:space="preserve" x="30.6385" y="57.8333" fill="black" font-size="12.8453" font-family="Helvetica">0.45</text>
<text xml:space="preserve" x="81.1408" y="30.1385" fill="black" font-size="8.73023" font-family="Helvetica">15</text>
<text xml:space="preserve" x="77.068" y="30.1385" fill="black" font-size="8.73023" font-family="Times">&#8722;</text>
<text xml:space="preserve" x="63.2206" y="36.6549" fill="black" font-size="12.8453" font-family="Helvetica">10</text>
<text xml:space="preserve" x="56.7042" y="36.6549" fill="black" font-size="12.8453" font-family="Times">&#0215;</text>
<g transform="rotate(-90,18.4202,114.037)">
<text xml:space="preserve" x="18.4202" y="114.037" fill="black" font-size="12.8453" font-family="Helvetica">Concentration</text>
</g>
<path d="M77.8085,332.042l 2.07192, -0.16337l 2.07192, -0.168317l 2.07192, -0.173487l 2.07192, -0.178892l 2.07192, -0.184541l 2.07192, -0.190446l 2.07192, -0.196617l 2.07192, -0.203067l 2.07192, -0.209806l 2.07192, -0.216849l 2.07192, -0.224209l
 2.07192, -0.231899l 2.07192, -0.239935l 2.07192, -0.248329l 2.07192, -0.257096l 2.07192, -0.266252l 2.07192, -0.275811l 2.07192, -0.28579l 2.07192, -0.296203l 2.07192, -0.307068l 2.07192, -0.3184l 2.07192, -0.330216l 2.07192, -0.342531l 2.07192,
 -0.355361l 2.07192, -0.368724l 2.07192, -0.382634l 2.07192, -0.397107l 2.07192, -0.412157l 2.07192, -0.4278l 2.07192, -0.444048l 2.07192, -0.460916l 2.07192, -0.478414l 2.07192, -0.496553l 2.07192, -0.515345l 2.07192, -0.534796l 2.07192, -0.554915l
 2.07192, -0.575706l 2.07192, -0.597174l 2.07192, -0.619321l 2.07192, -0.642146l 2.07192, -0.66565l 2.07192, -0.689827l 2.07192, -0.714671l 2.07192, -0.740176l 2.07192, -0.766331l 2.07192, -0.793124l 2.07192, -0.82054l 2.07192, -0.848563l 2.07192,
 -0.877174l 2.07192, -0.906354l 2.07192, -0.93608l 2.07192, -0.966328l 2.07192, -0.997072l 2.07192, -1.02829l 2.07192, -1.05994l 2.07192, -1.09201l 2.07192, -1.12445l 2.07192, -1.15725l 2.07192, -1.19037l 2.07192, -1.22378l 2.07192, -1.25744l
 2.07192, -1.29132l 2.07192, -1.3254l 2.07192, -1.35963l 2.07192, -1.394l 2.07192, -1.42847l 2.07192, -1.46301l 2.07192, -1.49759l 2.07192, -1.53219l 2.07192, -1.56678l 2.07192, -1.60134l 2.07192, -1.63584l 2.07192, -1.67026l 2.07192, -1.70458l
 2.07192, -1.73879l 2.07192, -1.77286l 2.07192, -1.80678l 2.07192, -1.84054l 2.07192, -1.87412l 2.07192, -1.9075l 2.07192, -1.94069l 2.07192, -1.97366l 2.07192, -2.00641l 2.07192, -2.03894l 2.07192, -2.07123l 2.07192, -2.10328l 0.691362, -1.31301l
 0.681539, -1.31612l 0.367026, -0.0963913l 0.331992, 0.59043l 0.305093, 1.31511l 0.244463, 1.88243l 0.219509, 2.84285l 0.149207, 3.22207l 0.113398, 4.28017l 0.0665532, 5.578l 0.00891135, 7.74938l -0.145498, 20.9361l -0.0411002, 10.3081l 0.0321996,
 5.97217l 0.0792015, 4.37124l 0.113786, 3.18257l 0.153004, 2.48293l 0.20876, 1.95586l 0.243808, 1.21953l 0.320624, 0.630519l 0.378982, -0.212609l 0.250668, -0.938455l 0.219336, -1.81526l 0.159716, -2.55075l 0.111396, -3.39863l 0.0665054, -4.65l
 0.0115032, -6.78401l -0.0739038, -11.1173l -0.146903, -17.4909l -0.0193396, -8.5562l 0.0411526, -6.38687l 0.102242, -5.50911l 0.13364, -3.86291l 0.199484, -3.5161l 0.213356, -2.39526l 0.274369, -1.97709l 0.149716, -0.738775l 0.415812, -1.20811l
 1.65611, -0.00804697l 2.07192, -1.04772l 2.07192, -1.08753l 2.07192, -1.16225l 2.07192, -1.19727l 2.07192, -1.20253l 2.07192, -1.2052l 2.07192, -1.21613l 2.07192, -1.23238l 2.07192, -1.24886l 2.07192, -1.26373l 2.07192, -1.27756l 2.07192, -1.29127l
 2.07192, -1.30515l 2.07192, -1.31907l 2.07192, -1.33288l 2.07192, -1.34654l 2.07192, -1.36006l 2.07192, -1.37348l 2.07192, -1.38682l 2.07192, -1.40006l 2.07192, -1.41321l 2.07192, -1.42626l 2.07192, -1.43923l 2.07192, -1.4521l 2.07192, -1.46489l
 2.07192, -1.4776l 2.07192, -1.49023l 2.07192, -1.50278l 2.07192, -1.51525l 2.07192, -1.52765l 2.07192, -1.53997l 2.07192, -1.55223l 2.07192, -1.56442l 2.07192, -1.57654l 2.07192, -1.5886l 2.07192, -1.60059l 2.07192, -1.61253l 2.07192, -1.62441l
 2.07192, -1.63623l 2.07192, -1.64799l 2.07192, -1.6597l 2.07192, -1.67136l 2.07192, -1.68297l 2.07192, -1.69454l 2.07192, -1.70605l 2.07192, -1.71752l 2.07192, -1.72894l 2.07192, -1.74033l 2.07192, -1.75167l 2.07192, -1.76297l 2.07192, -1.77423l
 2.07192, -1.78546l 2.07192, -1.79665l 2.07192, -1.8078l 2.07192, -1.81892l 2.07192, -1.83001l 2.07192, -1.84107l 2.07192, -1.85209l 2.07192, -1.86309l 2.07192, -1.87405l 2.07192, -1.88499l 2.07192, -1.8959l 2.07192, -1.90679l 2.07192, -1.91765l
 2.07192, -1.92848l 2.07192, -1.9393l 2.07192, -1.95009l 2.07192, -1.96085l 2.07192, -1.9716l 2.07192, -1.98232l 2.07192, -1.99303l 2.07192, -2.00371l 2.07192, -2.01438l 2.07192, -2.02503l 2.07192, -2.03566l 2.07192, -2.04627l 2.07192, -2.05687l
 2.07192, -2.06745l 2.07192, -2.07801l 2.07192, -2.08856l 2.07192, -2.0991l 2.07192, -2.10962l 2.07192, -2.12012l 2.07192, -2.13062l 2.07192, -2.1411l 2.07192, -2.15156l 2.07192, -2.16202l 2.07192, -2.17246l 2.07192, -2.1829l 2.07192, -2.19332l
 2.07192, -2.20373l 2.07192, -2.21413l 2.07192, -2.22452l 2.07192, -2.2349l 2.07192, -2.24527l 2.07192, -2.25563l 2.07192, -2.26598l 2.07192, -2.27632l 2.07192, -2.28666l 2.07192, -2.29698l 2.07192, -2.3073l 2.07192, -2.31761l 2.07192, -2.32791l
 2.07192, -2.33821l 2.07192, -2.34849l 2.07192, -2.35877l 2.07192, -2.36904l 2.07192, -2.37931l 2.07192, -2.38957" fill="none" stroke="#876656" fill-opacity="0.10" stroke-opacity="0.10" stroke-width="5"/>
<g stroke="black" stroke-width="5" fill="none">
<line x1="76.8085" y1="332.042" x2="77.8085" y2="332.042"/>
<line x1="78.8804" y1="331.878" x2="79.8804" y2="331.878"/>
<line x1="80.9524" y1="331.71" x2="81.9524" y2="331.71"/>
<line x1="83.0243" y1="331.536" x2="84.0243" y2="331.536"/>
<line x1="85.0962" y1="331.357" x2="86.0962" y2="331.357"/>
<line x1="87.1681" y1="331.173" x2="88.1681" y2="331.173"/>
<line x1="89.24" y1="330.983" x2="90.24" y2="330.983"/>
<line x1="91.312" y1="330.786" x2="92.312" y2="330.786"/>
<line x1="93.3839" y1="330.583" x2="94.3839" y2="330.583"/>
<line x1="95.4558" y1="330.373" x2="96.4558" y2="330.373"/>
<line x1="97.5277" y1="330.156" x2="98.5277" y2="330.156"/>
<line x1="99.5996" y1="329.932" x2="100.6" y2="329.932"/>
<line x1="101.672" y1="329.7" x2="102.672" y2="329.7"/>
<line x1="103.743" y1="329.46" x2="104.743" y2="329.46"/>
<line x1="105.815" y1="329.212" x2="106.815" y2="329.212"/>
<line x1="107.887" y1="328.955" x2="108.887" y2="328.955"/>
<line x1="109.959" y1="328.688" x2="110.959" y2="328.688"/>
<line x1="112.031" y1="328.413" x2="113.031" y2="328.413"/>
<line x1="114.103" y1="328.127" x2="115.103" y2="328.127"/>
<line x1="116.175" y1="327.831" x2="117.175" y2="327.831"/>
<line x1="118.247" y1="327.524" x2="119.247" y2="327.524"/>
<line x1="120.319" y1="327.205" x2="121.319" y2="327.205"/>
<line x1="122.391" y1="326.875" x2="123.391" y2="326.875"/>
<line x1="124.463" y1="326.532" x2="125.463" y2="326.532"/>
<line x1="126.535" y1="326.177" x2="127.535" y2="326.177"/>
<line x1="128.607" y1="325.808" x2="129.607" y2="325.808"/>
<line x1="130.678" y1="325.426" x2="131.678" y2="325.426"/>
<line x1="132.75" y1="325.029" x2="133.75" y2="325.029"/>
<line x1="134.822" y1="324.616" x2="135.822" y2="324.616"/>
<line x1="136.894" y1="324.189" x2="137.894" y2="324.189"/>
<line x1="138.966" y1="323.745" x2="139.966" y2="323.745"/>
<line x1="141.038" y1="323.284" x2="142.038" y2="323.284"/>
<line x1="143.11" y1="322.805" x2="144.11" y2="322.805"/>
<line x1="145.182" y1="322.309" x2="146.182" y2="322.309"/>
<line x1="147.254" y1="321.793" x2="148.254" y2="321.793"/>
<line x1="149.326" y1="321.259" x2="150.326" y2="321.259"/>
<line x1="151.398" y1="320.704" x2="152.398" y2="320.704"/>
<line x1="153.47" y1="320.128" x2="154.47" y2="320.128"/>
<line x1="155.541" y1="319.531" x2="156.541" y2="319.531"/>
<line x1="157.613" y1="318.911" x2="158.613" y2="318.911"/>
<line x1="159.685" y1="318.269" x2="160.685" y2="318.269"/>
<line x1="161.757" y1="317.604" x2="162.757" y2="317.604"/>
<line x1="163.829" y1="316.914" x2="164.829" y2="316.914"/>
<line x1="165.901" y1="316.199" x2="166.901" y2="316.199"/>
<line x1="167.973" y1="315.459" x2="168.973" y2="315.459"/>
<line x1="170.045" y1="314.693" x2="171.045" y2="314.693"/>
<line x1="172.117" y1="313.9" x2="173.117" y2="313.9"/>
<line x1="174.189" y1="313.079" x2="175.189" y2="313.079"/>
<line x1="176.261" y1="312.23" x2="177.261" y2="312.23"/>
<line x1="178.333" y1="311.353" x2="179.333" y2="311.353"/>
<line x1="180.405" y1="310.447" x2="181.405" y2="310.447"/>
<line x1="182.476" y1="309.511" x2="183.476" y2="309.511"/>
<line x1="184.548" y1="308.544" x2="185.548" y2="308.544"/>
<line x1="186.62" y1="307.547" x2="187.62" y2="307.547"/>
<line x1="188.692" y1="306.519" x2="189.692" y2="306.519"/>
<line x1="190.764" y1="305.459" x2="191.764" y2="305.459"/>
<line x1="192.836" y1="304.367" x2="193.836" y2="304.367"/>
<line x1="194.908" y1="303.243" x2="195.908" y2="303.243"/>
<line x1="196.98" y1="302.085" x2="197.98" y2="302.085"/>
<line x1="199.052" y1="300.895" x2="200.052" y2="300.895"/>
<line x1="201.124" y1="299.671" x2="202.124" y2="299.671"/>
<line x1="203.196" y1="298.414" x2="204.196" y2="298.414"/>
<line x1="205.268" y1="297.123" x2="206.268" y2="297.123"/>
<line x1="207.339" y1="295.797" x2="208.339" y2="295.797"/>
<line x1="209.411" y1="294.438" x2="210.411" y2="294.438"/>
<line x1="211.483" y1="293.044" x2="212.483" y2="293.044"/>
<line x1="213.555" y1="291.615" x2="214.555" y2="291.615"/>
<line x1="215.627" y1="290.152" x2="216.627" y2="290.152"/>
<line x1="217.699" y1="288.654" x2="218.699" y2="288.654"/>
<line x1="219.771" y1="287.122" x2="220.771" y2="287.122"/>
<line x1="221.843" y1="285.556" x2="222.843" y2="285.556"/>
<line x1="223.915" y1="283.954" x2="224.915" y2="283.954"/>
<line x1="225.987" y1="282.318" x2="226.987" y2="282.318"/>
<line x1="228.059" y1="280.648" x2="229.059" y2="280.648"/>
<line x1="230.131" y1="278.944" x2="231.131" y2="278.944"/>
<line x1="232.203" y1="277.205" x2="233.203" y2="277.205"/>
<line x1="234.274" y1="275.432" x2="235.274" y2="275.432"/>
<line x1="236.346" y1="273.625" x2="237.346" y2="273.625"/>
<line x1="238.418" y1="271.785" x2="239.418" y2="271.785"/>
<line x1="240.49" y1="269.91" x2="241.49" y2="269.91"/>
<line x1="242.562" y1="268.003" x2="243.562" y2="268.003"/>
<line x1="244.634" y1="266.062" x2="245.634" y2="266.062"/>
<line x1="246.706" y1="264.089" x2="247.706" y2="264.089"/>
<line x1="248.778" y1="262.082" x2="249.778" y2="262.082"/>
<line x1="250.85" y1="260.043" x2="251.85" y2="260.043"/>
<line x1="252.922" y1="257.972" x2="253.922" y2="257.972"/>
<line x1="254.994" y1="255.869" x2="255.994" y2="255.869"/>
<line x1="257.066" y1="253.734" x2="258.066" y2="253.734"/>
<line x1="259.137" y1="331.663" x2="260.137" y2="331.663"/>
<line x1="261.209" y1="249.762" x2="262.209" y2="249.762"/>
<line x1="263.281" y1="248.546" x2="264.281" y2="248.546"/>
<line x1="265.353" y1="247.499" x2="266.353" y2="247.499"/>
<line x1="267.425" y1="246.411" x2="268.425" y2="246.411"/>
<line x1="269.497" y1="245.249" x2="270.497" y2="245.249"/>
<line x1="271.569" y1="244.052" x2="272.569" y2="244.052"/>
<line x1="273.641" y1="242.849" x2="274.641" y2="242.849"/>
<line x1="275.713" y1="241.644" x2="276.713" y2="241.644"/>
<line x1="277.785" y1="240.428" x2="278.785" y2="240.428"/>
<line x1="279.857" y1="239.195" x2="280.857" y2="239.195"/>
<line x1="281.929" y1="237.946" x2="282.929" y2="237.946"/>
<line x1="284.001" y1="236.683" x2="285.001" y2="236.683"/>
<line x1="286.072" y1="235.405" x2="287.072" y2="235.405"/>
<line x1="288.144" y1="234.114" x2="289.144" y2="234.114"/>
<line x1="290.216" y1="232.809" x2="291.216" y2="232.809"/>
<line x1="292.288" y1="231.49" x2="293.288" y2="231.49"/>
<line x1="294.36" y1="230.157" x2="295.36" y2="230.157"/>
<line x1="296.432" y1="228.81" x2="297.432" y2="228.81"/>
<line x1="298.504" y1="227.45" x2="299.504" y2="227.45"/>
<line x1="300.576" y1="226.077" x2="301.576" y2="226.077"/>
<line x1="302.648" y1="224.69" x2="303.648" y2="224.69"/>
<line x1="304.72" y1="223.29" x2="305.72" y2="223.29"/>
<line x1="306.792" y1="221.877" x2="307.792" y2="221.877"/>
<line x1="308.864" y1="220.45" x2="309.864" y2="220.45"/>
<line x1="310.935" y1="219.011" x2="311.935" y2="219.011"/>
<line x1="313.007" y1="217.559" x2="314.007" y2="217.559"/>
<line x1="315.079" y1="216.094" x2="316.079" y2="216.094"/>
<line x1="317.151" y1="214.617" x2="318.151" y2="214.617"/>
<line x1="319.223" y1="213.126" x2="320.223" y2="213.126"/>
<line x1="321.295" y1="211.624" x2="322.295" y2="211.624"/>
<line x1="323.367" y1="210.108" x2="324.367" y2="210.108"/>
<line x1="325.439" y1="208.581" x2="326.439" y2="208.581"/>
<line x1="327.511" y1="207.041" x2="328.511" y2="207.041"/>
<line x1="329.583" y1="205.488" x2="330.583" y2="205.488"/>
<line x1="331.655" y1="203.924" x2="332.655" y2="203.924"/>
<line x1="333.727" y1="202.347" x2="334.727" y2="202.347"/>
<line x1="335.799" y1="200.759" x2="336.799" y2="200.759"/>
<line x1="337.87" y1="199.158" x2="338.87" y2="199.158"/>
<line x1="339.942" y1="197.546" x2="340.942" y2="197.546"/>
<line x1="342.014" y1="195.921" x2="343.014" y2="195.921"/>
<line x1="344.086" y1="194.285" x2="345.086" y2="194.285"/>
<line x1="346.158" y1="192.637" x2="347.158" y2="192.637"/>
<line x1="348.23" y1="190.977" x2="349.23" y2="190.977"/>
<line x1="350.302" y1="189.306" x2="351.302" y2="189.306"/>
<line x1="352.374" y1="187.623" x2="353.374" y2="187.623"/>
<line x1="354.446" y1="185.929" x2="355.446" y2="185.929"/>
<line x1="356.518" y1="184.222" x2="357.518" y2="184.222"/>
<line x1="358.59" y1="182.505" x2="359.59" y2="182.505"/>
<line x1="360.662" y1="180.776" x2="361.662" y2="180.776"/>
<line x1="362.733" y1="179.036" x2="363.733" y2="179.036"/>
<line x1="364.805" y1="177.284" x2="365.805" y2="177.284"/>
<line x1="366.877" y1="175.521" x2="367.877" y2="175.521"/>
<line x1="368.949" y1="173.747" x2="369.949" y2="173.747"/>
<line x1="371.021" y1="171.961" x2="372.021" y2="171.961"/>
<line x1="373.093" y1="170.165" x2="374.093" y2="170.165"/>
<line x1="375.165" y1="168.357" x2="376.165" y2="168.357"/>
<line x1="377.237" y1="166.538" x2="378.237" y2="166.538"/>
<line x1="379.309" y1="164.708" x2="380.309" y2="164.708"/>
<line x1="381.381" y1="162.867" x2="382.381" y2="162.867"/>
<line x1="383.453" y1="161.015" x2="384.453" y2="161.015"/>
<line x1="385.525" y1="159.152" x2="386.525" y2="159.152"/>
<line x1="387.597" y1="157.278" x2="388.597" y2="157.278"/>
<line x1="389.668" y1="155.393" x2="390.668" y2="155.393"/>
<line x1="391.74" y1="153.497" x2="392.74" y2="153.497"/>
<line x1="393.812" y1="151.59" x2="394.812" y2="151.59"/>
<line x1="395.884" y1="149.672" x2="396.884" y2="149.672"/>
<line x1="397.956" y1="147.744" x2="398.956" y2="147.744"/>
<line x1="400.028" y1="145.805" x2="401.028" y2="145.805"/>
<line x1="402.1" y1="143.854" x2="403.1" y2="143.854"/>
<line x1="404.172" y1="141.894" x2="405.172" y2="141.894"/>
<line x1="406.244" y1="139.922" x2="407.244" y2="139.922"/>
<line x1="408.316" y1="137.94" x2="409.316" y2="137.94"/>
<line x1="410.388" y1="135.947" x2="411.388" y2="135.947"/>
<line x1="412.46" y1="133.943" x2="413.46" y2="133.943"/>
<line x1="414.531" y1="131.929" x2="415.531" y2="131.929"/>
<line x1="416.603" y1="129.904" x2="417.603" y2="129.904"/>
<line x1="418.675" y1="127.868" x2="419.675" y2="127.868"/>
<line x1="420.747" y1="125.822" x2="421.747" y2="125.822"/>
<line x1="422.819" y1="123.765" x2="423.819" y2="123.765"/>
<line x1="424.891" y1="121.697" x2="425.891" y2="121.697"/>
<line x1="426.963" y1="119.619" x2="427.963" y2="119.619"/>
<line x1="429.035" y1="117.531" x2="430.035" y2="117.531"/>
<line x1="431.107" y1="115.432" x2="432.107" y2="115.432"/>
<line x1="433.179" y1="113.322" x2="434.179" y2="113.322"/>
<line x1="435.251" y1="111.202" x2="436.251" y2="111.202"/>
<line x1="437.323" y1="109.071" x2="438.323" y2="109.071"/>
<line x1="439.395" y1="106.93" x2="440.395" y2="106.93"/>
<line x1="441.466" y1="104.779" x2="442.466" y2="104.779"/>
<line x1="443.538" y1="102.617" x2="444.538" y2="102.617"/>
<line x1="445.61" y1="100.444" x2="446.61" y2="100.444"/>
<line x1="447.682" y1="98.2613" x2="448.682" y2="98.2613"/>
<line x1="449.754" y1="96.0679" x2="450.754" y2="96.0679"/>
<line x1="451.826" y1="93.8642" x2="452.826" y2="93.8642"/>
<line x1="453.898" y1="91.6501" x2="454.898" y2="91.6501"/>
<line x1="455.97" y1="89.4256" x2="456.97" y2="89.4256"/>
<line x1="458.042" y1="87.1907" x2="459.042" y2="87.1907"/>
<line x1="460.114" y1="84.9454" x2="461.114" y2="84.9454"/>
<line x1="462.186" y1="82.6898" x2="463.186" y2="82.6898"/>
<line x1="464.258" y1="80.4238" x2="465.258" y2="80.4238"/>
<line x1="466.329" y1="78.1475" x2="467.329" y2="78.1475"/>
<line x1="468.401" y1="75.8608" x2="469.401" y2="75.8608"/>
<line x1="470.473" y1="73.5638" x2="471.473" y2="73.5638"/>
<line x1="472.545" y1="71.2565" x2="473.545" y2="71.2565"/>
<line x1="474.617" y1="68.9389" x2="475.617" y2="68.9389"/>
<line x1="476.689" y1="66.611" x2="477.689" y2="66.611"/>
<line x1="478.761" y1="64.2728" x2="479.761" y2="64.2728"/>
<line x1="480.833" y1="61.9243" x2="481.833" y2="61.9243"/>
<line x1="482.905" y1="59.5655" x2="483.905" y2="59.5655"/>
<line x1="484.977" y1="57.1965" x2="485.977" y2="57.1965"/>
<line x1="487.049" y1="54.8172" x2="488.049" y2="54.8172"/>
<line x1="489.121" y1="52.4276" x2="490.121" y2="52.4276"/>
</g>
<text xml:space="preserve" x="248.939" y="18.7347" fill="black" font-size="16.9898" font-family="Helvetica">Standard</text></svg>
